<mxfile host="Electron" agent="Mozilla/5.0 (Macintosh; Intel Mac OS X 10_15_7) AppleWebKit/537.36 (KHTML, like Gecko) draw.io/27.0.5 Chrome/134.0.6998.205 Electron/35.3.0 Safari/537.36" version="27.0.5">
  <diagram name="Page-1" id="GMO3YQDFHARuqXottcGS">
    <mxGraphModel dx="1091" dy="676" grid="1" gridSize="10" guides="1" tooltips="1" connect="1" arrows="1" fold="1" page="1" pageScale="1" pageWidth="850" pageHeight="1100" math="0" shadow="0">
      <root>
        <mxCell id="0" />
        <mxCell id="1" parent="0" />
        <UserObject label="" id="_1PXEeMUK1e578rC1gDx-1">
          <mxCell style="rounded=0;whiteSpace=wrap;html=1;fillColor=#dae8fc;strokeColor=#6c8ebf;fillStyle=hatch;labelPosition=center;verticalLabelPosition=top;align=center;verticalAlign=bottom;" parent="1" vertex="1">
            <mxGeometry x="100" y="300" width="1350" height="570" as="geometry" />
          </mxCell>
        </UserObject>
        <mxCell id="_1PXEeMUK1e578rC1gDx-2" value="e" style="rounded=0;whiteSpace=wrap;html=1;dashed=1;fillColor=none;" parent="1" vertex="1">
          <mxGeometry x="270" y="330" width="1060" height="410" as="geometry" />
        </mxCell>
        <mxCell id="_1PXEeMUK1e578rC1gDx-3" value="" style="rounded=1;whiteSpace=wrap;html=1;" parent="1" vertex="1">
          <mxGeometry x="290" y="380" width="870" height="350" as="geometry" />
        </mxCell>
        <mxCell id="_1PXEeMUK1e578rC1gDx-4" value="" style="image;aspect=fixed;html=1;points=[];align=center;fontSize=12;image=img/lib/azure2/networking/Virtual_Networks.svg;" parent="1" vertex="1">
          <mxGeometry x="1100" y="401" width="33.5" height="20" as="geometry" />
        </mxCell>
        <mxCell id="_1PXEeMUK1e578rC1gDx-5" value="observability-vnet" style="text;html=1;align=center;verticalAlign=middle;whiteSpace=wrap;rounded=0;" parent="1" vertex="1">
          <mxGeometry x="988" y="396" width="120" height="30" as="geometry" />
        </mxCell>
        <mxCell id="_1PXEeMUK1e578rC1gDx-92" value="" style="image;aspect=fixed;html=1;points=[];align=left;fontSize=12;image=img/lib/azure2/general/Resource_Groups.svg;labelPosition=right;verticalLabelPosition=middle;verticalAlign=middle;" parent="1" vertex="1">
          <mxGeometry x="1280" y="343" width="32.94" height="31" as="geometry" />
        </mxCell>
        <mxCell id="_1PXEeMUK1e578rC1gDx-93" value="&lt;div style=&quot;text-align: left;&quot;&gt;&lt;span style=&quot;color: light-dark(rgb(0, 0, 0), rgb(255, 255, 255)); text-wrap: nowrap; background-color: rgb(255, 255, 255);&quot;&gt;observability-demo-rg&lt;/span&gt;&lt;/div&gt;" style="text;html=1;align=center;verticalAlign=middle;whiteSpace=wrap;rounded=0;" parent="1" vertex="1">
          <mxGeometry x="1180" y="343" width="60" height="30" as="geometry" />
        </mxCell>
        <mxCell id="_1PXEeMUK1e578rC1gDx-161" value="" style="image;aspect=fixed;html=1;points=[];align=center;fontSize=12;image=img/lib/azure2/networking/Virtual_Networks.svg;" parent="1" vertex="1">
          <mxGeometry x="1099" y="760" width="33.5" height="20" as="geometry" />
        </mxCell>
        <mxCell id="_1PXEeMUK1e578rC1gDx-162" value="Virtual Network" style="text;html=1;align=center;verticalAlign=middle;whiteSpace=wrap;rounded=0;" parent="1" vertex="1">
          <mxGeometry x="1132.5" y="755" width="102" height="30" as="geometry" />
        </mxCell>
        <mxCell id="_1PXEeMUK1e578rC1gDx-166" value="" style="image;sketch=0;aspect=fixed;html=1;points=[];align=center;fontSize=12;image=img/lib/mscae/Azure_Data_Explorer_Clusters.svg;imageBorder=default;strokeWidth=0.1;" parent="1" vertex="1">
          <mxGeometry x="990" y="569" width="50" height="50" as="geometry" />
        </mxCell>
        <mxCell id="_1PXEeMUK1e578rC1gDx-332" value="" style="image;sketch=0;aspect=fixed;html=1;points=[];align=center;fontSize=12;image=img/lib/mscae/Azure_Data_Explorer_Clusters.svg;" parent="1" vertex="1">
          <mxGeometry x="943" y="755" width="30" height="30" as="geometry" />
        </mxCell>
        <mxCell id="_1PXEeMUK1e578rC1gDx-333" value="Data Explorer" style="text;html=1;align=center;verticalAlign=middle;whiteSpace=wrap;rounded=0;" parent="1" vertex="1">
          <mxGeometry x="968.5" y="755" width="102" height="30" as="geometry" />
        </mxCell>
        <mxCell id="_1PXEeMUK1e578rC1gDx-335" value="" style="shape=image;verticalLabelPosition=bottom;labelBackgroundColor=default;verticalAlign=top;aspect=fixed;imageAspect=0;image=https://opentelemetry.io/img/logos/opentelemetry-icon-color.png;" parent="1" vertex="1">
          <mxGeometry x="731" y="750" width="40" height="40" as="geometry" />
        </mxCell>
        <mxCell id="_1PXEeMUK1e578rC1gDx-336" value="OpenTelemetry Collector" style="text;html=1;align=center;verticalAlign=middle;whiteSpace=wrap;rounded=0;" parent="1" vertex="1">
          <mxGeometry x="779" y="755" width="135" height="30" as="geometry" />
        </mxCell>
        <mxCell id="b5N7aF0onNaH-U6v3WgW-5" value="Alert" style="edgeStyle=orthogonalEdgeStyle;rounded=0;orthogonalLoop=1;jettySize=auto;html=1;entryX=0.002;entryY=0.417;entryDx=0;entryDy=0;entryPerimeter=0;" parent="1" target="b5N7aF0onNaH-U6v3WgW-4" edge="1">
          <mxGeometry x="-0.1281" y="-1" relative="1" as="geometry">
            <mxPoint x="1138.9299999999998" y="537" as="sourcePoint" />
            <mxPoint x="1218" y="524.5" as="targetPoint" />
            <mxPoint as="offset" />
          </mxGeometry>
        </mxCell>
        <mxCell id="_1PXEeMUK1e578rC1gDx-339" value="" style="shape=image;verticalLabelPosition=bottom;labelBackgroundColor=default;verticalAlign=top;aspect=fixed;imageAspect=0;image=https://static-00.iconduck.com/assets.00/grafana-color-icon-230x256-a4p6yuq1.png;imageBorder=default;strokeWidth=0.1;" parent="1" vertex="1">
          <mxGeometry x="1094" y="515" width="44.93" height="50" as="geometry" />
        </mxCell>
        <mxCell id="_1PXEeMUK1e578rC1gDx-341" value="" style="shape=image;verticalLabelPosition=bottom;labelBackgroundColor=default;verticalAlign=top;aspect=fixed;imageAspect=0;image=https://images.ctfassets.net/aw6mkmszlj4x/7tnHhWpXwdmm92zwouCJtI/54d97b73889930e44c3dbe638a859524/Jaeger_logo.png;imageBorder=default;strokeWidth=0.1;" parent="1" vertex="1">
          <mxGeometry x="1094" y="609.5" width="53.62" height="61" as="geometry" />
        </mxCell>
        <mxCell id="_1PXEeMUK1e578rC1gDx-342" value="" style="shape=image;verticalLabelPosition=bottom;labelBackgroundColor=default;verticalAlign=top;aspect=fixed;imageAspect=0;image=https://images.ctfassets.net/aw6mkmszlj4x/7tnHhWpXwdmm92zwouCJtI/54d97b73889930e44c3dbe638a859524/Jaeger_logo.png;" parent="1" vertex="1">
          <mxGeometry x="1095.65" y="799" width="42.19" height="48" as="geometry" />
        </mxCell>
        <mxCell id="_1PXEeMUK1e578rC1gDx-343" value="Jaeger" style="text;html=1;align=center;verticalAlign=middle;whiteSpace=wrap;rounded=0;" parent="1" vertex="1">
          <mxGeometry x="1116" y="808" width="102" height="30" as="geometry" />
        </mxCell>
        <mxCell id="_1PXEeMUK1e578rC1gDx-344" value="" style="shape=image;verticalLabelPosition=bottom;labelBackgroundColor=default;verticalAlign=top;aspect=fixed;imageAspect=0;image=https://static-00.iconduck.com/assets.00/grafana-color-icon-230x256-a4p6yuq1.png;" parent="1" vertex="1">
          <mxGeometry x="936.1600000000001" y="804.5" width="36.84" height="41" as="geometry" />
        </mxCell>
        <mxCell id="_1PXEeMUK1e578rC1gDx-345" value="Grafana" style="text;html=1;align=center;verticalAlign=middle;whiteSpace=wrap;rounded=0;" parent="1" vertex="1">
          <mxGeometry x="973" y="808" width="72" height="30" as="geometry" />
        </mxCell>
        <mxCell id="_1PXEeMUK1e578rC1gDx-346" style="edgeStyle=orthogonalEdgeStyle;rounded=0;orthogonalLoop=1;jettySize=auto;html=1;entryX=0.96;entryY=0.647;entryDx=0;entryDy=0;entryPerimeter=0;" parent="1" source="_1PXEeMUK1e578rC1gDx-341" target="_1PXEeMUK1e578rC1gDx-166" edge="1">
          <mxGeometry relative="1" as="geometry" />
        </mxCell>
        <mxCell id="_1PXEeMUK1e578rC1gDx-347" style="edgeStyle=orthogonalEdgeStyle;rounded=0;orthogonalLoop=1;jettySize=auto;html=1;entryX=0.96;entryY=0.291;entryDx=0;entryDy=0;entryPerimeter=0;" parent="1" source="_1PXEeMUK1e578rC1gDx-339" target="_1PXEeMUK1e578rC1gDx-166" edge="1">
          <mxGeometry relative="1" as="geometry">
            <Array as="points">
              <mxPoint x="1060" y="540" />
              <mxPoint x="1060" y="584" />
            </Array>
          </mxGeometry>
        </mxCell>
        <mxCell id="_1PXEeMUK1e578rC1gDx-348" value="" style="image;aspect=fixed;html=1;points=[];align=center;fontSize=12;image=img/lib/azure2/iot/Event_Hubs.svg;" parent="1" vertex="1">
          <mxGeometry x="900" y="525" width="44.67" height="40" as="geometry" />
        </mxCell>
        <mxCell id="_1PXEeMUK1e578rC1gDx-349" style="edgeStyle=orthogonalEdgeStyle;rounded=0;orthogonalLoop=1;jettySize=auto;html=1;" parent="1" source="_1PXEeMUK1e578rC1gDx-348" target="_1PXEeMUK1e578rC1gDx-166" edge="1">
          <mxGeometry relative="1" as="geometry">
            <Array as="points">
              <mxPoint x="970" y="545" />
              <mxPoint x="970" y="591" />
            </Array>
          </mxGeometry>
        </mxCell>
        <mxCell id="_1PXEeMUK1e578rC1gDx-350" value="" style="image;aspect=fixed;html=1;points=[];align=center;fontSize=12;image=img/lib/azure2/iot/Event_Hubs.svg;" parent="1" vertex="1">
          <mxGeometry x="728.66" y="810" width="44.67" height="40" as="geometry" />
        </mxCell>
        <mxCell id="_1PXEeMUK1e578rC1gDx-351" value="EventHub Namespace" style="text;html=1;align=center;verticalAlign=middle;whiteSpace=wrap;rounded=0;" parent="1" vertex="1">
          <mxGeometry x="779" y="815" width="135" height="30" as="geometry" />
        </mxCell>
        <mxCell id="_1PXEeMUK1e578rC1gDx-354" style="edgeStyle=orthogonalEdgeStyle;rounded=0;orthogonalLoop=1;jettySize=auto;html=1;exitX=0.999;exitY=0.431;exitDx=0;exitDy=0;exitPerimeter=0;" parent="1" source="_1PXEeMUK1e578rC1gDx-352" target="_1PXEeMUK1e578rC1gDx-348" edge="1">
          <mxGeometry relative="1" as="geometry" />
        </mxCell>
        <mxCell id="_1PXEeMUK1e578rC1gDx-355" value="Platform Telemetry" style="edgeLabel;html=1;align=center;verticalAlign=middle;resizable=0;points=[];" parent="_1PXEeMUK1e578rC1gDx-354" vertex="1" connectable="0">
          <mxGeometry x="-0.0677" relative="1" as="geometry">
            <mxPoint as="offset" />
          </mxGeometry>
        </mxCell>
        <UserObject label="" id="_1PXEeMUK1e578rC1gDx-352">
          <mxCell style="rounded=0;whiteSpace=wrap;html=1;fillColor=#dae8fc;strokeColor=#6c8ebf;fillStyle=hatch;labelPosition=center;verticalLabelPosition=top;align=center;verticalAlign=bottom;" parent="1" vertex="1">
            <mxGeometry x="320" y="390" width="411.7" height="320" as="geometry" />
          </mxCell>
        </UserObject>
        <mxCell id="_1PXEeMUK1e578rC1gDx-353" value="Application Layer" style="text;html=1;align=center;verticalAlign=middle;whiteSpace=wrap;rounded=0;" parent="1" vertex="1">
          <mxGeometry x="439.77" y="401" width="120" height="30" as="geometry" />
        </mxCell>
        <mxCell id="_1PXEeMUK1e578rC1gDx-359" value="" style="rounded=1;whiteSpace=wrap;html=1;" parent="1" vertex="1">
          <mxGeometry x="340" y="460" width="375.7" height="240" as="geometry" />
        </mxCell>
        <mxCell id="_1PXEeMUK1e578rC1gDx-360" value="" style="image;aspect=fixed;html=1;points=[];align=center;fontSize=12;image=img/lib/azure2/compute/Kubernetes_Services.svg;" parent="1" vertex="1">
          <mxGeometry x="670.5400000000001" y="477.5" width="34" height="30" as="geometry" />
        </mxCell>
        <mxCell id="_1PXEeMUK1e578rC1gDx-361" value="" style="image;aspect=fixed;html=1;points=[];align=center;fontSize=12;image=img/lib/azure2/compute/Kubernetes_Services.svg;" parent="1" vertex="1">
          <mxGeometry x="531" y="755" width="39.67" height="35" as="geometry" />
        </mxCell>
        <mxCell id="_1PXEeMUK1e578rC1gDx-362" value="Azure Kubernetes Service" style="text;html=1;align=center;verticalAlign=middle;whiteSpace=wrap;rounded=0;" parent="1" vertex="1">
          <mxGeometry x="571" y="757.5" width="150" height="30" as="geometry" />
        </mxCell>
        <mxCell id="_1PXEeMUK1e578rC1gDx-364" value="" style="image;sketch=0;aspect=fixed;html=1;points=[];align=center;fontSize=12;image=img/lib/mscae/Application_Gateway.svg;" parent="1" vertex="1">
          <mxGeometry x="375" y="394" width="50" height="50" as="geometry" />
        </mxCell>
        <mxCell id="_1PXEeMUK1e578rC1gDx-367" value="" style="image;sketch=0;aspect=fixed;html=1;points=[];align=center;fontSize=12;image=img/lib/mscae/Application_Gateway.svg;" parent="1" vertex="1">
          <mxGeometry x="303" y="747.5" width="50" height="50" as="geometry" />
        </mxCell>
        <mxCell id="_1PXEeMUK1e578rC1gDx-368" value="Load Balancer" style="text;html=1;align=center;verticalAlign=middle;whiteSpace=wrap;rounded=0;" parent="1" vertex="1">
          <mxGeometry x="351" y="755" width="150" height="30" as="geometry" />
        </mxCell>
        <mxCell id="ZhGrUoOq-ffcbPuQ6ynx-1" value="" style="image;aspect=fixed;html=1;points=[];align=center;fontSize=12;image=img/lib/azure2/containers/Container_Registries.svg;" parent="1" vertex="1">
          <mxGeometry x="639.9999999999999" y="393.5" width="50.16" height="45" as="geometry" />
        </mxCell>
        <mxCell id="10hZgJ3zZzhYq6EzDxNF-1" style="edgeStyle=orthogonalEdgeStyle;rounded=0;orthogonalLoop=1;jettySize=auto;html=1;entryX=-0.006;entryY=0.828;entryDx=0;entryDy=0;entryPerimeter=0;exitX=0.997;exitY=0.592;exitDx=0;exitDy=0;exitPerimeter=0;" parent="1" source="O7vtmG6W2NkvcAI7Jcrb-3" target="_1PXEeMUK1e578rC1gDx-166" edge="1">
          <mxGeometry relative="1" as="geometry">
            <Array as="points">
              <mxPoint x="680" y="610" />
              <mxPoint x="680" y="610" />
            </Array>
          </mxGeometry>
        </mxCell>
        <mxCell id="10hZgJ3zZzhYq6EzDxNF-2" value="Application Telemetry" style="edgeLabel;html=1;align=center;verticalAlign=middle;resizable=0;points=[];" parent="10hZgJ3zZzhYq6EzDxNF-1" vertex="1" connectable="0">
          <mxGeometry x="-0.2807" y="1" relative="1" as="geometry">
            <mxPoint x="41" y="1" as="offset" />
          </mxGeometry>
        </mxCell>
        <mxCell id="O7vtmG6W2NkvcAI7Jcrb-8" style="edgeStyle=orthogonalEdgeStyle;rounded=0;orthogonalLoop=1;jettySize=auto;html=1;entryX=0.612;entryY=-0.022;entryDx=0;entryDy=0;entryPerimeter=0;" edge="1" parent="1" source="10hZgJ3zZzhYq6EzDxNF-60" target="O7vtmG6W2NkvcAI7Jcrb-4">
          <mxGeometry relative="1" as="geometry" />
        </mxCell>
        <UserObject label="" id="10hZgJ3zZzhYq6EzDxNF-60">
          <mxCell style="rounded=1;whiteSpace=wrap;html=1;fillColor=#dae8fc;strokeColor=#6c8ebf;fillStyle=hatch;labelPosition=center;verticalLabelPosition=top;align=center;verticalAlign=bottom;" parent="1" vertex="1">
            <mxGeometry x="370" y="485" width="280" height="75" as="geometry" />
          </mxCell>
        </UserObject>
        <mxCell id="_1PXEeMUK1e578rC1gDx-370" value="" style="aspect=fixed;sketch=0;html=1;dashed=0;whitespace=wrap;verticalLabelPosition=bottom;verticalAlign=top;fillColor=#2875E2;strokeColor=#ffffff;points=[[0.005,0.63,0],[0.1,0.2,0],[0.9,0.2,0],[0.5,0,0],[0.995,0.63,0],[0.72,0.99,0],[0.5,1,0],[0.28,0.99,0]];shape=mxgraph.kubernetes.icon2;prIcon=api" parent="1" vertex="1">
          <mxGeometry x="428" y="502" width="20.83" height="20" as="geometry" />
        </mxCell>
        <mxCell id="_1PXEeMUK1e578rC1gDx-371" value="" style="aspect=fixed;sketch=0;html=1;dashed=0;whitespace=wrap;verticalLabelPosition=bottom;verticalAlign=top;fillColor=#2875E2;strokeColor=#ffffff;points=[[0.005,0.63,0],[0.1,0.2,0],[0.9,0.2,0],[0.5,0,0],[0.995,0.63,0],[0.72,0.99,0],[0.5,1,0],[0.28,0.99,0]];shape=mxgraph.kubernetes.icon2;prIcon=api" parent="1" vertex="1">
          <mxGeometry x="423" y="505" width="20.83" height="20" as="geometry" />
        </mxCell>
        <mxCell id="_1PXEeMUK1e578rC1gDx-372" value="" style="aspect=fixed;sketch=0;html=1;dashed=0;whitespace=wrap;verticalLabelPosition=bottom;verticalAlign=top;fillColor=#2875E2;strokeColor=#ffffff;points=[[0.005,0.63,0],[0.1,0.2,0],[0.9,0.2,0],[0.5,0,0],[0.995,0.63,0],[0.72,0.99,0],[0.5,1,0],[0.28,0.99,0]];shape=mxgraph.kubernetes.icon2;prIcon=api" parent="1" vertex="1">
          <mxGeometry x="417" y="509" width="20.83" height="20" as="geometry" />
        </mxCell>
        <mxCell id="_1PXEeMUK1e578rC1gDx-373" value="" style="rounded=0;whiteSpace=wrap;html=1;align=center;verticalAlign=middle;fontFamily=Helvetica;fontSize=12;fontColor=default;fillColor=none;gradientColor=none;" parent="1" vertex="1">
          <mxGeometry x="400" y="496" width="70" height="54" as="geometry" />
        </mxCell>
        <mxCell id="_1PXEeMUK1e578rC1gDx-374" value="&lt;font style=&quot;font-size: 11px;&quot;&gt;White Agent&lt;/font&gt;" style="text;html=1;align=center;verticalAlign=middle;whiteSpace=wrap;rounded=0;fontFamily=Helvetica;fontSize=12;fontColor=default;" parent="1" vertex="1">
          <mxGeometry x="397.5" y="529.5" width="75" height="21" as="geometry" />
        </mxCell>
        <mxCell id="10hZgJ3zZzhYq6EzDxNF-19" value="" style="aspect=fixed;sketch=0;html=1;dashed=0;whitespace=wrap;verticalLabelPosition=bottom;verticalAlign=top;fillColor=#2875E2;strokeColor=#ffffff;points=[[0.005,0.63,0],[0.1,0.2,0],[0.9,0.2,0],[0.5,0,0],[0.995,0.63,0],[0.72,0.99,0],[0.5,1,0],[0.28,0.99,0]];shape=mxgraph.kubernetes.icon2;prIcon=api" parent="1" vertex="1">
          <mxGeometry x="560.94" y="500.25" width="20.83" height="20" as="geometry" />
        </mxCell>
        <mxCell id="10hZgJ3zZzhYq6EzDxNF-20" value="" style="aspect=fixed;sketch=0;html=1;dashed=0;whitespace=wrap;verticalLabelPosition=bottom;verticalAlign=top;fillColor=#2875E2;strokeColor=#ffffff;points=[[0.005,0.63,0],[0.1,0.2,0],[0.9,0.2,0],[0.5,0,0],[0.995,0.63,0],[0.72,0.99,0],[0.5,1,0],[0.28,0.99,0]];shape=mxgraph.kubernetes.icon2;prIcon=api" parent="1" vertex="1">
          <mxGeometry x="555.94" y="503.25" width="20.83" height="20" as="geometry" />
        </mxCell>
        <mxCell id="10hZgJ3zZzhYq6EzDxNF-21" value="" style="aspect=fixed;sketch=0;html=1;dashed=0;whitespace=wrap;verticalLabelPosition=bottom;verticalAlign=top;fillColor=#2875E2;strokeColor=#ffffff;points=[[0.005,0.63,0],[0.1,0.2,0],[0.9,0.2,0],[0.5,0,0],[0.995,0.63,0],[0.72,0.99,0],[0.5,1,0],[0.28,0.99,0]];shape=mxgraph.kubernetes.icon2;prIcon=api" parent="1" vertex="1">
          <mxGeometry x="549.94" y="507.25" width="20.83" height="20" as="geometry" />
        </mxCell>
        <mxCell id="10hZgJ3zZzhYq6EzDxNF-22" value="" style="rounded=0;whiteSpace=wrap;html=1;align=center;verticalAlign=middle;fontFamily=Helvetica;fontSize=12;fontColor=default;fillColor=none;gradientColor=none;" parent="1" vertex="1">
          <mxGeometry x="531" y="496" width="70" height="54.5" as="geometry" />
        </mxCell>
        <mxCell id="10hZgJ3zZzhYq6EzDxNF-23" value="&lt;font style=&quot;font-size: 11px;&quot;&gt;Black Agent&lt;/font&gt;" style="text;html=1;align=center;verticalAlign=middle;whiteSpace=wrap;rounded=0;fontFamily=Helvetica;fontSize=12;fontColor=default;" parent="1" vertex="1">
          <mxGeometry x="531" y="525" width="70.35" height="30" as="geometry" />
        </mxCell>
        <mxCell id="10hZgJ3zZzhYq6EzDxNF-63" value="" style="aspect=fixed;sketch=0;html=1;dashed=0;whitespace=wrap;verticalLabelPosition=bottom;verticalAlign=top;fillColor=#2875E2;strokeColor=#ffffff;points=[[0.005,0.63,0],[0.1,0.2,0],[0.9,0.2,0],[0.5,0,0],[0.995,0.63,0],[0.72,0.99,0],[0.5,1,0],[0.28,0.99,0]];shape=mxgraph.kubernetes.icon2;prIcon=api" parent="1" vertex="1">
          <mxGeometry x="304.83" y="815" width="46.87" height="45" as="geometry" />
        </mxCell>
        <mxCell id="10hZgJ3zZzhYq6EzDxNF-64" value="Kubernetes Deployment" style="text;html=1;align=center;verticalAlign=middle;whiteSpace=wrap;rounded=0;" parent="1" vertex="1">
          <mxGeometry x="356" y="820" width="150" height="30" as="geometry" />
        </mxCell>
        <mxCell id="10hZgJ3zZzhYq6EzDxNF-65" value="" style="image;aspect=fixed;html=1;points=[];align=center;fontSize=12;image=img/lib/azure2/containers/Container_Registries.svg;" parent="1" vertex="1">
          <mxGeometry x="525.7599999999999" y="810" width="50.16" height="45" as="geometry" />
        </mxCell>
        <mxCell id="10hZgJ3zZzhYq6EzDxNF-66" value="Container Registry" style="text;html=1;align=center;verticalAlign=middle;whiteSpace=wrap;rounded=0;" parent="1" vertex="1">
          <mxGeometry x="575.92" y="820" width="150" height="30" as="geometry" />
        </mxCell>
        <mxCell id="OzjPR74HiSUu67SSuuBf-1" style="edgeStyle=orthogonalEdgeStyle;rounded=0;orthogonalLoop=1;jettySize=auto;html=1;entryX=0.864;entryY=0.002;entryDx=0;entryDy=0;entryPerimeter=0;" parent="1" source="ZhGrUoOq-ffcbPuQ6ynx-1" target="_1PXEeMUK1e578rC1gDx-359" edge="1">
          <mxGeometry relative="1" as="geometry" />
        </mxCell>
        <mxCell id="O7vtmG6W2NkvcAI7Jcrb-7" style="edgeStyle=orthogonalEdgeStyle;rounded=0;orthogonalLoop=1;jettySize=auto;html=1;entryX=0.496;entryY=0.995;entryDx=0;entryDy=0;entryPerimeter=0;" edge="1" parent="1" source="OzjPR74HiSUu67SSuuBf-2" target="O7vtmG6W2NkvcAI7Jcrb-3">
          <mxGeometry relative="1" as="geometry" />
        </mxCell>
        <UserObject label="" id="OzjPR74HiSUu67SSuuBf-2">
          <mxCell style="rounded=1;whiteSpace=wrap;html=1;fillColor=#dae8fc;strokeColor=#6c8ebf;fillStyle=hatch;labelPosition=center;verticalLabelPosition=top;align=center;verticalAlign=bottom;" parent="1" vertex="1">
            <mxGeometry x="375" y="650" width="269.41" height="42.75" as="geometry" />
          </mxCell>
        </UserObject>
        <mxCell id="OzjPR74HiSUu67SSuuBf-9" value="" style="shape=image;verticalLabelPosition=bottom;labelBackgroundColor=default;verticalAlign=top;aspect=fixed;imageAspect=0;image=https://symbols-electrical.getvecta.com/stencil_80/70_fluentbit.0a386bec60.png;clipPath=inset(33.33% 0.33% 33.67% 0%);" parent="1" vertex="1">
          <mxGeometry x="421.23" y="648.23" width="139.77" height="46.28" as="geometry" />
        </mxCell>
        <mxCell id="b5N7aF0onNaH-U6v3WgW-4" value="" style="shape=image;verticalLabelPosition=bottom;labelBackgroundColor=default;verticalAlign=top;aspect=fixed;imageAspect=0;image=data:image/png,iVBORw0KGgoAAAANSUhEUgAAAdoAAAD4CAYAAABL9ycmAAAAAXNSR0IArs4c6QAAIABJREFUeF7svVmQXcd5Jvjl2e9SK7YCiB0EQYJYKe7gvsgUKVFu94xnep7atux2y9Htlid6+qEjZuahJ/qpYyba4e5oi5poz4MdtjZqoUiZuyiJpCiuIEGQxEYSa+1Vdz1b5sT/5zl1bxUKQC0gUZeVR1G6RNU99+b5T5788t++T8Ac87LAb38yufLMh42rwpqzI/C6b6tWo3sBax2AEgAfgD2vDzRvNhYwFuhQCwhAWQCs7JUuQwBQ+npEIoPAierNiSiVUdN2khFhy7fKJefpzesHntn1P+OkECJ7c4eawAx7ThagWWGOOVhAvau8QYW+waPYdvbTibvGR9ObZeLskNIeAKxuAM4cPsa8xVjAWOALY4E2oKVrYtDNDiEBSPT0emEYxa5UYdNxVQWIRhwHH/av7PvH1eusZ7Y+iONCiOQLYxJzIbNawADtJSbG0GHVNT5Y3fDxkdGdY8PN25sVa7+MnS0qcQYEPN9xC3pHaw5jAWOBZWiBHGzp0meuAxIQElFcg1IJPJ983QRJWm+6jnO20CPfWbMh+NuVG+y3eq9ed3JgQNSWoQGXxSUboL3IbZ48qVYcOTix7+Tx8a+fOTF+oFkTmwKn2FcMuqyCV4DreKjWIyhhgHZZPC3mIo0FLmiBdsDNQVfCsoE4bkJYKTzfhrAShGEDqQwBJ6w05ND7QUm+sO26jU/svXH7wd5NYswY+YtnAQO0F7inp99VG4++d/rA0Q8n/nlS825FUuwu+b0o+AEgE8RxA2maIlW2Adov3nNhrshYYI4WoBBxuzebLakURhYSrusgSSIIS8F1LdiOQJI0kaQxUoRwC4kcq5074/rqla3Xrvv/rtu/5eW128XQHL/cvK1DLGCAdpYbNfyBuuqt10488NHBc39opStuQ1JyfbsbBa8ECwphVEMS16GEhBcUDdB2yGQ3wzQWuLwW0KHhqSMvjOKCKH0kSQwpdb6WQNa2dbGUQooUMdxAwfGByfrIWCMe/s2GrQN/c+CB659fvUWcvbxjNZ92JS1ggHaG9QffVQPvvfPJAx9/NP6ntVFx21Wrd1hxw0WaCFgKkEpCpiEcV8H1HTTCGMpY8UrOYfPdxgJXyAIEtO11THn1cSuVJIQFy8oXCAmlFHu3QggoS2FkbAR9K8pQdoShsU8npV19fceudd++af+1z6/eZcD2Ct3Yy/61BiLaTKpOq+Kb70zc/vYrJ/63qOLdu6Z/qzM5FgKJA8ty4Hkee7RJGkGpFMIGpFAGaC/7tDQfaCzQCRbIgZY6dPKldDrYSqngOA4Da5omSFPybjXQSgF4vo9aowrHSxGUBZrJ6EQixn957e41f3Xgxk0vinWi3gmWMGO8uAUM0LbZ553nJ69977WT/z6td3+9MW51lYN+QEpwp5tIOfyjuLKQzGaBHxlLPzjmMBYwFlhuFrgA0JIZplp98vUis01bCxABrbAcSKRwXIFUNNEIhwG3cmrDtq6/u2bnmr/ZdmP5PdNr2/nzygBtPv/PqtJLL51+4MR74X+w4hW76hMKveUeyLQBiJh/FIeJHEjlAsrVuVn+nQHazn8UzBUYC8zXAnmOdmZB1Eygpc+drSoZsD0XURzrcLKdIkoqiDEuu1fI11avd/6f/Q9e87MVK8TkfEdm3r+0LGCANrsfpw7WN7zwzJF/Uz/X/S8L1rpCYyJGb1cRKQGtRWDbhLISSLhQyodUBUA5sERkgHZpzWkzGmOBz9ECbcVQs35rnq+d0W+bVSXbno1mswmlBNd8CCERpiMQzsSgU558/MEv7/+Pa/cXTnyOF2S+6jOwgAHazKivPndy7yvPfvwfisnGr5acq0BA21XyICUBbR3KbkAKKmZwIeFDZUArEHHe1hzGAsYCy9EC+RLavga0g28b0E6FlPPfSUgrRhzHHCErFEpwHBtRWkGKkVT6Y8/dcGDT/77nnv5XTfi4s+eWAVryR5Xyfv53H9z37lvn/mO/v31fIFYhrgCeTTtM8mZDKCtEaklICh0LF1L5sJQFSyUGaDv7GTCjNxZYoAXaKRjbW30IdGd6um252jxPK1Kkos7tPwJFOHYBFq8tIZQ9CcufOHjVNvf/uPuOTU+JDbQQmaNTLWCAFsDJk2rFL3765v8y+HH4b/v8LRtEVIadeFAx4DiSc7O086S+2VRYSIUDBRtCWXCkAdpOnfxm3MYCi7OAAKSnPyLjNm7990ywncWztQhQaSMvgbQMJQOo2IKUMeA2YBUmT3avav6nex657r/3bRHjixurOftKWsAALYBDbzQ2vfjMa/9O1Qq/X7LWrIiqDrq8lWjWY/jUTQ7JYWP2aOnZEkAqNLOpIyVsZULHV3ISm+82FrgiFlA2oAhoc8WerAqZQTcD2pzQYloVMiMzR8qEV2PyChF3QyYBVBow8KZWDVKMjXvdo3/zwFdu+L/W3mDYoq7IPb5MX2qAFsDLL1aue+X5N/7Pklj5NT/tKdTGE6zqWYNGNYLtkPqd4F7Z1KKe2YRBVx8SjiTANUB7meaj+Rhjgc6xAAMtiXbRlrutArkdaKddTTsnOgFtDMtpQsoEKi1AIIBrl1hoM0mbaKaDjdQ/+90H/8eb/90WQ17ROfNilpEaoAXw2+cnr/3Fz977T/3B+odF6MFRDpRMdI+bKiClSmNhQYkUQjQJdtmUlqGE6ujJbwZvLLBoC7RL402FkPNPnbkBn225nf4eytbSskJrjbSrkVMc+/GB+6/+1vZbiycXPVbzAVfMAgZoARBRxfNPfPCXvf6mB+zQgkWTXcYQto0EBLR+xmesgdZGDCFz+Vn9YJjDWMBYwFhgXhZQFgTleKmbgetANCmOZBIcILXrsVsYf+KOB3f966tvFp/O67PNm5eUBQxEAHjjF5Wdv/jx+3/Z52++zwDtkpqfZjDGAl9cC1waaBO3MP5TA7SdPwUM0AJ4+/nKruefOPyXff6mewzQdv6kNldgLNARFpgD0DqFiSfufPD6f2U82o64oxccpAFaAAd/Ud3zzI/f/8/9/qa7ZwJtrAITOu7sOW5GbyywNC0wB6B1i5MGaJfm3ZvXqAzQAnj3pereZ370/n/u8zfdZYB2XvPHvNlYwFhgoRaYI9De9TvX/+ttN4pPFvo15rwrbwEDtBnQPvujQ3/Z62++cybQRtI3Hu2Vn6dmBMYCXzwLzAFovVLlCQO0nX/rDdACePP56r4Xn6BiqE13GKDt/EltrsBYoCMsYIC2I27T5RikAVrK0b5S3fPc9w7/Vclae4fVFPBdD1Ck1ANIq2Q82ssx08xnGAsYC0y3wKWBNrbckSfv/eq+f2VCx509eQzQ5jnaHx/+q7JYe8AAbWdPaDN6Y4GOsYAB2o65VYsdqAHaqRztB/+lZA3cboB2sVPKnG8sYCwwJwtcGmgjyx15yni0c7Lmkn6TAVoC2l9V9z37ww/+ajagTUXRhI6X9BQ2gzMW6FALzAVovdEn7/vqPlN13KG3OB+2AVoDtB0+hc3wjQU61AKXBtpQENA+vM9QMHboLTZA23bjyKN97vH3/0tRrLttZujYcB13+Aw3wzcWWKoWmAPQ2v7Yz+59eN+fG2aopXoT5zYu49FmHq0B2rlNGPMuYwFjgctkgUsDbdPxx5+45+G93zJAe5lsfoU+xgBtHjp+/PB/LYmrbkXTRoHbe0JIJZAIH6nwoDJxZ0s0YCkJW9p8y0gE3qj3XKHZa77WWKCTLUBAy3q2gLIiFovX64nUsvF2LbSC8R9/5aE9f7H+VmFk8jr4XhugJcKKX1X3vfj9w/+1y9l0K5ouXGFBqhCWI5AoDylp0ZK4s0hgIYYtAVu6fNtTlrjq4Blghm4sYCxwxSwgcj1bkTDQKlJ9F5J7+JVdjRGM//TeB3b/+dV3G5m8K3aTLsMXG4hgoB3b99wPjv+3XnvTzQy0IMH3OizHQgKHgVYfEkJkQJv6GmgtAlqtH2kOYwFjAWOB+VhAA61kcM1cW/0iyKOtxpY38pM7H93z59uNRzsfsy659xqgNUC75CalGZCxwHKxwCWAlqqOf3LXo7u/ZYC2s2eEAVoSfn9pbO8Lj5/4bz32xluMR9vZE9qM3ligkyxwKaC1/NEf3/m13X9hgLaT7ur5YzVAy3q0o3ue/tHHf22AtrMnsxm9sUCnWWAuQHvgkd3f2nG7ONVp12bG27KAAVoA77xY3f30jz/86147K4YyOVrzjBgLGAt8Dha4FNCKYPRHdzy8+y8M0H4ON+Mz/AoDtADe/lVl19M/+Oiv++xNt5nQ8Wc428xHGwsYC0yzwKWAFv7I43c+sud/NUDb2RPHAC2At35Zuf7ZH35EHu3tBmg7e0Kb0RsLdJIFDNB20t1a+FgN0FIx1C9Gdj79/aOP9Tmbb7MiH77lIZU1CFsgVrZp71n4/DJnGgsYC1zEApcCWuUMP/6VR/f/xcY7xGljyM61gAFaAK+/OHzdMz84RkB7uwHazp3MZuTGAp1mgUsAbVM5wz8yQNtpd/X88RqgBfDb54evffZxBtoDBmg7f1KbKzAW6BQLXApopTvy44e/tu9bxqPtlDs6+zgN0Bqg7ewZbEZvLNDBFrhU6Fi6Iz8yQNvBNzgbugFaAK89N7TjuR+RR7vlDuPRdv6kNldgLNApFjBA2yl3anHjNEBrgHZxM8icbSxgLLBgC1wKaJUz/OOHf3f/tzYYwooF23gpnGiAltp7Xhq65uffPf5Yn7v5TuPRLoVpacZgLLA8LHApoIU7/JOvfH3/vzFA29nzwQAte7STO154/PBf9zhb73IiH67tQsoqwO09AhIOFCv4SAhEsBVgpx7f+ZZ6T6bCQXJ6LHJlXo0dzDwwz8HF1gFAKMAi8VmRsBYtMtk8ZUlIqx5Jd/jJR76+/88M0Bqg7WwLEAXj85PX/vx7Hz7W4249YDc9uI4DqAqkLZEokslztE4kPQ8sk0fC71qwObW0UDM/IObV2MHMA/MczHEdIFy1WPydZPISXke08Lveoiq7HiEY+/n9j+79phEV6GyYMR4tEVY8U9n5/A8//HaPs+12EXrwbQsSFSg7QczC7wS8Lj8ItkohkEwH2s6eA2b0xgLGAlfAArT42tKGUArKiqZ0rWnzLoWCtBuRCMafeeDLe/7UCL9fgRt0Gb/SAK0B2ss4ncxHGQsYC8zVAnMA2lgE408boJ2rRZfu+wzQUjHUcyPXP/v9E39tPNqlO1HNyIwFvmgWmAvQwh995sHf2fcvjEfb2XffAG0GtM98/9i3e53tt5nQcWdPaDN6Y4FOscBcgFYEY88+8OW9f2KAtlPu6uzjNECbe7Q/OP5Yj331rQZoO3tCm9EbC3SKBeYKtA8+tPdfbLtTfNIp12XGeb4FDNCSHu3zo7vIozVAax4RYwFjgc/LAnMCWn/suQe/svdPDNB+Xnfls/keA7QGaD+bmWU+1VjAWOCiFpgD0CYiGHvuwYf2/rEB2s6eTAZoM6B9+rtHH+txrr6FQseeRSQVpr2ns6e2Gb2xwNK2wKWBtpkIf/SFe762/xs7D4iPl/bVmNFdzAIGaImw4sXR3f/490e/bYDWPCzGAsYCn5cFLg20jdTyxl6456H937juXnHi8xqX+Z7LbwEDtDnQ/sNRKoa62Xi0l3+SmU80FjAWmL1A5hKEFanwx1687yv7v3Ht3eK4sWHnWsAALYCDz4zu+fkPj1IxlAHazp3LZuTGAh1lgbl4tMIfe+mBR/b/0TV3imMddXFmsNMsYIA2B9ofcI72JuPRmifEWMBY4POwwByAVhLQPvi1/X+0/YA4+nmMyXzHZ2MBA7REwfjc2N7nvneEcrQGaD+beWY+1VjAWGCGBeYCtJY/9su7Ht3/R9ffLo4YA3auBQzQGqDt3NlrRm4s0MEWmAvQCn/sV/d8Zf8f7bxbfNTBl7rsh26AFsC7z43tfYo92q03iTBotfdYEjFymTxX69FOk8mztB4tyeeRrNVyfFUWy3qRruaCXrHM7dfh8+ZyraDL8fkhaU1Sq9U61wm/ku61FPQKpHZdIhj/9f2P7vvjHbeLw5fL1uZzPn8LGKDNgPZJ0qN1Nt+IpgdP2EhVHcpSUI6f6dFqNGHhd0k6kh6EElAkZ7WcZd6VYA1NEq9e0Cs63X5aQ3TB169IkrFz5dFZi3leh4aW/KANGh0Xk0fvZPtc6roilcJSEjYS3qyKXPhdSCROHaow9tJdX9v/p7vuEofmZWbz5iVlAQO0AN58fmzfc9/98NtdzuYbRcOFazltQFtAKiwQxELkWrRtQEu3M18tltSt/ZwGo+xFfFG2SHe0/eYLNDPNNR14FmHMz/1UvnLyvub1zdOv157fyfP6pqX+ZrJfiJg9WU9KWLyBz3xcASRuFbIw9tLdX7/+X15/h//eUr8eM74LW8AA7SWAVtqBAdqLPUHLHmiX7/KSbzEozDn3Y/rGxM6AZe7nf3HeORegVYWJX977ezu/ed3t/sEvzpUvvyuZ1yPyRTXPxTxaA7SXuOsGaL+oj8Ulr8sA7SVNdNE3zBVo73t0559de5f/zuK+zZx9JS1ggPYSHm1qUY7WhI4vOEkN0F7J5/eKfrcGWqpTmG0YF4oJG482txZZIhK6COpCoWNVHP/VfV+7/psGaK/oVF/0lxugNUC7uEnEq+xC84xyeee3F2f5K362AdrF3YK5eLQoTfzq/kd3/dmOO723F/dt5uwraQEDtFnV8c+/9+FjsxVDJcIzHu3FZuj8EnTnf1JHF0JdyUf3yn/3FNC2b7TOq0Ke6dkaj3Y+Hi2KE7++/+u7vmmA9srP98WMwACtAdrFzB/dPLuYwwDtYqx3Rc81QLs4888ldGyAdnE2XipnL3KVXCqXsbhxvPHU2N5nfvD+Y2Vn041W0+P2HokGYAPGo724beM4hmVZ/GPbNoTQU0opNfWzuLuztM+m682vNR8p/Tu3Adnki3oQUAiqXxD6frcf2TQ47/eUj2w/lnvVcWyll2jvGX35nt/b+81dB7y3vqjzaDlclwFaomA0QLvguZ4DSTuwSimnwMdxnAV/diecSBsNAlvaaOSbDBp3vvlIU1pIv5hHe9UxAW47N9pM4G1ZwABtbguyxFyA9t5H9/7Z9Xd7b34xZ9HyuCoDtJcA2hiuydFe5FnwPIdBlcA1/2n38C7t0S20kGppPKBKpezJE7DS9SdJwq+5h39hwMnH37nXT0DBGwlLQQiKZpBXa4Fsks+B8++/IaxoB9qEaOYuUnWcFsZeue/RPd80QLs0nveFjsIALYDXnxnd8+w/HP7ObKFjA7QXn1q0qGoO6NZCy5ytnLu9FHke+34LnbtL4jwpE5DXngMtebgEtAQw9Hv674sfnXv9HDq2iEIzBfH2zjzysPr03xugNUC7JB7dz3UQBmhbQEs52ptm5mgN0F5sPkrEcQjLBmzL5VcBG1IlkLT2IoUlHKbp44V45it/NC28nQs2YdiYAlW6GvLkCGByoA3D8IsLtELCcYirOUWa6pw8Hfn102sSz9xoGKA1QPu5YtyS+DIDtADeeXp091P/cPixsrvp5plAGylS7zGEFbPPVh32Iq+GFtXcgyEvjkKK9Oq6pHp0gYO9oM4GWgIaOtrz0u356i9y6JxUZtI0ZqBtpQt0rjr/oQ2Y8Wgv/PSkDm1OLsZ1PPqyydEuCaxc1CAM0OZA+93D3y47m24xQDuf+SRh2RQm1qDa7tG0A++FP9ECFBVLda5HWyj47NVTbpb9c0tfC4WQ6Xe+71/EoJ29ySCgjWOqzldTeWqKXOiNlvZwpzZaU6Fl49G2e7RzAVpTdTyfNWlpvtcALYC3nhu5/qm//+A73fbmW0RIMnkuJGrc3hOR3ipr0mqZPFtFLNZjSy+jn+ts+ZFcgYVk3vLWC54UU94m9W5kiyPrZKYA08alkFYCiQSxjKHSmPwaOAJwAx8Fz4flOqhXqpmMHIUYtf4mv/L32RDSAZjGMf+dBp/29tr2Vt1WIFJPXbo7Cz+0R66PDPTOY7rK2avoVdPlSR4c/VuiGTUQJhGDShB4KHcV+drp3wS0jUZDfzbbUGgZtGm2zTYa2d95JPzf2bjy75q6yOxe5EZZZB/ybKe37E3XmtmI733runm2iBSOJ+D4FjzPY1Al6UjaZERhwq9xnELQ/eVrarvXMr/PefsTzYrs89vuidY5JptlS1U2YJ39l3MQzsqBPTt/hn4yKXLRNS5E5vDiG0Qtn6iP6eHzdt1maZHNJFwqoFP0M1O9Z/Tle76695u77jXtPQt/zq/8mQZoqer4mZGdT/3Dkce67M23WQ0XjmVDqUneqStmhqK+Wr0gWIjp17B4odDP/2I5G67UNODHn1YYoYWnLdCiqDUxLV4cPURNAd8rIhUpwqgK2HUUuixIu4ZaNIFqXEX/mn5sXL8OvSu6EXguJWwRuDYcH0gjvcbKCJioxBgZHMXps4MYHRpFoxpjTf9V8FCAlILf61kFeE4BaZygXm8gCPzMxpIBmmxNo80XOZsWpwWDLQFnU7fmwIOAD0vQjwulbA6LClshlQ1EsgYl6vALgONLRFEDE/VxXLdvJ4pdRZTKBVAnk+fbCDyqxlVoNpto1CLEkUR9MsLI8CTGhmtoNhI4dgG+X4KSDpqNFCqxEPhd8EgtKk7pA2CTbtrUxkYv1rTpY4hROiRrkWD4AsGWTmvUqyiVSnBsD2EY8ebAdh02b5Q2YXsKsaojlnVI0YRbsNDf343VA6vR3V9EV18Blge+ZsoS0GfGERCHADn5tYkQg2fHcPrjYdSqKVyrBN/thkpFNrd60aiHgGog8C04doSYPkApOLYLSFtfs7Kz50xvdEgHV0DCkfyYth2ZnVhJnkTU841NDvb0ebSRo7mUILWbUJbWgm0HwLn8mzeH0ubZyEPItKm5FoFF3PVmLN+Y6XVCi7rzLaN7qAIIacNVsdalpXUlkx5MnBqa/vCrv/M/3fyNnQfEu1dqnTDfu3gLGKDNgPbJ7x75f7vF1ltEk/RoiYSAgDaFEiSTRw+6yztUmx4IWvK/IECbLwbTgZbwlxYBD65dxujoKBKVoKvPhbKrqKfD6F8ZYP3Va7By/QoUujx0dQGuR7lKQNJGxAKIqyEK9e+oCySJgbAJVCZDTExU0JhMcPzQp2hWUzi2j+7iCsimQHWyiaLfhYGBAYyMjEzb0FBkQQOu9nptRRuEhXq1CSwrmgLaJLaQJgS6DmzbheUINJqTsLwY0qojkZNwiwmuWr8SG7cMoH9NEfABh8CXpgj5bBbgEAZKCh8DrqVfm1VgckxhZKiKocFxjA5OYrIaQ6Y2ysUV8O0yg1NUp2uikjIBJWM41P4hEr1o84KuPcPLBbRkTR3uVZxXp5yy7QoGnyhtoCmrsP0YpT4Xq9f2Yu2GlehbGcD1QRDP1y64GC675wpcCEcfS6/NioLrCMgmcOaUxPGPTuPc6TGksQPP7YGQ3bAtj++DTBpIkio/X7TZdSyXNyKUXlCYAbQZODrSAnfIMNC1IhS5vWS2MdEedQ7atOzRhiWBskK9mVnQYTFITh25Ni+jaJJFAzLNXgLhDGin3q9oQ1dg0G8BbUvjNwPa1776+zf/wfY7hNGjXdA9WhonGaBtAe13usXWW5cb0E6tUYqW8IR35xTKykOptOTTohunDaRWE119Ams39WPd+j4UehwU+wDahzAI0CIrFciJsCyqvNULMAENga1ja6+HFmCKqDZrwKmjk/j46GkMnZ2AIwpwVRFxQ8EWPsqFniz3qRViOLCYRRAIbOlYnEcrYVE6gBitYCNJFMJI98FSf7BbcDBRHYITpAjKQN8KD+s29mH9hl6Ue7WJQhqUrTcXcUyeUQzHtWALnassBj5vMOiayfOi14lx4NzpOoaHJnDsyBnI1IWtAvb2kPpQIY3GhufaUBQKELThawdagqIswkL3aoEeLdkv8AI0GxGSNILlELuXQipiJKqOBA24gcJVG1dgy7VXYeWAgE2bKUoPuOTZA02dmuZ7Q/efrpGyLDn8uHS/CMtD8p6B8WEC3ArOnh7C+GiEesVBsdDL15pGIdIk4k2GjipRqJ2AljZWYmo71fJoKbJEodccZNtD2+1pgTz8nIev9bJHAMexkYXu07KUwHkh4uxekYfaAuHsS9rCX1RkmVD/NdlzyqPV15KS8LtTQ+QN/earv3/LHxqgXRqAudBRGKBdxkBL6JXI3DvUYS6OJFNfJOcgE4RJDaWegBdc20+w8epVuG53N0rdwOgkIDwgliFUknKO1rVszs3Sq7IoHJwiJnSh1K5twye0JWCKdYjRE8DECHDiw3M4fuQMGhWFktsLkXqoTUYol7s575evT+1gq4F2watkttgKBlkGW0shTkOECRX4SDgBAe8kelcVsG5THzZsWYmBtYBXBCo1hZGxYfT2reCFkvppKdRM4Xf2CnkfYDGIpTHFJR0EfgnFAn2bBp16DThxfBLvv3eCNxp95QGUvD7UJmI+p6fcA5nEHCLN86O5HVqpjEVcP3nOts+bGUFenUP3qoFmUoHtRvBKCjt3bcGaDX0YWK+BdaIqUalPwPUsFIolJNLRQEq5axmxN2rTJgu6Er3gFzAxVkVYS1Au9GJFj77vx48nOHHsHE58NIIkpuiJjYJfhO8EIJSh+aENS2HiDMw5bdD6b855Z7USDPVZDl17qBRSp3e326eVp+W7oxw4tMkhr3kBB386jWmGpzqVFc6+WgO5/i3N5fwgMA0dhdSSswOtW0XkDv/mq//DLX+w/S5xaAFDNKcsEQsYoF32QEuLXF79qpcxS8SACCEtWnRH4RZTXLWlH9fs3ISV6xx+e6oIeAVsWpxTCvuR1wXY5N5aevVJyY0lzmP+TAFJ/03VyfxvxSHasAas6A2QNoBDB8fxwbufoD6uEFg9cFCASmgR1EVEOg+mz1+MFzf17FEeOnVAnBvUheIVaHmuoxFNcF5SeBFWrSlh0/Z56dOhAAAgAElEQVS12Hx1H3u1zTBmMPIDwUVf1CdKI9JV1nRNdMkphMxbXGykseT30Z7AEp62Eb1PCs5tHjncxJHDJ1EZi5A2AsQNARV78GwfLrmQfOh8bZ7na60fi6jYVgKp8tiTtewEkaygEY/D8SOsWVfCqqt6sO+GNWhS6B8xLFfCD+j+Ur6+wblmz+/LQERvzDjPT/n+zNOm8jeaGyJ1OT3gUVxdAdRe3KwDhw/SBmsQI4MVlIIV6CmtQhpZSEPJ187V3AyY+toZ1DIPlzYvEm4WTtcbRb1JpHN00R4BfxYLaZks8zhtGlNCoduFAS2NJyXvkyI4GajmwQXtKWdFfVzzMN2LpmsgVqjQofNTA7RLBBA/q2EYoCXCiqeHr3vqe0cpdHzbcgod08pFC+30FhtasGIouwZpVxHKQVyzex2u37sZPauoQEahHjc055NNwEJVtXqVscibFQ6zRHGuVhKhgWZNopwteX0UoqSKXB1adhDWJTyrhMB1OD/56dEmDr/zKUbONuCkRQROFwTni3WYT/s0uoCLw5XMsbvAQ7mw0gISqox1Izh+gtiqIJRjsPwQxR6Bmw7sQ99KD+UeIJJAtTEBqZpwfJsrbcljp+skoGVeZ6kQRbHOd1L41/OmOJCZJUpq75xCy7blQyYuAhcYPAW88doRnDo2Cs/qRcHqRdKkECq1B+VVyBIqI6E/r1p6ASYgr1gpF7bnIFVVNOIhWF4Dazf3YsfOdRjY6MNygDiNEasmLEfB8+l+CiRJhChKIUQ332+6v8KigH4CBapCp8K6mDdYfKQ2ZEy2out2EXhFJruoTgDvvXMWHx06hWbVgYM+IPbhwkfgFbh1SueodZQlL26inC3lXxUBLefr8+rorCpe0Pfn4N8C21aYmcLODoT0dVX0lI1zW1/6lcL5CTFjifOBlmvMOfSt5ydXEzPw5kuuxeHh2JaQBLRSb1I435yHjjOP9pF/dss/v+Y28f4CbrE5ZYlYwADtMgfavOUiLxrRxVEhpDMJ6Yxj3eYibrh9K67aAgxNhBivjKO7tweOG6AyMQHXTbmXlgDWshz2UpmOkQOkFlfe5q0wgkFCh/hyPtyS34VKpQ6VeOgu9BDG49MjCgffOI5Pj45iZfdaWFJXZuZAq31bKjbRxUELBlsCmbSLQVHZdUh3EiFG4QQabDZcvQpbd/Rz0U8iKW8Zw/EFbzDqzRpqlUmsWTWANKI4JxVEeQy6BLTkrTq2jVqtlvEe08bCgkshakfoELvlYOjcJPq6V0PFwIkjkzj2/llMDEtYSQl2UoCMydvKPS4KIefeWqSXENooLbAPWft/HixXIZJjiDGOgQ0FXLdvMzZscmEVgMlKBV5gw3VtxCpGs0kFSwk8uhY3QCoDBhCby9XbvMmMmtN3XITNJs8DCzaHz32/wB5/nAoUPR9jIxLHPxzFkUNDGD8HuOhFwe5iZSCOS4toVqDlAkUC2xxop4qh9BzLvVku+Mp+suaZbPnVLWeMfbMxl12I0Sz7vbTyzV5bgCXzlrVnm7es5e1yOi+sD8o5c9kXA2sOtHmbHc3txADtEoHJxQ/DAG0OtN8/+lg3tt6+rDxaftyzKtasfIVygRQyJqBN3XH87u/fAPgJ4IdIRZPzsEpQxWiZw4gyrnHVLxWupKlEHCku+BHs2QruraR2Dcpf2o7i3B4BcxQ1EUUh0zWWSz2wlY+4aSMQRY78HTuU4uAbJxDXbNhpISt6Ia+WlkYKT+pFjlm7FurVZkDLzEZ2FYk1ioY6i9JKhb03X4P9N6/CycEabE/HBqMkZFpJLpQKPDhU8BRHiJuhLvbisKiFJCFRAYe9Wd91GJjIk0/Zw1NcpZsXnLlOAbWJCJ5dRsG1cfJYitdeOoTRMzF6SmuhIvK4KOqge0I00FJon4CWcr+5xzv/xYDgJ6Z4tpuyF+8WG7hm91rsu2kAfhk4NzyE/lW9aIZ1RFHEmym6JspByyRC2Izh+l2adpKFBDLea0vXRlPOm3P1XCWn5wjNON3vpe9gHNXR37saE0PAb371KY4fmoBnrUDR7kdYb8JxiEN7NqCl0m4C4pkyhLo4TANdXjKX9dvOEKWnuZ5aCedIF3S0kXC0e8p54dqFPlNbh26fw9EaOjcvhmoBrUTi1hG5Q68+8s9u/QPj0S7oDi2ZkwzQAvjtz4ev5fYea8ttduRPtfdICqF+gdt7aBZS3+v45ARKXb2I04QriCM5CRHU8dDXr0fXKkpjptw3SyEu3bVKgKL7OG2ErSrljOVJF1tqL0xLx7X3g2YeWfY7At+oGerCKKuEcrACKgLOnABOH6/g6KGzqI3F6C6uRlehhOrkJDyHek5tTExMwPKLiwJaFXkQxG5lT8Ip1zBaP4Y9t1yNh//pNhz5pMqASp4LXXe71q4uHMt+shaZFumFJqdoHTrULbMcJhMk5GU9yuLCJwcBfKeIuAqcOhbiw4Nnce6TKsr+GggEUAlVResKZNuRsD0qYKL2Kc4GXnBBuZh6EI2jQfnmokBTjeDG267F1utKaCRVlPs9hElVh8MZ0PRrHvq0siI0TWihySPaiRm0F5kf5NlNJ+rQfaoEzHWu9i57KxhsX37uLD7+aAxdwSqUgl4069VWznVG6Jj7vbPq4fMMkIVoeVNAEftEt/DkkoYMwyKBdGOusj5fT1fn2Ov1+jS95VwOkT+HWvxoz0PtUbzZpB0mhZJpvgveaHBBIHF/E1tWLjBha+1mytdT/zR9zoWAVpUnfvPlr+/9xnV3+weXDGqYgczbAgZoc6D93keUo719eQEtFemEcH3tdVm+jZRCsnYN1+y5Cru+1ANBRaBOBGU3uMVE5/XIw9IeBQNtDjRTuS6LQ6d6YcsLlzJiBa4MzUkWtHdGXiKvUfAQ2D2wpIf6mG4FeefljzF4ugZflblqNW6E3KvquQLVahXCKywCaHUxlLASKH8SkTWEgU0+rr9pK3oHCpA2hadT9ppz9iryxnJQoeAfeab63y32p9mAjz4nr+RuVcNqOT3K89JHFOxuONLB6BmFw2+fwYkPRzlnacsyLOUxCUYqIwgrgnCoBxhIkzy/OPuzf3GgTRDbdTTScWzY2ocbbtuGoCuFcuvoXhFgeHwIBaoAI89L0v0mD0xklek6fE85Y82sNB1YWx1HLcYtzXrUxtTEnuokX1fBWYW4Arz/Zh0fvHsWYc1Bwe1m4hL28jJWqqliKG4C0u1d9Cf67Pxv+ju056z1gPUmiavBM0lD5hQTEWrxBCRFB7LQMXcwE3d39hrQRo5Y0OgWZWIZ9Erzm0TrPeVD5D31FuXqCVwpakGfr1CjHjZqTaJ6Bq5VyCuntC2SmPK4gCNTOLxx4y0A25Q8Wlkaf/X+f7LvT3bf5b8z79XdnLBkLGCAdpkDbb02gZWrV2B8YgROwUaoauha4eGBR65FsReIqNLTIvYcWhSpiUMzRmmgpcBzVnQytYC26PLI6WkBbV6s0t7rSKAbwSHeRlq2k5QLVBxRZopLGQJvvzKBY4cHUR9NUfR74Shb984KhZDcYJuYoxZYEJUVqxBpAQFt4ozg3q/sx5adBXx44hOs27IOjWak84DcAqJzbpyOpMU0A1nu8MyoG6fyfdkjPq31Y4rCMgelbGGWKVSUMitUySshqQFH3pvEB2+fQWXU4ZylgxKHXpM0RJLWASuBTXa7BFf0RYHWaiJ1a6hEg7jvyzdjx54CRutVBN0WvIKFoZFhlGgS0P2mDYnMrp8AjjdQMVfMauqKlvfa2nTwVmtqE9Le2qJ3YQTS4wxOruyFlTqcoz34+hA+/mgYtipwbzWxL+VHq2eVoTKLKmivUtd8awDTQWMBh5g1MlUl1guWKW8qiTY0TRN0lYjOisLeWeQlK4qiOgMCPM3ZrMGaq8kzOUh6JaANZIHZnFiTme6vos1oXiEtOd1AvV7EtkVAy/NckdqRRKwkHCp1Z4YrKp5Lpsg3KJydOHWo0vir9/3uvj/eYzzaJQOaCxmIAVoArz05tOOpHzAz1LLzaIkgoNQVML1iqCqQbgPX7tmM2+5ZgwopvHm0GMZMWqFBJA8l6tDx3LgSWsAy/SRN/Uh5W6pUJck5GRM9YREetfekNk6dAN574xOcPDoOX5RR9rqAlGOB2eKmq04XetA3p6IG6U5g5UYP9z+yE12rgQ9PfIyVa1cjDGlzQUDrsSPK3hNXDWf5yKk2zdYY2sE2D63q685ak9oMJ1UE26Z2HuItTNFV6IEvXJw5keDIoRF8dHAIjuyHa/UwNSTluqO4wYxGVKCkAWKBoWOrgcgeRaEvwcOP3oS+AWCsXmOgrdYrusjIKnJ+HCkxjWhCCgJZi68/5RxnKyeZe6956DzPRc4MpWs7cgW1VWWgTRsuCm4JnqL73cDrr36IqGKh4PazN59HFKa4l7NSItr4aG86B1hdZMTgKiyEcayZvwg3M7ymYjT6TsY9ZnprHe3KS/TfeTEbfUbuDU8pE0kLvgxarTvMWqZ7iunQgEs55lYfODNwZepWCc0dj54nCUelvIFsVR1rjxalid/c+/X93zBAu9AnfGmcZ4C2BbQUOj6wvELHgGu7qNapktjFeOMMyqss3PvQDbzoTlSb8Eo2h0/1wkX/r5cl9k64n3HmIt+Wq5uJwjNIoXWvIWBzV0wDcVKDIuB1aPEqQkVFxDWB998axeG3TiFpuOgOemFJgSSKeeFbVNUxS/xRh2gF8Cu49e5rcfWuMpqiAeqqoTYmYuSQymMCDSroYZ5rypNyCJyOjEOXw+ptC3ZOfp89YdrbatlP242KwiIUAqIabCJu1OHbDspeHxrjAsOnEvzy6fchm2XYqheuU+TNRZw0uRjKdS0kREl1kePiHm0NoXUWu2/ciBtvuwpNlcIpx4An8empT7Duqk2oNxQsSaTVNqhmyFakMZzCEZEOb1rsV067tlxAoX0DkJcl5XlcvnpqwbGI4xfMCU2h4r6yjRMfJHjtl+9j+FQDBWc1IEsZJSiFhzNxB5EywObsTrkVyK4tIgkJmzgwLZpVMRIZIpIhUkW0mzTvLAbSPG+b519zc5LtiAdat6fpa6RQNN0zEkygKIRvBZxAmZIGpA0Ep+R18VexUNabIWop595qXW3OOs2WhRpxkgoFRyYaaLMLof7cHGgf/Nr+P9p5r2+4jpcGZi5oFAZolzPQKgHXLmJo5DT6Bzw003PYsnMV7n1oM2oJUA0rCAoUmtXFQAwTGd0deyQUOCYPl0Ajy6G1Cp9mVHK2y6RlXhgvkolul4FosGdpO4mWVksDRE0XduLj448SvPOb4xg720RX0AdHuojCEK6ziLAxX00CqaiVqYKulcADj+yG3w+M185hzeZVODc4CMelHGUWOp3iViagpapf4sQOmB5QH1khTEYcT79pESzkIXXteeXAS0T+QYFaoyLEjQqsJEHBodaebg4h/+NPPkBt3ENaK8J1yszBTEVRCk24no1Etodtz18DLgq0dgXKH8EDj9yIgQ0WRmvj6B0ocvrgzLmz2LBxCypVTXPI5PkEtIj42ik3z32k8JESPdgUOrV7r3ozMWWHKXWenDKRNi0Obx7CRgMuHPSWy6hQbv614zh88Ax8sRoi7eJ+Z/p23vRx5TWFWyinmYks8EZQK+bQK/1QWDtWoRaGILECWUOYNJGoBm/uLNvGitWrYDk2F33RvGv3WmncfX192iMmr1RpPmgCWvqhELRLYWrm8k6RRAmiZoyoESFqJFCJQhpThTVF2YkXmfL7RNxBHOI+LNtFTJdC2W8ZZUCrbcYUjJlH+8Dv7f/D6+/wDdfxgiBuaZxkgBbAq88MXfOPf3+EPNo7lpVHy8xIAcK4htQeQ/fqFPtv24ztuwqgZawe66rTrFmDZ6xmnKUeRSoUIo+KgIYWojz3msvozeDgZXDVvLU6h0dFIC6TzfsUhXYTpCzk0GSuYAI3GflAWMLEMPD2b07jxAeDKLp9VDKFpHl5gDZSFSZp2HbdKnzptnVwe4FKPAoroHwoXQv1iTqwUl5StUeHMAMaASlLrC7TUmrRHr123gl42zx/JsfP7aAfvZAcSIdagyII2QCSECK14ctupgf85bNnMXgyQXVEwBZleF6QAW3CvMT6ey/s1V4KaHtWNXDPQ7uYs7qe1mCXEkSqyeO3bA8yKXA+noCWrp0A1kYDttCkJTG6kSJoW830dbVyqe05ec3eRHbhcdP8k5pUX1CBURzBd3x48HDk0ChefuEQ7HQVREL526JOW2TtTdSCxqF4Rd+dhWypypcBVhexSTvCyMRZBF0eulf4KPV4KJRtBGUXxS4fbtFFz5qVIG1HKq6m/R3xc+f7JuZuzv6d/45vZ2ZuTb1JLGlAGvOtQ7OuENVixLWYawzOfDIEkFhFUyJtKCQNiThMkEQKSKifuotzvC2PdhrQKpQqr93/uzf9wS5Dwbg0EHOBozBAOwW0x77TLTbfYUdE7k7FDeP8sGqZPGpncTL1Hq0Wk7feMdn5XDS1sj7IeWtxfZbnkc5u7KHY7eGTwXexfWcvbrprM4IeiVKfhVqzCkFb/0z5RAMtAY2uFuYMK3l0eQEJO70t3dbzRWVnAq3DC0/RtyFchTCpIFJE8EALHLE2+VBxF5I6cPDVURx++2P4Vi8Cq4i4HnFPp64enYprz/4YtN+f9neICM10HE4xwpdu34GrthbRt46jpDh+6ijWrFnLEnfEp0sUekTHwRR/KoRFpB5cZFNgoJ0qesq8qZwtazrQ6uplTbCgNxuapVLCdSU8h8IEMZIwgUgCEOS8/co4Th+rY/gk5fA00FKeNpVN7ke23Zl9pNNtMQW0s4CxtCew9mobXzqwFYVewPIVKuEIpBVh9doBnDo5hMAnhR3aZBDQJhpoRQNgMLaQqPJ5QJuDLD0X2vRa0k5zEWvg5cwDbKSyqBm0bIWkWaMaL/SXu3DqSIRnfvoaRLSagRaSqn810EoqXrNr7LFyVIVyo9z/TX/TeWNpxUjtEDt2XY2uPh89K4so9QBeADgeyRkCwgeGaxq/WX2ITMmRGqrm1q/0e4rO66pjrXRE76PfU943yVSLyK/m3DXNr3yvGYNb1QhwmxWgOkqV9FWMDY9ifHwSUTWBanhwUgeO1GFjUiPK6RxTu5GKYuOVB75+6x/svFt8tMA13py2BCxggDYD2if/7qPHurH5TgJaj7axqgJlU9+oh5T6Rmkx5eCV5nHNHwYGmUswyCzVv9NCaTndqEbjSO1BdK1K8TuP7kLQQ0QQdSZHYDrFTA+U2zPod9w8SGxImllIV5m0e1VZ2LidIKA9dNw28Rm0ta+Y5VtbQusERknTRdm1cOi3MV5/6RBUFKC/sJLZmNJEweI+zxbzzqzPVPv9acU4objqdgKxPYkD930J264PUGdHI4JUsS42igVsSS0tbRSQvAFrMVNNL0ZqF/xuG03b9ed7J964pBHbmHPBtPEhLmil4AqbtVbHzgK/ePIQmqMlFKx+5gEmXgyJGhxXsQ2m2lmmhW9nWGLqXuT3iXKAk7j+wBps39sD2ktStprAiXKZQUCRDvJg/Sz6oMlCWCZSkNCBDlmn2UYj/7ZcXYlvSaa7ql/PnxPUNhXTF1NAg6ixwgQl4aHX9XHuBPDmr47jw3cG0VPahGJxNUiboZFWkZK0nRcicUOMVM9C+BJ+KUChL0Dvmh6sGOhD39ouFLoBv0RV89nostUu/yeNlTZVFKZd6DGj7CBrNcoI0Ai0U6qD0D9cx0yXScDbBNIm8OmHZ1EZmsDI6RHUR2twIoGyHcC3Xbi2qgsnfOPe+2/85nWPlE0f7UJv0hI4bxFTbAmM/jIN4dVnJq958m8PfqdbbLvDjojMnTyvyQxoA2IgbenRErk6A21blellGsfn/TGks6ssH6GsAv4oulcnePCRnfBKlCOqZ5XG2pvPCSq0N0vMTNTuoykAW4Uu87wCJnCIdXhVFrg/d4o4XkS8mZGhjbJr4/3XY7z2y8MQdR/dQR9kpAGJ+JVbxTj0/bMVZ7WNqw1wlNVA6IzCKTZx+/03Y/12GzWStHOYswgO8TEnVAClOWu1WHiW/8uJCeZ5ye1vp+1FDrRKdLFIIRVUc8iSdG0VUBsGnvvpQdSHSijaRDZtw/WIBKHCTFvnAe0FNjQ5DWZrQySReOPYc896bNtd1mFgymc6KRKlgbYZJXAo/5pf/xQrl+blJT9V0UYr+86WJ5vtfaYB7fmGIk80yogdPCWhmjEKykGPU8DoKeDQb09i6FSK2qSN8UqCWCgEPT68MjAZjWCkegoDm/vRs6aMdZvWon9tH3zyzCnK7IMF6ZvkiVKFMY2WK5Sz9iy+lwSyrYrg+d5KnX+fftbM2UeCEjnXd9bFluV0FYNwN2kejwOTQ3VUzk2iPlTDxOAoJgfH0KhMNFav6nrjnvsO/Ns9X+l+eb7jM+9fOhYwQMse7YWBNlX+FxhoCTYdSLsBt1RH35oE9z60HVZAVZo1Fr7X3iz9aGKEywq0tHCT90jgSEDLuU5y8zKaQVrHIgddnovDbyR47aUPoSo+Sl43VCw1FSBLtE2Hr+mP14yirBlASyQVpZU2DjxwA1ZsACYaKewCBw+5hchTznlASxWh3FM8g9Jvvo+1BlodNVCiNAW0hAi0YDtKIBwHnvnJO6icDVAQq2FLlykgE1mBoHwkJQj5yMubZ1QATw2qlR/Vv9Ie7S0Pb8HGaz0QZwYJvZNCD7VzsUcbUohct9bo6l7aYFKWOc/Rk+0vvNGamfWYaR/6pEgpprJ0KEoQR7BTwS1cE4Mp3j94Eu+8cRKe148UPiqNOiKrgZ41Razf3I8VAz1Yua7InmuxB6AuJCriq5MqoyMhPAop641RvtBRPlSDbQto23tz53sPOZrctorOjNBz6DxL6nL/NTFK5eFmARRcwKLwMnFmNMD3e3ywhpGzg6iMjUVJUnv7jgM3/Ptdt5ReFMRFaY6OtIAB2mUMtBQ6bqQSVhCj2NVE7wBw95e3gJyUWFVnAdqcao9k4cijpVVmER4tQ2xW0azyfthMoUY09eIeU+g4wPtvpnjjpY+QVDwEVpn1b3W+kvJ0CwfaUAyib52POx7ci+7VwEitCa9M/aOShcgDy+NiFVZ4ydiDLh/QUnCA/FiXIwvs0TKJPoVoiejSRTQBPP34W5g866JorWG1Gd/3ESdVPUZmPpoP0NJ7dZ6UgPbAo9ux/hoLYUSRWyoM03zKfiFAsxmxwhAzK7GoQzvQZhW+nFK5cB9vfmc4OpGp3LTUbnSOmlWeqIGUWlyEBd8rY/hsFe+99ynefOMYpze8oIRiXxlrNqzAhq0r0D8AuAVd08y5UgE0JHmwIeAL+GUPXgmYmAwz5iod+tf3MqOEzKg2Fgq0et7NvoTmgMuCTlnHG+Et80ITSxV5+zTmKmn42vAtGwGFmOn3CUCXEUeonzv58Ynt2zf93/2r8MTKIoaF4JyNOTrMAgZolzXQAiFVffgRij0RelcD9zx4NZRHHm0VyiEQbCuGmqIfzICWJ/vcFtoLPxc5fSEBrWYbYsJ8QRzKFgsKFEQB778R4Y1fH0NaLSBACWmSMOAw0OY52FkB9+IebYgz6F9XxJ0P7kV5DTBcrSMgoCXqxSRCIKinNwPa7PO1BqkWJJ8bYcfsV0/gQ/q8FudoXSRE3KAo90kZawFX+QhHyKN9HZVBD0V7DZD4vMEgTVyq9JZU7tp+XDJ0PANov7oNG65xEKYEtFUI8mgRM9BqIQGq6s2AlkKvHDCmgjhNE5hOqedMH0Zew5D/No+ytr+SAUl0PY6agJ2wDJ/lOrD9AGfOjOHtQ8fw3nufYPVVW7Bp8xasvqof5RWAW6J4g0SYNJhNi3tn6X5QbJby1sSqRP9joWG9xJFaEFOGZkBLrE4sE0kvi1i0LyRHkM8LKvfgI3tjJtEMQUxSWXWCJh3R8SJWX26T3YubjdHe/sK7niUfB8LXugqFwyFQ3SIEyWKZo0MsYIA2B9q/e5fUe+6cmaNNJBVDfTFztNwHSb2HdgNesYHu1QL3P7QTIpBIVJ1z1MLKgVR7dC3psZwRaLFAm3kF3A9J3mwMULELA62Al5a5tePQa1W88+pJoFGEL7oQh7rqmIFpEUAbW0MorxA48MBNWLkBGGuGcCh0TB57Sl2iPgMttbfk5BxUPEOLeV5Vu9BnnYE2pVAixRLJm6VwtJYQJKpJFwEmTsd48ck30RgroGCTKLrPAuok2+e4RNxBtmpb7i8GtBpxphKLpM50w33rsW1XmZ31SBLjFGnPhgiKASLiGRaBjixkNIgZbQMXBdIn5epJMzccU0LoFzGOruT2mBFM2Qlv7JQnYBV8DI3XcPjop6g2JDZu24FNW4qcwRirpGgm4/ALEsViAMcqgbThacPIGy6XWo4kGmEdjShEd3d3lkPWBW1TQJtdj7R0jnahjQMzgTbvHJ4quNL6ApoQsm21zavNSTqRqbS5gp0TFprGMXODXVvBc0Q1aVbPWJBHe7vLLxUc50UH0TEbxfENgkrAzbHULWCAFsAr/zix/am/f+87yxFo4aSs1iOdGnpXCTz4yA1wSrTgN7hNgpr527lj9QKq83Q5U9RcQocXfhAy2TSu3s4l4EIGW1oYfdmDpBHg3ZdH8d4b5+CkRFHYhbDRZOpCnXDTbRczfKoZ/56lEpp6QZ1RWIUGbnvgRmy42sck9XHYRAgRZgVJdga0eQ+sFuxmoJ3qK17YY05Ao9IW0XzKfhr1lRDQunBVgMFjNfz62XeQVMoInFWI6sSZ63OI2fddxBGR1s/3+rUPlzoTuO6Wflx7wyoQ5S59f4Q6mkkdhVIBaUJczLoYbjrQ6n5i1kylVrgMqHKw5VuSmSQH3KlCqTZT8UbKcrX8oKPQtJpoUtVAVxGhsHBmdBLrN61BpQFU6zELXpS7bZS7iEmryqISMvERJYo5jGkK2YEHr+DBycgnajWNQ069rL4AACAASURBVFoMoQW0Wuxdh7NnhrTn82+6+Jk52vZIR95zm4eKZ84UyoMz2Dq2LoUg4Ne8ksynTUQevkMVyhG1ANW6g+CsA3VcJPLXXcXgeeEEh2xg0ni4C3sGP6+zDNAuY6BlyTWXiCnGEIkJ9K608eBXb4LfnQkJiJhDeZpBTjP+tIBW90IuDmQJs/PYWg60ukeVPFoKK7qqD3HVw1svj+LQm2cQYBU8q4hmjeTLAIvChfMGmuzxIqC1xxlwbrv3RmzdXQItyzH9XjXhuTYs8jjZo9VAy/WrlxNoE2KFIoTQMMdKRkrBkx4c6ePUhxW88sJBoEF6tatRrxJIBpDKRqHoIwqreoMy742G4uvesqeMvbdchWK39qZCRZ7gJIJSEZJRQhfDaaCdrlzE5BCsB9wKoTNXb1vmMs/N6u1Zi8giByeb28fIk1WopnWMx3UEvV3wurtRTVMm9BBU9EYbA6lbizyXhCyaTIPo2L1MrEFBJ9p8NNMYSRLzf1Mu1HN9Bv08L6uFEVpyf1NV7gtYcS+Wo80/jjsFszYfNg015VpaBZoO6skny1DaICaiSCbaSHmDKxwLcdhA0fdgU/VyIuFTP3+9OSkkzvb1dB3yXOdF202e9uCd3giMC80cY44lZgEDtG1A26W23GmF7rJp7yGgTalnskRk8mfhFiPcePu1uPr6VVA25SGp3UMvBecdWbhysUBLpAVEZUd6oVTc49gkA5fAsyRs4SNAP858kuJXTx9BXClDxUXUJ0Os6u9FjYnvL0L1OG3Qs+RqRYhCOcbgxMe46c492HjdSm4PIcGa4bFhVggqMO/ydKClvJ7uvdQNLgs9yKP1HQ8jIxX0r+piYQf6TM8rYvxsDat7evDCz4jzt4nacArX7oXn9CBJHaSpzQxaitgQZmi/Th/PhXLU5NFOonttiHt+ZxcXFtGPHQBjk6Pwyi4a9RBeQMxQFwBaAr+MWXIqJ9kGtASyyVT/LFUAE7JoD1ATvRC4U/QEiO0ECWkTuwqxIxCTfCDxATteFjnQYG6TahH18nIum8LE9HdNGJLPBQ3ieiB6XASsWkqPgC4H2vZxLPQezrWQarZiMB4TD5PyyrTxUUiowI0IN1geSc8tJrKgQEtKGh8W/1jSkkImI8JNT7ku3gxc54my573SBIa3C+anNMcSsoAB2mUNtBLNsIJS2UEtGUFi1bBr/0bsv2Uz/C5got6AS4T3majAtHl7mYA2SbN8lCRJMwHPob7DhPtLVeKiN+jFobca+O1LJxFWCnCI8i9K4BHBAgmhZ8UuU2O7VI4yfyNTF1I+uIowHcPqLX24+a5r0bseqIQhgz0zL2ULdLtHmwMtLey5APrCnmkBO6UwJxAlmumJvDAZUxGYj6QCvPjEQVRGUsQ1UrLpge2WEEUWElpsHQJAKoaaKVPXPpoLA62yq1DFMdx44Bpcs7Obe4ipCI4oC4m0gsOYWW76PI+WGZ8USA6XiVyy/cZMj5ZyjezJkkIRSy5qwGVB9GzDosFFIiagcQSzLSXkxVKfN4sv5Bq4Wn+WGKqol52B2vL1difvbppy6DKgzUzBrTWSmKpy5iV9Qj6e2YBwLiHk/HsX4keyoIbWiudirsShUHzCtpD0k2dGGGiJPcqCmwg4qYCTNfFGVq0hLDnmW/ZHvuM+VfTEU77rfrxJiLGFzUlz1mdhAQO0yxxoo7AOv0BVmw3Uk1EMbOjGrXftwsBGYGgiQlAib4HysbN7bnPd0V9o8kZJrHsLiW7dsuDYFJwlQvYEMnLR7ZXwq+eH8MHBcYQVH+VCP/ddVqvD8Cl51S4kzs7BhXK1swFOCinrcIIIdTGB+x65FZuuE/hkaALdvR5zECtqf8raQfLQsQYIvdAvFmjjeoKBgSLODI7B8yx4TgFJ00bRtnH0YIzXXjiEpG7BUR6LsAu7gCZx5VLI2SHpPgLa2WpfL1QPmyMPFZ7VUcNZbL5mJR74ynZUG0ClOYq1G/tRqVdh+TZTD04pFLWHjucItAnzGusIAIEt50RtoUnzCVBpw0SOJnu1NCbtzVLPjiaT0MLoeSqegJzZsgloyaO2dc586pj67yywy9zEmVJtNoXz3la+n2055oUURS1mUaZrIfYvDbRkI+3ZShJBYFeXSFn0JoPSKDnAEjjTuTReympLLhzEpGvh44Ljvtrl+j8sF+23JoHhXab3djG36LKda4B2mQMt0xCoEI4v0ZBjgNfAnhu347q9K5mejqJ3xCGrw3Lng+3igJaEsWMWLrCFw1q01FdKrEik5IKkgNqIwEvPHsHEoIeo7qG72AfPt3Du3DH09Xch4e6WNsWYeQAttViQrqwVSIyHZ3HtlzZh962rEVJHq03qOIBHeqJZjm82oKXQ8UK8Gf0ECzSrEVatLGNscoRblUqFXuY4rgwBr790Fqc+GGGJPk+48P0C500bMS3APmzP4w2JptSfecwFaEM01RC6V7m467496F0JVOMIpV6PK5DjNIJD5MBkgcyuehujQ+Y0Gy7k0eaj4ZalDFwJWNMMZAls6d8xCSNx2DcLx1sEsDq0nH8T1wUQINGdppqntmlIMrnnzcppq1r+10y/bqaZMo/5sq2o8/ggmjcUEub50wa0Om/cun95qJvAlQg96DWvkiYWs5gEGajNS6WxLawh3xGHCrb1TGA7z/lF94PtQkzOY1jmrZ+BBQzQLmOgpZsfuB6qtQm4RaKsizHZHMSq9V248fZduGorFUoR0JL3pqkXp44ZtHsLm5sSsWwyC5GQDsJ6CBnF8F0fRbfIPYWvvjCIQ28Pwo4HIOMABS+A46YYGj6Clav6EDZpa8/dh3oIcy0Kys4g7zimVqagAavcwN4D27FtVxHjk3UUijZ3Cc8GtBTuZKhsq7BdkA1Io0AlCIrA+Pg4ugqr0BO4eOOlCO+9doqZsKzU0cJ61B8qY0SkdWr78NwiL7CzA/0lgJZNFSKxK7CDCBu2rMDtd63nHtWJZoxyt4vhiTEEpdI0u04D2kyPdrbQMYMkh4pZvEZ7rFlYmMGWvFkCFy8HVv01OdHVVEiWAVfrubK9WX+3tWxl7bAabc9bzdptoD3r8/PZrU3EQu7fhRbQuWTu6Vwdatfj5E2r0BsYnsrcFqSvP/fqqbJKA6/+O1Uo0+aLIixCUpEYnZNWLSFPuip9ubcUfLfo+69vA0YENYeb44pYwADtMgda13JRrU7CCQS8kmKgtYsJdt+4Dbu/tEqH9ajghXjiPgOgTdHUKjypi6QZcwFx4BS52jetAz/9/ruYGHTgiQHYopsUzaBEHc3wDIolam/JKCIXArREw5coNJMqSitsDDc+xtY9A7jzwasRJinKZRtpzGE5bg/hhY2WMQK8LEK9WKAteB4mJkewclUPJscn4ageWLGNl548gzNHmyhgJWz6Mkl+tib8Jy+RqpaItYm88oUDbaw5re0alNPAAw/fivXbgMkm0LcSGBmvw3YzZaIpj1ZHNsiLJntQe0++4Wh/zYEiDxGnjkBE4MqFTlRsrl9TV1NgTNEUzhCyZ4ezvVo56zfNUwYXL7Il8XWdS259Ri5hqCuROWlx3uZs7mvxYoA22znwPcyP8z6vrXdoWlkiKT9RFIB2JhYJyucsF/reUPudrdJBK0neLTvW4yt8/8ltvv+JoXGc+729nO80QLucgZZyj2kmaI0mlBsidmqIRQWrN3Thmt3rseXqPg4hfyZAywo4Ebe3qMSGiG0EbgBLCgyfruPU8Qm8+cqnCMRaxPVuFJwe2JZCnI7DK9YQRhVYKGlh9oUCbUQLlARKISbTM/D7Y+y6aQu2XrMG5bJAGkcZmGVVslyA0/I+iHFo4Q8RkRFYCMMagoLNvECVUeD4++M48mYN9eEAJWsVA61AnWgYkFqxznESIxP1hRKH1Kzu01w82hTKDhHLKiI1hi071mDPl7ahb8CC5QKhzFMGrTauFmFJVow0o72nfSy0QaNiI9onRLb2aGNqw8lAlvcPDNQkS0memm5/oRanvI2MJW+mhBwINLMRZAjMYdT2FbEdNOm8TMKxXVWILZO1hNlZ29JCFtX2fuH8/Ll4svl7NQ+z7gPPq6KnNm5Zbpb+0BJr0PeUv4PHT+kWYjGjGgsdfqaoB2EuAS3xRyf1Ri2A/KDHcX7a5xa/Vyp5xwaEqC3kes05C7fAwteIhX/nkjuTCCt+/rfvPVa2Nt1lN334NgUMqzosA5dpCKkNhSY9qdbQA0YVgPkueT4P11K6eK7ATAWKxSKqjTHUkyrckkKoJmEFIQY29uL+h64HrUV8ucSWREmytpwgUzTqrXm2BFzsdfrVczWz02QWnLRJMFNATxAgrgLvv30Wb792FOFEESu6tmB0KEHR74ZNnlEyju5+YGj4LEr+ikym70JSeRdW8xEkGJC6CEouJqNhWOUQo41P0Tfg4aGv3oZiWV9WLglH4yVvVrNC6UWctFpZWzZf/FpL4YxbPTO0rTmEZBLCD1zUahWs7FuBU8caeOnnBxGP9yKaLKIo+pkliqXprAjCpdYPhVgqxHGq1XVm5Rq+NNDSYu0HFhrRBG+yGukYvnT7Tuy/tR+jExLFbhqj1nhtv+ftBA3U3tWq+NWXzD2v2WaENgXsyWYAqyuK24qisvYbbT6qCpodaOmh07nbSwBtm9Xz53IKZJXugWawyl5JApG/O/fY2y5O/ykPOWe3OCvMymf8zOd5PmtBO9DmY2ipC+lxkRfL48/mF+9FpkLg1OZD91/3QFMImdYsAltbsEQHkEawwjj0kvRYt+v8fE1P7393XBwxYPv5rsQGaMmj/cng9qf+4f3v9Hrb7rSaAeuPStWA4zuIJeWQSIqNnkYiY6ScmIRDVRgsOj1dvePzvX2L+zYdEtWVJvqhT1kajzRJSVybqBmv27MFO3avxup1wHglRTUcRbnLgRsI7rNUKDJhgGVpCkUKZUmpNWYprEcC7kQpyGQHFv1Oe9DUO0t8vbTA098Dqxslu4y4Apz8qIojB0/j3KeTCLACQlIvJ+miUruHHieNjxeiTMJNW+LS5PbtFtOtHjQemQFYEw05DtuPsGXHWmzfuR5r1wG1JlWBNuEVBZwAPO5m3EAqSbC8n0UBtINFIJFAqohtQNdZLpfZJnFEPwkkESYIl7VuXfIamwkKVN6cAuc+beLd1z/G8UPnYDV7saK8ESrUyjkMLxkPNImakx0Y5IhzkHPU8z+4iCqOYXsCzbSGGqroX1PEjn1bsHWHh1I30Gg0YDkhLCJR4BSCi0QKRKkWBOgpldEMQyaKALGIeQ4oTNxQKULyTANP52KzSEALKPRz09LVye7gTKSaFvadXvjEVcJ5bDnLbOaqwazYI0Q2z1LYjodCQWtKNxoUFUlY/Yk9QK7qpepe3as0lf/Mcswks5crAHFBEjNMZcVa2d/mb/32dSO/aJ2LnT5Hz39f+0YnJ3xp93r5M0gBiua1TOFZpG0spUjlSUsmvy7a7uM9XuH5bWUMGYKLhdy5+Z9jgDYH2u8eeqzP2XqXCIsZ0IZwPBuxdJn9RnPEpsxaRBOY+hw7HWh5ulADP++SdbsEk1hQlTEBbQa2W64ZwHX7NmBgvV4wa/UJ/hsRz1drxGLjsupK3h4hbAuu7XB+rzpJpBJZZaWwYFsWLBa1dkDCMCOTQygUSihaRdRHgRPvD+PYu6cwfroJhAV0kceqNJiQbi2F2qjwI+f3zQtD5j/1tRfj2S7iOEJKHqOdcji6qSro6rWxYqCMXfu3Ye1Gm/uKRydrqIfj6OoLUOoKIFMLI6OUu/Z0sZKjIx56USY6RQoNu1y6bZPnKVxmWEpSgFqASc+B+CBIsWXwpMTbr32Is8fHYKfdCGQP4rqFwOlqAS1rAcfaw6ToAsOvy4QNCzlYjYeuPY11rtRTCEUdfpfAtbvXY8/+LhBVcKMZImyOcbOsXyrDLgQIEwtRRHlAYmyS2mN1LM7BkgcbOsSwpaBcWwNt5uHO7Fedxl84z4vIc+Y8bTleqkGT/jMvfLI9B3GcsPevm3z0hozmJlWVNyNKDRDQ2vzDznvmlXPom66LBSR0pTW12BDQ0itdS2zrv12pIwfdmSPg+UgBgpSiHrrPmVrVkKTDriXeK5dKfxfY+NmuAk4J0ls0x2dqAQO0yx5oW16gLhrRzDRELk9gGssa/FKKgQ292LFzAzZu8+D5wGQtQaU+hq7+ciZDRnqmus2AljTXIgo5ziAyO5CK1f/P3nsGWXKdV4Lnpn+2fFd7b9Dd8N6RAEmQoBVJuaViNDPa2I2VQmt+7ezOKmJmNEazO4qRxB15iQRBECRFiQagAY1ECCQIgARBB0eKIAjbvsu9eiZf2t3z3cyqV9XVrqqBqq7KjKh4XV3v5bv55c177ufOkb9LTtO04ZKL1vYQM2RH5Zhp4MgL03juqZdx6PmTUIGH/vI62GkJDPFq6sMLD7RmaonuKpmw3JIlQNaOGkLcYLoRRjf2Yf9l27BttyftpJ0wgulQMShGu0tOYC2aLmo2JLlImfekuo1WZzGVQjdMEHe5IFtwzQoMyxW7kDRpegJojEd47tmX8dyPX0LctDDSt0X4nFuTIUosA86YjYRqkdY1dAW4LkvS1IiLOYSvOpgSXVvllaR/dbzZQDftYPOWIew7sAk7trmo9QPVqg5ZTvtNtMOOeK62WxIAU4aJxDZmc7Fs3WE+lj/SGzrbwpN7i4tviZq9UoaROS9m07K0RkbJmXm4vt+WYjub4QP2jXGGJ4nQN3bDQAhZcg5kCkfknqpoKM144pmmLQGZIMv+V16UhMj135br0NvkWWrLPMSv/5fi8olsbqltzGczCagljEnbtn9SspJ7dgyUP7NeqePLNf618r0F0K5poM1cjexh1QtGJmpuMB8bij6pYVOcvQWvkmD/we249MpB8QaOjPlQrg9laRF2kqDnDzp/Z6iYvaH8YZjRUBYsy9HhZNZykD84Bg6/DLzy82M4eXgSnckAiW/BTcvw7BqiDnl8M77ljGZPCAqyxW0pHq1kwCKFmKrnVoJSyYPlMCzaRpC0kCgfsdFGtc/Cjt2bcPCyEQyuA9pdoN0mz2+A6oCLGKEU8Ei4mKFjCZ2z1zWFbbvi+YVCYuXAsSswDUsUZ2If+MlTY3j5hZM4duikREk8s09YHPhvx2T7Tm9VrL4/ec50TghxESuWQojAH0etVkJqeWj4AcIUcMolpMpHp30S+/ZtwPYdQ9izx0WlD2h2gUm/idhMYZXcGQIKAmqXmzQyQDHlQs+WEglZe4+mO5w7yF6w7QXgcyeOYOomk77Jzq3bb2fnIf/MeRhFAXxfK8t5FB6wLESJsCzPyOexCE8LwyvRt83FI3IBCX5Wh43p0eqqhOUEWrHngm12Gvi1YhC1b6mSRKBNRMc5TQi25rSroh8MVqw/KKfud3ZW1bFFTKHiI+dogQJoZ4D2mb8esHbdtrZCx+TK5ULVE3rMKjx13jZGqz2JviEPhhliujOOUgXYu28Hdu0aQnUQYATd4k/WykpPIQi6iGLmKRO4TkmAlrk0z62iXCbAAq0W0JwCXnkhxUvPj+HQi4cQ+wlqXg0Vuw5FjyGk16enqG7i13y2FxJoTbiSx9OC3DoMGKUMB4eikWo5MZqdcXhVE7v3bMH2naOoDwC1GlAZIEc01zotbadztBQFyH+UbCwUTFgW5e0gBBvjYyFefeUITh7t4NhLEabHQySRQq3cpwUT2gFUbKPslaHlZns91rw9RYOuTuotzqOiR5uEDZHEi5WNTpTCcDzpa2Zv9cmTL2PjaB21WoL1G+vYsmMdRre5KPcBzJBPU56OzE5mKhXKPjcYjgWDbVdMMYShhI5zzdeFyE165fTyVtjzeY0loDt/GZtNdFKIgB7tjC4szcn8dkTBgkBoLLlZo5fK8Ops7lUDbR72zs+YAy0L1XlXekH4HNfcC/y22QIvvUmePX2+kbGoWaF07y0LzlL223L8STLmqM7DVdf+aLVWfmSPUicu8OCK02UWKIAWwKNfOb77a5945kMLAW1AAvdVm6OVhka9kM9ri9DgpkOUYdiRYhjbJQuNL8o2Q0P92Lh1EJt2D0ilcqWiwHZYmoreayxEDEAfF+Uui34gXhw9u0YjwNEjxzFxIsDxQyY600DYCeHZrpD4czFIQp6E3Me6gIWH9h5yQn/9f7JrP59SzzmPPttjbBkvvVCpfhbVlxSWbYp3S6J/26F4nY8wbqJW97Bl63qsXz8s171usyH7FJM/Jr0n/QXSv8kcGdNiobZBp51icqKNI4eP49ChY5g44SNpDaBWHpFccdcPRQieLU5kygq6VKfROsD6fuQBwfzp1bngxQNtAsdKpeApMW045QqiFCI/R26DPgoLNMdgGL7ov9aHShjaNITBDYOoDpahakDb68Jgh5VpIOAGwzZhlmx0DaDFi3b5/OSFT3PX3fzezReJP9fVWQP3bHcpUwt5G27+SvP5YZpt9tg1y0iDjsA4pPBM4ow/mUGNVEKseY8wxx0qTRdJOkgdwjdmAJkQP1sBfK6jvrDvS2aKwbJ5l20k8m/hJpcFYiRmYeSc/5aeZeZrOdfj4JhnGd+tOfZd9ZrzrQJsL+z9yc9WAO1ZgLYbsep4tRZDSePdzAKy0BRjWHF8Ygxh0Ea15sI0U7TaDYRRR8LKbr+JSt3F0FAfBof6Ua9XUK4Argupqm02AWqTt9sxphsdTE5MY2JiGpMTDXTaXNyGpa3Hcxk2tZHEEYKOL5qsDtGrJ/80h6ovG+zSgFYDYYZimnPZYHjbyqqjY3T8pvS4svio4zeQxD68kgGvZEu4+cA1l8C0VVZFbAjgypgJ3tlmo9XqYnysgYnxBhpTPrrkKqanGnuw4364Vlk+QwF0esWU5+NiGASBzi3KIeUtp2yKFD3vxXq0WTFY2w8kH8l8ZRiH6HSmZdM0NFBBY/IYXBuy0fLjDtppBLvqon90FKUNDrwtCfq2VNE32I8wZfhYgy37Z8XDpUd7msp8KULK1X0Wub5xU5SHf6PUFKDVgXutSGe7wDM/PoFnf/JjjI+Py7cMDg5g//79uPSSdWC622K4PGXvbgI7JbtSLlgAREqHp3uBlqFler+s2J9Pl7jIy1jCxzL5pNlpLHMojx4QaJm3lhAyPdvM++eGjpEXk2QXUTTuxNG36551V79Z+uaeWuHZLuGGLPjRAmhzoP34M389YO+6fX7oeHUDrZYto8ekU1uzVZl5X2G7TS+uAkspqTZmrqtUZq7RRJB20Y7YBkWgoSA587Ehorgr3iEfZKVMyckyS8QWF6FMhCkhZc+tI2L7Clsr+A5Kg7FCNOqCDVUM+SVppIt+2D+ZMTPpthDt3Qmv0KI9WnqdWv9VCBMIsqauJg/8rnh6GzaO4sSJowijNgb7q7DsFNPNMXGjK/UKJlpTMG0DjsuWHVur79AzZm6a+qEuQ+e87ghBl0pFXPBcCaO7VgVVpw8njk0ijHwMDPWLsMBUYxzdoAXXZdtU7sXmIKtj9Lx+2WQswaNlNCMJLRljmIZod1uSe6+yojrqoDF1AiODfYjCtvAeUys1sg10jRSdNELDGseOm0aw+eA6bNm2UQC12SXbFAvFTWGwoqe7UH5WHC8J1epQ7mJytNIclEc5UgNxaotHHjCSwA7gFPjiAz/Ecy++iMNHT2T6ujpvuX79euzduQkfeNfVcNgXLz8RrCSUHlRdFKiZr0gOogUOLCFTEZJ/mXNZj+six3/uuejZlqO5xWQLgWxeGKUfirydjv/mMyzTifdH2vA4P00EfoC00xkrm+qR0VrlL2tl89EdSk1eaLBZy+crgDYD2i/f+9SHaunW28ywCs90ECc+HzWkRmkVe7SzFZMaaDN6GQmRZQ3z2YKie/OyvGAGc5LDknYbzW4jvkTWBqWfcoansnNKiJp0iXnfZyaonsupC2ewPn/OPqTzxLNAw39LlWlWgawJEZcCtHlv6ixfMjmXe0UKZhiKFMn7dVuNpqLMKAj5vxkB/ikLSY89tR0YBs6S2dLDa4FVz/IdrCLO+aTZusPvmMmX99ybGTtquywsKHCOS1rKTY7uT05MsnTxO3Vls0lhBcRwTbYg2RhvTKBrBHAHazjZmUIHIdYfGMatv7QLHZ4i26fl/bK9fbMzLSjzVhveu4wyWmywkCydYxpCziGhTraNZTJ7UZcbsg7qfSVMTjdgWWWYnicgy0KmHz8X46sPPopXj5xEpDTpjARRuRHKNmkeOnjnjZfg1967G4de9LF1g4duq4tuaxLDw4MYn56CyRoDWGD5EDd7ZspKeto9lRSHCCZk7Iev96verORphdl7PtNTO28aLDhXKIUYR7DTBCWljpST8MEycHdtqPJ4IUZwjs/RObytANq1DrQZ688Mu1Gm1DLDlJNNIsXYYga0eU6NwMcclu6/zQJ2gsg54C4EEDnYiG4QDFIwclHPmuxn2xO0HicBSnuwOpecA23ORJXRBpzDVF/gLQJsuZ4rNwHcYMyOTzxmXdqZAVomrJBdq3D9ptTrXaC9pic6MJsD7w396s2Mzgny0G07GuxC3cIjYJ7HtvM8uqU3QafV3T0fU2hmK7FrTxGcBvBUwrqubYmykFlW8IbKOBmOYyqexobdG7Hz2u0Y2gd0nazOt0eFJy+AOh3IatvqjcKZIhKMDOSeGb170yRYZvnvNJRw/tC6IUxOJ2gHBng3H3r0Ofzjt34IwxtEi/3KYHW0q++ibNb04SUtXLGtjLfdfBD7d3pSBe6kXdhmBNczpViK4Wj2KQvQguIO+n7lIe9eAo7zsfyFeu98nubTgezM92XyjrlnLC4ui+7TCLSQG0cvltP47/vK7l/YZfuZQkT+wtypAmjPArSJYkXmas3RUv9T5/g0sOaAkTPUzAKIfqD1op8vjHkIdwYMMk9v1vOV5XQBrzYDHH6v8gWktVc3Wz0rC4FWHs0AdxZo9TlzFgx+5+dPwAAAIABJREFUx+KqbmVzoFg/qzthpVREPFqu5Hkltr5u7WXTA86KjzJvXebGaftYs8drDijm1VLZgp1ReQqoGplXy+rlGWnC3OZ5ZEAX5OiDcHim7z/7IpF7OeKRCvGFvnZuOHgPLEPh5NQx9G2sAfUYz088h74tZVx7x9UY2WWibQHUdeCh54Mmp8g9XLk7p1llcqA90yhZEU6AnQmhS3W4EsAlRrCnl8xtbsnBiUngm9/+CR7+zrM4MZVC2X0wvX5EiikITRySAz9TBW7axIg1iUu2VPHb/+P1GDsMVN0Ig1ULHX9aCqYCssSBuV8CLsP1uliKQDs7/89u59fiHbw/vUDba+d8M7FQC9gcz5tkWNS3lfx0CieKYjsOf1qxjM9VXeveS6vOTwr2qKXfvQJo1zzQauCY49HOgOkCnlo25/iA55qZs15X1moyE2LOgFZW4Tx0yld6jwRKem/dGS7hudN5FlhyUMk9Wv17PrZFgqzgVO7RZkArHm2exFqAbWnmuvJQeb4ZONuDuMBjluXFdd/mbOtSzn87a9NZoM3D+3kB2KyHdvr7dKaR6SCq3mjN8HkTkHh/EioDAZ2uD69uAbUIhzovwK82cOWbD+DATaNomZDq4t5ip5yX90yebD6m3s3V6XK0Amwmc/hAGCeIglCKnywSotg2nCpwfCJBu2vgyWdfwFcefAKNroW+wR042WCEwJMfsnLlACPTMY1hpU144XEMl7v4337zXaiXgLJBWkmSiIxLVXLCzzGqAi1coWfH7MZL7LaMq6imET11M7MQ0M7f8HDcLJCSqDxJOBRgsTUg6PplhWeqtvHxwcHSvUUl8tme77P/fRmnyNkH93q9g+09X/nYkx+uYtsb5+doGXZavR7t2bzBMy3g2tNjAdQsA+0sNeIp927GY87DnvrzKZjzzMByjuc33xvU4Do/zLi0RS5vj8lHO99DnH/9eY46e7/w6Z7LLJ23Gci8YfHrI13UNLfga2FyBwlZsv8x08DlYko2p8XagH20ArQzvMl5Dp3hcxaFQcKntdEqjrVfxUkcwZ5bt+DgbTughoBm3JS+2zznOeMtnpNNMrtlRP+ny9EyjsGsgdAdsuMrCIVpjBXpqWMi9YCJFvDVf/gRHnnsKSR2P4KkglZHoTa0WXiqCZIC2IreKNMULAePYKILI5mCp9q47cYDeM9btwrQli32eE/Bsg0og94wXXRd/Z1tw1guJ7/H9JIXycx1LjPnjBulBbSQ59cFLrThmdNrK1J7iaQwGL0wmA8PA24rmlXLeKJi23/sVfHQQaV0yXZxLMoC5/NILOoLLoYPUVTggb958kNrE2hnQ5mnS5blD+/cYg+duzSyop25dO95KDZ/nQWyublF5mF1VXEG2xIKyytqe3t781zsbFGWPudSF7lTgXvWHvMBLFdzya9Gj3SBkudTKPl6SCXmhcepnpS37vQWe+kctB6L1JqJoHciQKspGnRTi3AML/Ip1p7ZbB9uXtWte6tF+0Ui6F0zwPHuIYxcMogb3rcXxgbgaDCG0kAZCTUUyTuUCZGf6/M+8/4eRZ2FPksClFyMovfvDB3zq481gYe+/TM88u0foNkB3MooWl3yGzvwasMIyJwhwukpTBEFIQ2o3mCk8kM5OR81z8dv/8bbsWWdBloVsaeZfNKWpgmVIj59R3QSY/mBVoB/3vQ7G9DOn9PcKCZRIuex6d7K7o3B8gglwzzuIP56xVIfHK7bT+6QPE9xLMYCi3xEF/NVK/czZwLaKHVWsUc7j7CiJ+Tby9/aW2Ch4TWrdlSJtAycWs14OqCd6yHqsikuZvp8LCoSgfWMGKAX0NjbKDKF8qoBQtO8LyVHmVVX95B1LOSV9bTazpnEOoe5AGHGDHrnn+z19GdBV+zG6LmAlMCoLOzCX8xKYIYqsxAzr1uYi9gyRYBMuUlJtb5rXrp7no+YzvERNojk7KUlh3NehKXDkaZnY7w7AW99Cftv24+NVyuMW8B4Mgmvv0yXWtICZwteL1TwpOvMepmNTr2AWdYutqbkClC6GKqTAl977CU88I3vohsoDAxtwYmJADHlFvvWY7pFsNThXjPV4GqmgShwmWkoFfNdZYlSlxGcwDvefCXefNMuDNcAh7J83Y609KSJKT+irT4HaFl1TFGHs139ed6Y83j7UoGWHXUkh6E9LU5m9n9HnGspXCNNzTD8p7pjfGhdyf3UnrJ69TyGVry1xwIF0GYUjF/6myc/XMO2N8wNHaeI0owZSlyLXvUe3aaSsxVdnLMq36lnC8WMt9VL8zebi51zjQSnGaA9h6tfIL5JEQOGAWeP3rCy7NdnCpHmA21eALVY5Rr9nSx+kuDkzHEmoOWb5oTdBGhPDWfPKc6aA7pzAVe3a+rrz7RhhKlLqph72oDEJ0u118EFUCp1M2lDKsssFmhnbJBtXjTqU+ydohIxQjNCaIboOF3svekS7L5+ENMliiqR8kuJwIBrlrNASHavsnkh0Yi8vYsh9rxqff7fe4qocq1ZuTNZWJR5w4Rk+EkCqkKlpo04ZUgbaP7/KfZ//8H74PVvwtR0F9OtCF5pAEEIJJ0UTn1QPsdNiUHaQaUB1hRNaRaeGQK0QdhG2ZrGpmED//xX78CmdSZKCgg6TWEq446DVKUSeua4hGEpyPq6ly90LEvSAgGV3v7cfGLP1+HN/5/MWVHA+6PnMoE2oodLeT1LIQ6DVr9rf7u/Yv/XuotHi5afc1jrFnhLAbQ9QFtNt84AbRR3JDg300crs5q7YsrkAWasiyO0hNbijL8iPnWmwWfxPa3qM//I216WdhWnnvlUY862/swsGz1fukRv4hxu3tlMdKppFrKXhtNTrJi9VX9HTxg/2wj0vj8Pm8+2V+kPn8MlLHiTCKgBmqKZ22kESIIUg32DaLQamA4m0b+1Dz8+8iQuve0gDr5xJ8x1QCNJ0KHYBBtsLRMpWSHkmIl15DGPs76yT5eepvbMqfJEkgudCxWFnARwkhBxMC21AG69jkPjLfSNDiKygP/w+1/HkSkLIaoZdclswZ1WNZodWd5zrbc0BN/MdnGKOGihVk+QhMdx8/W78P53X4lSzPx5DDtKNQ8yvVoSmzAKQz5sajdLMRGLrJZvAViIvrI3xXOmp1NLTuriLidijzBFFWavhRs4cSSS7oSN8OEh1/qDSrX6xLVKtZf21K+9Ty/fDFlBtmbomB7tXKClFgmBlsVQWtRcA23Yo0ebtTKcqRFwBV1nMZTCAr0WSFWAyOkIi5WblGAmHmuEANtA4PiYTE9ArYuw84at2Hb1BoDqPWSIoodICikJd59uU3F2WxNorVSL2AeGiUCZCDOgtWPAToC6Tc9yUhi5/DhFx6qjpSx86wcn8ZVvPI3poII4LS3QYrVQIVvvmHQo3lUmOs0JVOss3Z3Apk0l/PIv3I4DW0w0jvoYoMRe3tWVbWpClSBkKxbDyCY33BfnIRGlTPjejTL5P63cIZScoZGy+FyIQVQcHOmzjU9ts+0/vKxcfuXivOLlG3UBtJlH+8Cnnryrkmy9NQ8dC41gAbTLNzOLb37NLUCP1nQTTEyMYaA6As+uYGxiEm7dhtmn8LOxn+LqOw9icE8f+nc6CDygHQTiBRn05DLgWaxHzQIlKyULVorAVKcCLYA+irM3G3BcA5N+BLOvH0+/2MVf3vsAWnEVsRoUQopTe5nPDrRc/Cqmh05rErYbwDabSJNx3Hn71XjvW/di4rCPEc+DnWhQ5iFjzQBKPNpsY/Ca36zX4Au0R6s9fFuk/wi2GhJy5aK0pNDttpFG3bhqpE9s8ir/YWfZ/eY6pZqvwZBW7SkLoAXwnS+d2PulT/7owwXQrtp5XlzYghZIxFNsNBooe1WUylVMNCcRWl3YwyZa7hRuef81sNcBRj/QoRxe1AUUC4NYjau5B5cCtA5Vk+ghmsyXUgeWfNGaS5hqOiXyKjenYDsOUreCiRD44kM/wRe+8jjc4R1IUEUMzW419zgHoKU8Hnm3TaDVOQGvFCBsH8XOLQP457/yDmysA3ZItih617oYTyv50Ntjjpf11uTxvjiPU4FW6+3yhpJ0JGChHQkt2AJGucEoPDaocO+IVfrLq/q85y7Oq16eUV+sc+SCWotA+8VPPHlXNd1yS+HRXlDTFidbwRZgxkPUXJIUQRTCKBlIvBTHOkdhjxjYc+MO7LiuH0EFCJwEXWrzpKz+dWRBFjlELsSL1LkzkxROVgzGRZ1AmxosvtPE/Rb7ZZGg3ZoWwon+0Soe+1ETH7//Gzje8hBbNSGjWLjy/NyANu5EWDcyjOPHX4BXTsSrDVrH8O47bsT777wEcYN5Yo6FxVS6EpvhVurU8rDIorWM93jxgXtdSRUb7Cue9Wh19b+WBeQ1+iwec0zYZgrD91Pb73y7T5n/76by4D/sr6uxZbz0i+qrl3OOrBhDnQloE8X2niJHu2JuVjGQC2YBtlKZoYFyuYyp9iR8y4c1ZGEsPIbajjJufs+lwAjgW4Cv2ojYv6tMGKkjbUeit0sSqUUDLUFMQ0UgSjnak5J2L93kBY8ebacLttk5VROf+tJP8YW//x76N1+KiXYsikv6DIvxaC3E7QCD64YxfvIwDDtAf93A+OGfYt+uUfxP/+xO9NuZRyvXTprMRCQAc6A1EnMmrHzBbsx5nGipQMs+dt2fbYjAA4UuuJngZoedW82oC6fkwrMUEt+Hmm4eryB9YGOt/88G6vaTBRfyud2sAmgBfPfLJ/Z9/l4WQ53q0TIsVQDtuU2m4l0XlwXM2IQZWSJH2DHamEqn0ClPo7TZwdZrNmPHtf1oOQwZdxFR6IAcw+QMig2oiFW4gHL56+KWe4aHWfQkrE8E2ox8Q1e5U3CC36cQhSkS08SLhyN89qtP4KmfjcHu24ZuTGlG2nyxNJzkH7SkP5cMZUlMacIQYeck+twIb3vjNbj9ui3wOE4CrUjyJUhMhpA1sFsxNx4X132fGa30KmnijRxoc6ISbnq4mWgnISzHAvttjTCE2enCS5Nnh2zvE8Nl757LyqoojDqH218AbQa0X7j3R3dV0q03zw8dF0B7DrOoeMtFaQECrR25iEnm0G/geHQER+JXseeWHbjirXsQ9TFkHME3uuJpEpCsxEFKVKQqDj3isi4QWswhedhYiyuI3JyRav4LFUNl6BWHCeLUgeUpPPjwEXzjuz/HhF/C5GQKs29Q2Ju00MNiDgOeXUV7YhzloQG025NAMIVanw3VHceWEQ+//RtvgifcVwksycvSq6XnTX/bhElC/sXi/GKGfCE/kwFtLk4gPN9Z6JjUngRatjIlsqNKYcYxvCSFm6StsjK+V42i/7xhXeWhwqs9+00pgLYA2rPPkuIdq9ICBNqwmaB/ZAAnukfQrEzDrzWw7cYtuP7dW3G4EyJ0I0RmnLF1sc/SEZIPi3TBBEdhplo80Kog1aT4JsFLNwtphiqNXr6foFQtC8/xf/qDL8Isb8XhsRTtyIVTqSMKmb9dPNBqusmMSFM0h0NY6Iiyj5tO4t1vvQ5vummzlFuFQYBWexr9w0M4OTmFklOCZ9hnlPlbyROHV52mYdZXnDGsZUxdkTJlc8VWLl3spiuv7Vjn1a0kOVyOont2D1h/sq9cPrSSr3MljK0A2gJoV8I8LMawDBYgYDrKQyfx0S13MOWOobzTwt7bdqNvVxm+EwjPsc7ZMYdnwkgoVG/OeHEEWhJOLOYQ9qcw+ywF2ecBLbO0YWzAdC289CrwVx99AIm9HuNt9ttWYbrs+20uDWgztWEycQmjErmP4cNOp+FiElfuXYc733QVRgdtRN0GEhI8VmqY7gQoOZ6Q8S9yn7EYk13gz3CTQ/WmHt1oiS7oDHkv0GqvVxeosRrcihF4SfDwdk/9K6u//MylKotBX+ARrpbTFUBbAO1qmcvFdZyvBVKFSrUfr558Fca6BH6thR03b8KeW9fhiN+AN+zCT9k3q0GWAVRD+iwpzZYxQTF5t8hDPNmYKjpa3kDyn8I3qT3amAFbwwLJp/7+wRfw4LeeRSfpFyYoRZ1Z4YLuZDyE8+O3839fqFhKv0dfiuYs1uINXThowsU4+pxpvPedN+GqA5vRbU+iXPEQRCLUB9typIBokfuMRVpt7scWb325chgJGUoyrBUCEg2yEq2gF5/9LdcOZpic2rX0br04fG7QiP7vDV7tC/vq6uQFuaBVepKl3adVYhQWQxU52lVyM4vLOGcL0Je0KiUcax1D2NcRL/ayt+5FfSfw0uQ4vOEyopigR7YgRwQfZhSVstCu0UN1eM5f3PvGOBIOYXrM+mCokr25iQi6wzQx1QTuuvchvHzER6PjwqqMwPTq6Po+DK74WfHU3O8/R6BVhBKFNHUFPEXfFQEcho4xjrT7Cn7lF27Fm27ei2ZjAgMDA5iYmoZll2FSEzcThVjUtV+ADy1tAacONX+yNMAckNVnzq2oNyD0ajXnNn93k7BRitqfGqmV/+v1Nfd5pRYdw78AlljZp1jafVrZ13bOoyuA9pxNVbxxFVmA/aBt1UVSS9Awx3Dgtr3Y94YBjKcROrYPMjnQwxGBA8ll6uWCQJhQYEP7trPge762YWFRlgOcAXEBcE2CETFfaBp46XCIu+75Mvy4jom2Qrk+isSw4bc7MBy23vVCQj6IcwFagnw3+3Qpk8Jj6xL1WHWONu2+hF95780zQDvYP4DJqWmYGdAKM+viIufna60L/n65m9zoZKzUqUH1KN7fWT0u1kGJBm++n8k1eVPNQ236jceHy87vDQzXHr5cqYkLPshVcsICaIvQ8SqZysVlnK8FAjPCWDyB8qaS5GivffvlGD1Ib7YBZ9BDkITiyYoCayYlKGQGzKUaOqhoJdoLXMwhoWIjK2RK2SbDSt5Z9mThPk6B7z95FPc/8B0k5hCmfQOl+jDaFICnyoypRQhObfE5O9AqqvgoX6vwJGWkpHKUHuEITtqCiwnUvUm8753X4KqDm9BtT6BSKiGKUmGjsi0baUzpxsVc/fJ/RgNtoiMKWbi4V72KdzUrOM5C6nrM+fVaSQQzah2tGemnh0ulD17b7z2//Fe1MkdQAG1GwXg6ZqiivWdlTtxiVEu3QNcKMG42EPdH2HRgFAdu3QhrPTAW0ZslCJoi7E4Sg1w7gAUyZBOKTQ20TsyQ8uKBlucRtRkBbK2/K+HjlK0+Frox8OWvP4XvP3kIflRGJ6Kg+yAaTXqVDpKsanjRQGtoyt4kqSBNPSD1RFHIggbayy/px9vffBDrBw1E3Slh0apU6mi1YriuK+NczmMpIK+BNt+maLFdqfrWzJoaVDNgzb3a3mulnezED+0kfLzuOv9pw2DlkUuUml5Oe6zU7y6ANuc6/sRTH9F9tBV4pgstkxcLYbkmrOARwVC5eg//L2OyEUFyJSG14rWww+s5D2YBRnPUygOdAx9Ds9lKnLfLzCxEqYGu3UW73sLR5Bhuevt1WH+whqhGJn9gfLoBr1xCHBD8LNErlSeA+qWUT8uA1pYqZF1E1KuDem6/z56HxUiSH2WBlLBCalIIPwL+9nNP4MXDPiYa5EIuwatW0ZiagFuvgdTLuW6xHuSsJ5sLy4u+r6CI1pPNAQR8lkXxLQGoAJSaUKkl4vBO2oat2N5zFW67ZVTae6LAFzrIwaERTIy3YbslUCt9OY+lAK1MlTygIFJ/jA9L6bX+Z3ZheX5W7NYj68gKbTulV+u/Wlf2x0frlT+5ohCHX3A6FEAL4Fv3n9j3wCefuaeO7dcbQQU2DETJNLnTMUPByJ2z5KUyoJVkBqvzWMjBHbkh7QnFa2GH128esFAprxolGGrvUzZ7sirGCBIfTtmW6G8Q+IwUwrLIhmShbTRxwnwF6w4O47LbL0NYA5JBQNWAV4+dwMBgH4yQ7RxZlXFqgEQGIc+Vyb06WTGQ9kNnIE/yemf7XTxX6PErYTXmJk0DLdd//jB0/Md/9iCOnTBQ6duEk1PMy9owSwmiKIJKvCzkHLJXiE+uJpWQqlkLcaOJvq170Gp3EY01YPf1wzYt+M0WbEchCKeRxgE82xJxgW5zHIimcWDXRlxzxW5cc8UQDFHpYYiVhBU6f6wI3twYJBdv6HguIpz5jp0OKBSBNg6DUopvDVrWf9w37D2+sdCrPQVsC6AF8OgXTl7yxY89/dG6sfN6o1uGrQi0DSiT7Qae9mgFaFn4HsBIKVidew66HL44Cgu83haQvlOhRuRGz9bhV75mIJcaMcKkC9tTSMwYQUS6PQVl6ladphrHZOmIMEHtvH63iAe0ykDkUc2miVq1BOWH0jtJij7pazVMAdtu1tZDrVaKAyzqIHglceY5OTpXmqnjEH4JtPRo/+wvHsLx4ybK9c2YaPpIHfbWhqKja6SzQMtNMNs5pVhL+kFN9A2sx/j4NFkw4FRqQBgjaHfkey0jQZi0MNBfgZkEaE0eRc1JcMXB7bjhyv3YtEHBom0JrNRmFQDPW5B09MCKZr3kRdngIv8Q7WEmCbwofn7AUX826pTuvaKmjl/kl3XBh18AbQ609zxzd93ccUMBtBd8jhUnfI0ssCDQckM4EzqmOHlIlgEkRoSIqu4SRTURxykaahzhumlc/c4rMbSnDr8MTJlAE12UKg4MAiGBVvRY6cFpkOVPIOjDYqilAS3bReRIbQ20BEgd5UWoIK09H/7IQzh6DHDLG9DsplCOgcTyJT+qgZZDoTdL0I4yMORvFoZHNuLYT58HSjXUh0fQbIzDSFPUSw4ajeOo1R1MjB2CpWJcdslO3Hz9Zdiz1YDLvXUA2AwGSLyUnrL2ZnUrsd4VmHGeV36NbvKKPi29/FSA1onCyUqafGFz2fmPhYTeqTetANoCaFf0o1wM7vQW0EDL8DEkbMz8IoklZh9qIlCEBJEUMEmeVqgOgSCMMGVOoLLfxHXvuRpqEOiWgEkDmA5bGFxXgd8KRIdVg6mUwyBitOc1ANo0mQu03BDQoz05Bdz7iX/Eq4dTWO46dOm1O4wrtQXsjNTNKmLZpsLUjgZuqaKFidR0EHVjWNSzTSLEnQZq9RIqjoETJ16CbfkYGirhqssO4vprtmC4D2hPEe0D9NdISMHYOEeiPVntcWcRrFRlYfW1G9Ei0DLCZwXdqJwk317nOv9u65D32BalOsWzO2uBAmgLoC2eh4vUAqcCLXOpzNHqC5LKUaU9WYaR6ewmJn3cCGEaY9qdwtbbN2LXGzajzfykB3RcoJW00d9fxnSjhYqpeY1zQXCCLIGm16Olh7i4g1nZWFpI2FaTV7wKL0bmOTLq+7efeQQ/f7GD1BhEYpagbBt+1JAe2jRrL2IFrDSpyMn4L8rnGQjDBEMjIwhCH9OTJ+CYAVTSgRG3UO8zsXfPKC6/fDd2b69LLVXsJyg7BjyL3MY+TAocSC6ZOrlZNKAHaLkBWWzV9eJstsI+pbSlrSCAFfrPDdrGnw5X+j9xdU2dWGEjXdbhFEBbAO2yTsDiyxdvAQ20aabfqrkExasVcgFSSWTeXUKgTZDaCQKECCjgbsbo1ru49JcuRXWPi2kFdIioFRNdM4JB5Zagi5IypB4h92jJnsTQsVQGi/C5Zgta3EG2B3qLCvRoOf7cayS3IQG90wU+9/nv4cc/nYIflmG4fUgtG53uJKyyR76FjBJylrGIVdCJMFYZCMIY1VoZnU4TluGjrwJMjr2Celnh9jdeiRtv3Koj12EMFvbUPBuVsoHID9CYHEe1XNZ/n+k11RsNzdtoiF2WWvm7ONutjE8xfO+YKVQYwey2T/aZxufXV0q/d12/9/OVMcKVMYoCaAugXRkzsRjFeVtAg5KmJhI/LmMbIMiKvuhM+0YC2ClSK0U7bsFHGybBZF2C6//F5ZhmtXEJmCbvbcVEais0Ww3UKhWgyxwtgTan5LNEIo7C4DxUmvaEqs/3EiKt8ZqmSBNnDikGRMHHFOD9wgNP44fPHEej5cAuDSC1XbRaE3BqFQmBCz8VzZDpqupWHgI3ixpTJEEbUF2UKylcswXP9nHVwR24/ba9orOq0EWl5KLCIrBpH1NjJ+E5FkZHRtBsss9WFzySJpLhaB061uHivCXpfK98tbw/SRKp1qaEXuq3/JpKH91YL/3OcL30w0I+b/YuF0BbAO1qeebX5HXkYNurCUvAJdAy3JuyKpYC6o5CZEWYjqbQQgNOnw1sNHDT/3ApjiCCN2BhohsBngllK5wcO4HNG0fQbviwEp5Pe4454FwIoNWbBDbCGkhjRyqDBbwEMWMBNNtV+OJXnsUPfnQUJxsGnPIIUstBszkJu6+KMNDEGSoL4WoPU3Mz87y2o0G5XEqRxJPwp17F5Qc34Z1vvwXbNxNYu6hXHRE3aDam4VgGhgb6JSrAXl3TJC3hLMgSvDXgZmPNZl3e/7vWXpMwgmszihICfgdlJE9t7Kv853VV50sFeUUBtHMWZbb33H/3j+4uJ1tvsMIqyo4r7T1xGiA1SkV7z5qEsIvnoiWMm4mSM9HI0CmLoszYgmeQVtBAJ2hBVRTaxjSicohXJ17CGz5wG/pvrGCSLT0sPiIZhcmQLQGQ5UQKKmb7Rh461p6cls3LPdol2En6Un3ZCIhLnTfQkvjFCEHu3Sg18dyLU/jYx7+O1BxCNy0hUraM1S57CMWjZQSaYXPtyWvKSHrIeoyuq+B3xuA6XaTdI9i3ewS/9N5bUHUh7TumlF1loWcJiLM3VuedKXavQ9oGkixcnPf79l75uRF0aMKH8yf2WLmfI2FHGMUwkhCuAkoIj1Ys3LXes/7i+nL5lSXMjlX10cKjzTzaAmhX1bxeQxdD4NOcwWzhoZeoAceCFdmwUgemIpVhByinaNtNBCUf49FJ3PKBN8A5aKLhpVKJTA7jxNAC7AIyzL3Sm81yvtqoWiRdFH16mIIWY3BWTMcGmZmIcxUhexGSfgIduZQ5Fth45Ugbn/z0Qzg5pWAL+QjGAAAgAElEQVR5o/BjVj4DhmsjJgOHfF5lknVaL1eEEDjWNIVppoiCSXhugKh9GNu3VPH+99yOjSO2bCIIfrqFRx9UtBFqRfaIgsIK+rqFhTkTRuf/aOKKxVz56vmM7JHknkVwkcBOu60yki9tqpd+9ybX/fHqudKlXckanybaeIVHu7RJVHx6uSygK14JrpEZIhaRdrZbMPLqwoptGKENy3Sk0hjlCNPWFPxSC+lAiFt+5Vq0NgItV7cISf+q8LDkywIJJTJAFWTR4VLtKF4YoI0yoFVJBSrWhUUSOTZ8GUeqXIw1Etz/pcfxvSdfwcD6PZju0PtWSCWsm401oVeVVwDPBdok0ZXGZS9Gd/oVDPebePedt+CyA0OMUM/w+ebFxDndZH6VYpOZympdsJXbIXN4l2sCLP/3cu/B+WYwOhACYSfx4ujRDX2l/6O/VHriWiU6hGv+KIAWwGOfPbz/vo//+CNF6HjNPw8XmQFOBdrYYPVsDrQuzMCGbXrCTxx6XUxZ42h7kxjc24dr3rMPU+wbdTTQzlT8ZrJpAia5nMsplsmLgRZvstQIEJvkFDdgxBUYpwAtYNgupjsK//jwc/jSV7+D/vWXCNAmliVAO1uUpK9bWm1kQ6Bzq0qZiNmmY0YoOTE6jVfhWQHedOtVuP3WnbAZOs4ofnuvJF8YRSbuNN1LQmCxBOH7xVtuhXyyxy7KJtdYgjhowQ46T22slf7NaK3299cWdIxyswqgLYB2hTy1xTDO1wK64pWVuSlCu4OQSjhG1AO0JVhdF5bpIjRT+E4Hk9YJTNjHsffmHTjw5q2YKgMdW1fu6lBoVl2csTSJHu0CInS5yoBW21nckagA9Gj5vWZUg6JUnniYaebRJrCdEvzIwPefGsPffPYfobz16EQWUosJVh0eloUszYGWv+liJYoJWKaNsNOBZZtw7RBB+wRU2MRl+7fjHW+5AsP9ktHV5+hZDWfI82fC41nOtgdcZGNizmq3Ls4KF/+nZDNi0avVQGt2/VfWe/YH9w32331QqfGL/wqXfgUF0OZAe++P7y6nW68viqGWPqmKM7w+FjgVaLsCtAQaK3JhxiVYoSeE/bGp87MNbwInjMO47l1XYOu1Q2iUgK6lPyMQlann5AQNzEtqgv55RxZfXTLQWh3xpAm0RmzqnGkP0FqOi05o4dVjMe574Nt44XAHsVFDathQjicet3icwuDE/LQeL9k5CLSm7SLqdOC4DkxyIUdNRP4E1g1U8LY3XYuD+0owDPF9Z4qUCLi9nmwm0QAjC8trYM9pIgm0a3cZZZYhZC2Zlcq+R4UdIGiOrTPNT2ytVf7wplLpxdfnaVjZ37J2Z0jPffn2fUcOfO6eZz9SAO3KnqzF6OZaQBc92ULD2HXo0XYRmboKl0BrE2i7VSSJQmIBLaeNTm0Sx4xDuO1Xb8HgJS6aDhASaDPPVOd8NbDyNco924znNx9B7scJ0J42vHzmO5YYISKrNQO0ikAbswZKe7RU41GmjXZgo5taePjxo/jqQ0/C9IYRRCngkOc4k7CkSH3O4iRAq3teDdtB3Algew6S0EfZShD7TaiojVtvugRvfdNW6eUlWDMnPBsmZhVz5sUSSiV3nFUmKy0koPmYWSy1dpdRywT8IEWkYrge52MA1W21BhJ8ZdRx/+0dQ7Vni+e2CB3LHDg90JJRJ9OjZQM8HzTV1eo9Wc+fzgUVR2GB198C2qPVVceRFQqfcUSkkr5SgpYLM/RADCIedV0ffn8TR60jeMuvvwG1nQYmRV921qPNPducDlEDrlbD6cXTOUDLL1xEzwo1bSV0TIAj61Ni6eIkKa7xkZqsogbaoYJbreCpf4rxsU9+FXZlI5qdBMoqz4S65SLJMpVp0kromEFhw9GkG66HyO+gVnYQB020J47h6qu241d/8SAsQddUAF68+sx/FzBlT3Jv4Zd4zXwXWbn4HcxMisWzzPZaegU8G3IvwjSCV7JFEUn5rbCaxo+NWOn/+Y7BwSeUmtFyfP0fkhXyjWt3KzbHox078Ll7fjjHo42TFqK02yOTNx9oc9PNNq+vkHtaDGPNWED3u2pvNCdS0G06BF3ihwMLlmGDDD4Uej+UHMbApXVc+b79SEaAhqWF3Ocfs6CqgfysB8eQj+UcX1MjQmyKcjsUNwUi86eBltqvYIuPmaDhB6gM9OPlw8Cn73sM020PY4db8IY2IQgCAVieizIEae6SCk0iyZ353KqM0ILtOqEo/fDVUlP4zf/+rXCtNjZsLIsI+vFjh1GrlFGv1tCcmobnlWdahXIraKKNDF7zHPUirv987bXS3i8yE3Eqcyu1TdHvjqIEqd/EgKEeX+ca/+7AYOWhHUr5Z50/q/wNBdCKR3s6oA218Dv4sDJExfpILS6tmXK4ibUWGzlb5VOruLzX2gICgBlXML1XmYsUizPp2XKTGMNJFWxW6MYpfNPHURzHwGV9uPx9+xEOA02KuJNjcRkOre2q9XRV4krVsc63av1XmCStiJAYJlkncGwMePQ7P8cjjz2PMOqH6dTFi9TAR+83FfEE7VzyeRUVBQFcXZGsRQwMhqQRwFIN3PnGfbjlhs0IAlb0dOFZCQK/iXqthk6zA9epyrm0GpB2XHM2Lp6PEYW1uojqNrIUsVSzGWLuME6Rdn30qfRHw7b6fzYNlz5fVB4XoWNZXgqgXYZVtvjKJVvgbEBLELYo5cZ+0wxojxsnMXjVIC77hT3oDBBoU4R52e2iRrR4kBYhdXqtEuqmR2vmjqKEcdn+EyY+vGoNnVChEykcOQZ86O6vwLLWIwhtAWEBWoZyhR85Lx9mcpmisrrdZ0GgRRNbRmL8L799B44fo2ftY9vmPoydGEPZK6HbDeFaXga0WYpIgFaDO8+5lGKwRZl7BX1IQvwsQqONTUMYNOMkBYIuqir58bCJP9gzUv7UpUqRMHpNH2t1Mzbnpj/++SMHP3P3s3f1FkPp0HHh0a7pp2OFX7wGKra1UID8VI+WQMvICz3aJErEoz3pTGDk6mEceM8ONKtA24a0/iz+WCrQUlCdnpEDFkMJeGnlWygjRph0AMtEJ1BwK1V0QuBv/u4ZvPxKC3FSlopXIfmnLeRHk26AjZ0iLqALo3QxkxaGzwXiLTRhxofxv/7Wr6FaJz74GB7w0PVbuhAqSWEbjkjuSRWzJqCaEXEQ5qiZWo3FW/Bi/aTcqySWXmUyiol90hRGFKKcRj8bUNEfXzVa/+gupajwu6aPAmgBFEC7pp+Bi/bic6AlulinAVojTucA7USpgdHrRnHJuzdjwk3QodjA6RgZXmPLcPzMJfMwEkcr4TA1y99ZP6MimE6KRrOJMFWo9Q3Dj4Cf/FOC++5/CAmqCBIWK7LyV1dL5z+Sn9Vn1h6zhI3JIzULtCZaMMLjuPWmA3jXOw6g2wWazWkMDVQQdJowlElZgiwMrT9NbzZXSyqANgNa09LUnVI8lsJOY5Si4JVK3PnzqzYN/dV+pcZe46m04k9fAG0BtCt+khYDXNgCCwEtgUVXH3e1txslcGwbURChY/loVFrYePMm7HnHKE4YEULPXGag1V6okkIotocIHRVMFcFQMco1B2OTY+KhOl4/mm3denTPRx/BsTEfsVFHpFytsJORVGhaRg28+tAgq4UDCOz63RY6cNUEKl6I3/rN96FaAY4cGcfmzYPwmy3YzA2zwzZhHYZGcQHarBJb9+1meeU1OklVHMGyHMRsdRITJ3BVCi/qHnU703dftX30g5cpdWyNmmfmsgugzYH2o89+uJeCsQgdr/VHY+Vf/9mAVvpK4wSOZaMbhPAJtPUOtty6BbvvHMZRhAhdc4mh48XbievyjIABCLRqlhkq82gtO0UchwKLUWQhSl0Rpf/ud4/ioW/9EJ2EQFsSoXdptUnZV5x3AjC0TlhmyFgXTOkCay1yZxJojSY600fxvl+8E5cfHEEcJahVDESBD4tAK91SOpg9KyjAzYEWHRDKxzV6MBDC0LGRAW2Q6NYoz1Rwu51jdrvx8avWr//DK8vq0Bo1UQG0vTdeQscF0K71Z+Giu/75QMs+VMq50aNNsqpjAq1tWiKQ3rF9TPf52PqGrdj1tkEcjiOEJb5/KTnaxZtNA60O9xoEWYIWF2uKyasQporRajXQ11+TytZmK0C50odWC6BG/V33fAUn2y4iVJDCRpLSs7UFlDUFY16NzDxikMnf6fYhQ/pjQxhJQ2gZD1y6De94xw3YtA5yftIJUgIuiSjS0AuyHK+W0lvrQCsheXq0NsP3EBIRVouXDAHak2Zr6mOXb9jwR9eX1ZqXyys8WgDf+vyRg/fd9dSHK+k20aP1LBtR3JT2CGWVivaexa+lxSdfQwvk8ngshmKOdj7QSl9pkiCJYhFAb1sdtAdD7HjzLgzd5OIYQqQSOn4NB3mGU+ciBgRcKu+I3yjFUJkmLLiIM5KcoNvtIk0MlCt10NE8fCjET39+FF/8+vdRqm/E2LFpuJUhmE4f2s0Qlf5+tKYnoBzGpUlmwerm3APNtGvTGEkwhZITwrJ8/PqvvwsbRgCqA5J4IY0iqdjWMehZI+VAy/ELCK/RQ7LWCTWFDcSKv+miNCeOUY6C49XIv/ey4eHCoy1EBfQTUgDtGl0pLvLLzoGWYU3hNs482lRpIghSM5LViKQOlu2gaXfgD8fY9ZbdGLjBxtE0BEqmeCPLcfSqBTE/OxOkJdKRV5jSfgwKUxIvSRDFCo5dgu0C0w3g6EkfDzz4PTz38zHYTj8cZxCN6QSWU4flOPA7TSiXnmcGtHmol321iSPnJxWj50SIoilcccV2vP2O/bBZsBwn8FwDcaCrumcYs8RW7P/NQtBrGGjlhlG7VyITGdBSkzYRoD1WjTp3XzY48t+urqjDyzG/VtJ3LtMjtpJMAHzzviMHvvCRpz5cxrYb53u0ML3Co11Zt6sYTWYBoV40Y/GqcqDNi6FyoHUtG77vQxkmWo6PYBTYecduDFxv4nAcACVdyLJsxzzWqdkottT4IkkiOC7F3IFON4RSNjzXFqWdTgQ8/sMj+PR9X8fgwDYYxgBOHu2g3L8e3ThBjADKIoFFF5DQcS6jZ2uCDBZdIYCpukiSKaRpA//zb/0i1o0AnWaMSoUMDHn7UtYqNA9o89ztstlvGb+YkQdGG7jpSBQLxVgYNgO0R8ph9yOXDQ39ybUVdWQZh7kivno5H7EVYQAOgkD7+buf/FAl3X5TAbQr5rYUAzmLBU4HtImKEFkElxgeQ8bttgDtNKX0NijsfOseDF5v4HAcAq69YoFW+4wxbFtTSHLDQH4Ex3HgOHrcx6eAz3z2H3D8eABDDaAbVKGsGrpBBMtl8VRTk2Jk+uOU4kNqQ8UlCQY7BhAEkyiVYjSbr+K9774N1103Ar+dSOWzZ9Hz7RHozVbMGVrKNVwMJb3L9GgVe5m1R8vNkaM92sO10P+r/QPDf3l9VR1d6w9zAbSZTN5n7nn6Q5V0280F0K71R+Liuf4zAa14tEYM13bQ6XQEaBtWG/4GCNAO32DhCFtdnJwUf3muO8/H5t+uQ7Lie2avLIxSArRhqFmkLMuCYZB2gqXDJp569iju/9w3EYY1DA1fghMnO9LT6VZLCNNp8WiFmlEYqGwgIblHSSqGS7aB5uRR1AcsGGYT/dUQv/zLd6CvxvemsDOR2jn1YuLBZZ5uAbSaEUran+YA7SvVqPvnB/qHPlIAbUHBKA/fo58+fMlnP/b0hyrYdst8oBX1noLreHlW4eJbz2iBswEtPVrHtOCHAQzTwpTZQnMkEqAdudnDCRb8WLlWzfIY+3RAK32rkgKkj6RZmhg/ZnGSMlnMlAiYMosbhgY+evfXcOhwF8Mj+3Hk0BRguHDqHtiml0q+WhNjMGSMpCQ/9G5LroXm+GG41QT9/cCxV5/Be9/3Flx79VaUSwDlVXWVco99cn3eGUGH5bHdsn8ruapFxUgDLfuYeT91jjZ8sRZ2/nj/puGP31j00a5ZPuw5c/Rb9x/ad99HnqFHe2sBtMv++BYDOEcLnAloU4Mi8MzfAnEcw3RdTKhpTA742P6WXRi9rY4JhwvkouVkz3GUp39bXmHMoKOu5NWyHQKwWSgypjoMvVgW2whvfSqkEWy9oVKPTz5iz8Pj3zmM7zz2czQaHtpdC3Fqwam6iCV0nAMtP6SBVsUVAVqeL4qaMM0WypUQU2M/w86dw3j7nbdi66aaRvKsGvqUK2HotKcaeckGudhO0BM6DmVj1Au03Zdqgf9HezePfPIWpY5fbJd2ocdbhI4BPPzZE3s/f8/3P1ROt7/BCStwLGemvSc1SqJrKXynVO0RmS1ynGpC8Zz67ULfmOJ8hQXOZgENtAynGnAiV8KiBFahNqT8HJV9Qk20b3sextHARLWFrW/ZiU1vGsRkCQjonS3Q3pMLm5/p9WzjO5e/azF1gufsuzXI8jAQRImEiaXLhk9gFCBJYli2Acdhf3AbSlUQhQY+f99T+P73D6HavwV+lMLxbPgJ9W4pGJBp7s4AbUkoKxLfR6lqI46ngbSJcinE5OTLeM87b8O+vZvRXzcoSqM1aFm1PM9Ya7rouDdHK1bSIVInCeHFwXP1qPNf9m8cue+GgoKx8Gg5OR7+7Kt777v76b8up5vfaAcVlCyGnDqIGRgxPGGd0WTiMcw0gMlqRcpvzdC+ncuSUrynsMCFtUBOtciz2lEJRmJL3lHk5wguQnrP0Cq9vjK6XoifBS9i823bcM2v7cQLQRehZyFaQL1HA7YOmZ7u9UJcTS4g33uuufQZvbuAHgEDQT7S/0VCZNHfN4yfvwD83d99AycngZHRrTg+MQbDpboPeZNjXazDHK2ArattlfpS0MMQO0UMut0p2FaA7duHcMne9bj2mmGcPD6BXTsH4DcDjJ+cwMb1o4h8wPdjKCcjxjjFGGdpThbeyUwT8EIYcpnOYZlKhAQSyiJTUAAKHlIC7Y9L/vS/P7B99Ms3KtVYpuGtmK8tPNrMo73/7sf/qpJuuc0Maj1AmyIxXAFard9FhpkQZppkaikUxV6+0NuKmUXFQJbFAgK0VkeKUDTQEjHJDhVJpS1BjDJ57KN1HA/dUoSXolew6Q3bcNWvbsfLSYCORwrG2eGf74KwdFKpxav/EDwNdGBaLG4q4+hx4PEnXsSPnnoJTR/wqn0I0kw6TzK9VPGhEg/BlpsSKhulWZGVqQusggBp0kJfv4HR9Q7e+wtXsDAbadJEpWTDSk1MT7XhwEOt5qAVzIa9506C0wBtrwuc8SZr9uaL89BAy2I1ke4R1V4CbSkOflSK2v/2qi3DX79CqdbFeXUXbtTn+1xduG9eQWf69qeP7/m7e777l9V0y5sKoF1BN6YYyhktMNPGQ3iNShJlEb7fDGilGEpZwqpEwsG4qnBYHcW6mzbg8l/cjiNGjLZHmbzlBNol3GQVI4mmUe8bxNRUjI5vYboNfPXvn8LPnnwOfdv2oMmWIJIjS3UwX3OhAG6eU5Q8S6qyk0gJqQc3DkHQgEILjtvBW++8Gjdctw4TY1OoehYGahUcPXwc/ZVBeGULbT8H8vnXsTaA1jRNqQhPsw2ElUh7T1JOoyeqSfg7Ozf1PXqzUp0l3OVV8dECaFl1/LfHd3/mXgHaN88H2lhRj7LwaFfFbF9lF0FAJacxDwItw6Ik1Nf/z9wtq45tRH4kHkdUS3HCncDAVUOiRztZBZoOhd9nParzXRCW7tEu4aaoGGHQRLlcxfR0DMspwS4B33h4DA8+9F1Ybh1hSt5juqT0tTTIiiKPxKcT2BZkI4LEhOOWYRs2grCFKGrAMBoYGTbxy7/0FgwNAO3WFByTHB8uaiUPjYYPRY7IBY9zAFp+7iIPH1uWiZjkIOSOVinMOIYTRd0q4if60/Rf7dxUe+JahgHX+HG+z9WqNJcA7ccf/4tqsvUtBdCuylu8Ki8qB1Su1WZMoGU+chZoydVNj5bE+GEYI6kojJWmUNpfxb537UE4CrQsIFhA+P10RT4z0c4LZdF5zFDnc1qyEJlGim4Y6CrjkieMUS+9Ajz2+DN4+ukXYHvDSMDQsi3e/uwhsU7WHAu9IxIbluVCEZQTskj5sEwfUXQc11yzC+9+5wFEETA1fgJbSIicABMTk3C92kyl9JnHfrqldnkEHc7Hzmd6r2UrRBE5tRVsU8EgP3QQNvuN+MFBpf71+zdUf6oUq/LW9lEALYBHPnds12c/8sRfVNMtdxRAu7YfiIvp6mdysRnQGqkWQNdFUmRDimEmCqZpo+vHiCspxtwpqG0mdr9jH0q7HEzbFy/Q8l6VXRPTzRZM24GybXQ6Wtnupz+bwte+9hjCqIo0rUgBlESmci1ZViFz/ZfKWZLj20ipOytyQiTJYKFVgEo5QBiO4dc+8Hbs3mWiNRWi5Jnw2w24LtuHnCwsfbaZszqB1nZYAxCJDVzTgApDmEFnol+ln1tf837v3f3ez89mmbXw9wJoZ4H2z6vplrfOB9pIZLeK0PFaeBguvmuMkBihtJmZMatoKRAwC7RkQyIhkudU0PUp8p7ghD2F7voQe+/ci+ErapiygNDSvaq9x9naVnLP9mzvey1tKpKwSiFOQhiWQphEiOlZeS6OH0vwgx+8gB/+6GUkSR1pUul5jvnBQAOtkUp+MWHpNfO3rEqWiC69tA4GBmw0Gq/iwP4NuO22K7F5A0PIPvzuNAb6+hEEWtl28cfF7dHatgZaAolnmTAJuu3po4O2+vA2z/vztwyX17wWrcynxU+Q1fPJhz99dOfnPva9P68lW95WAO3qua+r/0qochNKms8UWkENtJE569EmIVAr19DthAidFCeMcbSGutj79n3YcF0fpmyga+vFvhdszwagKwFouXy1Wm1Uq2XEiQ8/9OGVSxICnmoAU5PAvR//GtKkH0lS1rlaXqd4svT4EyhiKyPHoQFlOHBMD4ZhIQ5CBEETUB309RmYbhzC7bddhTvesg2dFiuNfdgGWw7cJS6jFy/QsuMiB1rm6ksZ0JrtxvPDpvEH6wbsz9xZq615sooCaLOVmEB7/z3f+9NysvntOdBGcZtqnkV7z+pHq4v4ChMoipenCoYArSXasjnQElBqXg2N8Sm4VgVuXwmH4qOYrE5j8xu2YvftGzDuAr6t+YR5cM7r8Kr2Fnu0a+bYqRdol7M5JUk4dtY3dcFUoPQQ08OMy4hj4LFHj+AbD34fpjsCy65JK4/lmAj8JmpD/Wh12lnol6DJ1h/dIqVZqyJp/0HaQXv8RdTWeXj3u27Bvr11yUuykCpNTEQR+0i1FWgz/lDajyQbzOuu2kMlaLZaqNfJoBXBShPULQvxxNhTfUn4b27evfHBS5SaXrXXfx4XVni0AL7xt0d3fP7e7/1pJdn8jgJoz2P2FG9dVguQ79cQj1ZpDt8FgLbseAibIazEgVl1cFJN4KQ3ifU3bMAlb9uCyRrQtoCYGrAEWEMDBcuEmLsEW2PmyJ7rS84Zo+Z7wq+3QWaAVkLBYUblaAjNYpKYePWVBI89+iye++lRlOsjsC0PjVYTBjkcDZJN5CPWpPgEWf4nySzEHjF7kCnZ10KSNLB1Sw033XQptm+vousHItpAoM/2Kdo7zsDfIG3kxeuwnvVW0nZtv4VquQJEoQBtn2EmaWPiW4Nm+n/dum3d93co5Z/1RGvgDQXQZkD7hY898SfldMs7C6BdA7N+lVyiAC3Fy6maQqAFPVrSMjJ03BVOYBcmXJSQdFIkFtAqd3HMPI7awT5c/t59aI0CDYNMjRnpvmXOAG0Yx6KU03vkTSsrBWhjQbJUWJ10GJ0bBgNp4iAVDxX4yU+6uO8LX4dt96FWG8GJk5Oo1GtodXwYpg4np0aPX057pvRqtWpQGnUx0OchDKfQbLyMy6/cidtuvwaVEsDoMT1boYgUXmn9OgPfq3iFJdB2Il/andIohJMkqKZJ2/VbXx11jd/5pQ1D/6TUBa9Tvyif3lU8Dc79fmQe7R9Xks3vKoD23O1WvHN5LdALtMzRko+7F2jpdhphiv7SILqNCFEaIepPcSg6AnOniSvfdzXSvcC4aLIG4t0ZtiXeHr2yIIpEC/ZMQLucYWOOl+MUNBV1HobSGerlskaQtcB9AnO1D3z1B3jhxeNwnH5EkQXbrSJIUjpi4gWLqIF0oWigZquUcEhbHvzxcdiVEmpVA+MTL4l27c03XYarrtoKz9Fgy3FQvIHRAPaW8mB/qWmehYpxeafQkr6dZg6SGIbJ9rIYdhxRh/ZEPY0+vr1S+cM7h8qvLOkLVtGHC6ClHu3njmz/9F3f/2+VdPN7CqBdRbN7lV+KBtpEPFozYXV8DrQhIpOh1JSpSwyU+hFMRQgRweg38Wp4GOH6CLvu3I/qjXVM2EyxRTovS5AgqX+aIiR5/3yPNvPWuHAIU+8yU5BSYIAgmftN+YImHM1kwxLGJ4UXXvLx5S9/E+MTMfr6NqHZSlHpG0Sr6WugzcXhMzk9ydeC6j4e0kgh7nbgeiZcN0SzeRzDwx5uuvFSXHH5oFSUUiqXmxXSOHoeeZP5f1oQYeEjd3sv3iU4VaxhUYijAI6ICcRw/M7P19nqj7bWBj55R12NrfJH8Jwv7+K9y+d8iWd/I4H27z7y/Q9Wk83vLYD27PYq3rEyLNALtDkrFIuhYmMWaK3QQBklqDagDEPYoQ5Hh9EZ8jFw/Sg2vmMXGiVKUamZfGWUFUSJmMA8oMiZoFYG0KaIKV4vOWMKBOjcMb1K8kDxIPi55ZKEdu//wo/w9NOH4XrrMD0Wojq0EZ2uzuuKwo8IMWQkRszRkuSiY2Bw3UY0JqcRTZ5EeZg9uS34/jhGRzy8/303o1Yz4TizRVH8twbaGKQoXLVAy82WBfjdDkqGjVISwWo3f7CpbP3u/tH+f7hWcdYVh8zPwgzAI585vO2z9/zgg5V48/sKoC1mxMVigbMBLcOopdRB0rJqEOgAACAASURBVE7gBC7ckgPf7uI4jqMz4CPYYWDvB65Duy+G7VrCTsgKWoYDpXrWIgGGBqzcY1xpQJsIPQVda81jrKuFuW9gODhGmsYwbQ+2Azz3vI9HHv0JXnppGmG3BMvpR6pspAZFGDqA0dGebRY+psIPQgeV8gDiEPCb0zCtCJ5LDdsGgvAErrlyFPv2bcKOHdskTN3t6iIyhowF+JeVo/K1nckS0XAU/HYLVdtDOY0j1Zh6ZEvV/df/bLT+uFJLoP16bYf+up+9AFoWQ913aMvnP/Ld3y8lWz5ghjWUzBqSqAsptFAWSBbDQBkfSEUFH7ZTxCw+MSSvczY5seLvC8utnXa2n4n/b0Ze7HV/VlbgFzInSX0yA2SF4nykkHtsxMIOxT7RklFCe7yJEsqo1Spooo1JNYVutYOpIR+X/cZN8EdS2BUTsQV0whRBHMJSpuQapYqW4eEetFUihzYr1E792OU4GLokkMrTmbCAiT9afs6UNT6B6ShQPJ7EEl7FxCMPH8PXv/49lMujaPsWDLssnrx4tNJbqz1cqTpObZRLA2gdnYBV70dfrYrxk8eQph301z0B2nbjOdzyhitx8803oF4HWm0gCgLRy7VtS4qp8nukbZTbKosJ9OSFcw3e3Jasde49FrYye3pnq8B5/SKdm4X2z/a6lPsm0qG2QqfRQr/noI50AlMTn95Z9/7L+0f7n1/KuVfbZ5fnCVlhVvz63/7Tpgc+/cPftYMN/13cqNVGB3agNamjHobBsBIrGgPEZJGRx4YVjSVNFABfwPZchLLnPhBZr2JWu7EWPy/2lcVx3nKStVacMk24ePJvPRtlLrar+zhzudGsYPpsLlDKg2ZspO2bA5CIwou8XoiJShNb3rUTW24fwuEAaJFlqmJLy0a/V5H6okSz66FLBil+hdKVzjaLYESr1hF+5ZVy5GIB+Rxh6LbVpJReCY5l4OVXAnz38afxwvNHEaYlREYflOVJLppRcrJMMV9NgXcSV+SqNHqfwYKpiNsZeaUojZlOwXUi7LtkJ2686QqMjABTExGCbhv1vjKSOOBJBfpc24NlmjK0MACiOIJT5p87YsNUmQgjessJlGHB8Vw0Gm2h0OT4HFOB+wr28JqGActRiJIIvKd8jvSGXrL22b3JX3s3uql+HzkCWDqW9UrPnT281tPlkGchg+tZtxug7jkSNrZbE0+vs9Lf311b96Wb+9T4SpkTK2EcBdAC+Pb9x0Y/86kH/3e0h/6lav9/7b13lF3XfR767dNvnzsFM4MOghVEB0iIvUuUqPps2ZHyXuL1Yid5ZWW9l6yUf2JnpbsosmxRtpLINuNYjkmKsUiRImVKpESJRewACIAEUQZ1MH1uPX1n/fY+594zgwEwGkwBwHPWGlzM3Hvab+97vv1r37esp2isgFeX60ldJZo7mb8JFGqG1xAwHQEBLb3PXeHlptsvbgER5rsg0NIjYBrYtEBEruav7O3CQDvFBnH/Z8IuEoyjPtmW7UJUMzWUbuvE2gdWYzwLTOoBPIvB9pooEwI45Nmp4sFsU8EUtbCQt8dcmFRhK1wnYxpZ/1KPhvRkW4sxrshcqWLBNGQF8oF9J7B3z/s4PlgFM3rBlZxshJWurcirUpZXWC3ymKX9CJokPzL9XwG1E9XhORUUihY2bb4G27ddjd5eiFAzye+Vihn4jgvH8eATVWGoQmE6TM0ECf/UmpNQDAbTykLVNbgUonYCcIXUhAjIIELSdHrHCYUWtmFooJq1gNqJuIuQWpPixako4hLLgnNkBtsLU1G1LcC2nRqIV73KhYA2OgwVfOV1BRnf9nJ25fk+U/mXG/q792ykSZJuLQtc8Y+p2Yz1wEu8/F++9fjfr49k/98sX71S9TughRZ4EEJTPQm0rCk82lCsADUEMCXHLKepmm5zsYAE2uSe0bp6CnLMBLRXuhc7e2uSN5PcKKgbb0kztj8XfZ5YfawGvKsCXPfJLcBqBeMGyeZ5cOChoJngjgdDyEQqQrOWPFqu0nz3RYVpDLT0/ty3+fz2kOs+FWipGEpVSJVHE14gteKMDANvvL4bb7z1IRSjH4peEHnVwKHCKgWamYHCqLgponVKCrSLqmQZ1yLP3lRVOHYFnjOJUmcW23fegB3bV6JQAKqTDphCpCIkUE8kGLSfCk0hoNUE/aNokfEJXIFaw8XQcAUjY2NwbE/kyPv7e7Gsu4xCHvAouuC5MExqOyLdYQ9BGJ4HaGlUZhobKaQg1hV0EYktTgmcezzj76j8BMX4DO4j6zRHi7zx2NWG9duf7C8fnft8uDL3nM9Zftla6MgRbj3+B89+8vj7zX/daV63MahnkVFLCLwACiOQdRCKQolA5MAozBNAF6t9JdRSoL2IkU9IoUZHmfZgmB5vF59KgsvFPOQv4sIvkV2T3qoMCE7dzge2DbOBkcIorv34JnRu68RkERjVAvi6D0NVEDoeTJKYI1gRYgUUKibbc6jcF4sk8rxa3tScbDLfj6CpYNtoNJDN5BEGClyHI5vRxfd1754hvPSz3Rir6jCzXVAVXYRByRMlEgvyaAPfh5KsGhaAK3PfcWiVnElLpwhXA447ia4uC5s2rceGDX0od8q2H5WeGYEvQ9IRTSP3OWyHobPTxOAwcPz4ME6eGsKpwRGMjY7DJddWAfr6erF2bT+uv3Ydurs1AZtB0BTygLpJsChDwW1h+xalyFnfJ8H0FW0x0FJV+dRv04U6oxNAKxixOFSqOnbrh5ap/Ctry9mU33iG78F8z/I5fdUuhZ3+7D+8uuPtnx37NyVt/cfDRkHNKGV4DnGdUqiIgNYRFYn0oBErQdEQT/kWSX2XbnOwAAshgVaSBMy8xR5t0rNNMvBe4UB7vtg49TEmv8GJzyZ3OzuPLe3XNJoYUobQd/NqrLp7HZzlwKAB+NmIuEGw/ahQqaKXelKjRaYcL+nVkYe2tM0LUwwQkVe0vVoSdc/n8/BcjmqlAcssCu/w9KkA7+45ildf+QCK1QXTzAgwplBoKDJBIiEtAFh4bnH4vSXULgumgqoPI5eDaQGOW4HnjaGnN4ebb96ArVuLcGxZSOZ7DsLQh6UbyFi6IMqo14EPDo7j1OlJnDw5iMlKQ+RoCTSZKEZT4DYnkSuZuO7qFdi69VqsWKGCUsUkeEDeMgzS2RV11vLr06pviO0SUUnGIEvFUq3060x9vrME2mjBSyFsXq8i7zV/ujpj/cttfR1vbGSsNoenwRW9Swq00fBSi8/Tj77yz8Ja15c0v6es+ll4DpDJmCIXI8PH1AYQyMeMyOkQ2BLQyi+l/Eqlr7O1A9VHknj3+YF2+vdv+oPgCl/kXCAJPQVoE6aavpv8PTk/AVdzMKlMgK/QcdUntkC7gWE4D9gFwAvJa2LQXS6AVgkkoJI6UAt0YhL9JYvkUyw7cdOtXHTk1UbkE5ZlwfdC1Ko2VJXadUifFxgaAf7q8R+haRNaaNB0qrvQ4bnEo0i/G0LQXEQKErltGTOnvCgttDOiqplqORTNg+OMiDTTunXLcP2GNVizpgO5PGCZMk1CKV/SzB0cHMXp05PYt38YE+MB7JoNqAb0TAGaasr2KpFr9lCfPA0rw7Ft29XYdZPMAdt2gGp1ElqWqqYTi81zAG3blZ3Kv3x2+9HsgZakBA01AG9UJ8th8MT6jo5/9/mSeTilXTx7zZACbWST4QO88MjDP/jsmcP+P88qKza5NQMsMJAxs1Fxhaw0FOogsdUSJORyRRl7ZunrbO0hKjhntZ3rAXCFAu0sq7zkXDy3Vz/1MMl5ScVNAXyzidN8FOs+sQWlmwsY7QacDmAyqMI0Nah2CCNgUClFwlXhPYmSIKrAZ0LnZlajt2AfOh/QEg80kVdQta4g+5dqO1RNTFdNvMQ//elp7P/gJCYGR6BYBWQzJdi2D99jMKwcAvIwBdDGkZfoVbQJqMhaXajXm+CBDc0MEPIGQncCqhWgWDRw3z23o7uHIZcFajVgaJC815M4dOgwRo+PwOi+Cq6jA0yHrmXBmAnP4+CUkEWIYimDZnMUnj2McqeGm3dehx3bViObBcYmqtCszAUKAqd6ttM/LJuB2lt7vlwIcAGVUwLNhdKsHu3V1N++trjssZQNauaZvsTfkgX7+s3pwP/1X72wcf/bQ/+4ZKx7qDmhLdNQhM4syX0q5qMMG4v/pZabk42n7kQFJZF3cMGjzfTFT4TMLrj/ZfaBWQPt+UPn5zsMETroOYb9Iwdx1cdvxLI7ezHZB1Q7gVF/HJm8RWS2AmgNXwItRW8CxmRhFDEKi1aRJdpm8qRbIV4Z/qZwrR94UBVNhIfpakWhEdNEUdH4OPDCC4dwYM97UMwCioVuNOoeXBvQLcrtxh5tfI/xPJSLFiFeQB4w86BaDLoeIAgb8MO6AF/dYFjW04ls1kK9UkWlUhMtQ5Qb9QMVTZtYuSyYZlG0IBHAu015DurD9WoTKHRaCP1J1KsnsHZNGffccxPWrMmh0fCpLSLhbZ/TIInQ8tQHlyxom1qJHD3hLjioGvdghs2G3qz9bLlh/OZNK3rfSquNU6C94MQhr/b57+67+aW/2f3PmNN5x7XrtmfGh5vwbA4S0FYUKs2XvXXUAqCSrqVXT0z0s08R63xe8OQfwQ+Iyk3Rm5h8QEwF1FwuJ5r+ibCdfmLdz7a5luwxvygjFlMgRip24pxxUQu9UpHS9N7iGT2UmXqTqRdU5agbDZzQRnD737sLwdXAWBFwSyF8PRQhTT1g0AMNKhHtc2pvAzyRr+UgH/fitoUYv4RAQMxdLC4yslWUfyU5I9IkOPyhgxdf+Bk8qvbiOpqTLopdK9Bs+FLblugdo/CsuNu4srl1PPobFUkFQh+4/X/plcr0iCTUaF8DtdVw0TIoFkNE98j1KBUlBRGEWKFvw7CAfAYYHz0Kbg/jtrtvxl13Xi/ac+0gQK6oolp14AcuyuUCmk0XtVoN3d2doq1IbrEMYNveFMqWTFrtKF3LkYj2IoYrz6Pe4VAITFD1NFVy03fRCD2UVOdwkXvfXJsp/8VnurMnL24uXLl7p37ZtLHd92y9/5knX/nCwMHqr+XM/q3czuimWkLW7BC9eLbtolFpii+MbmngKuVuz90yNp2U/cqdSnO7M+pLjB9EZ/XLRly1ySPHwtrxa6S3PbeTXwZ70QONwJZ+ZN5OETy61H5Cf3MFGUK8ne31tz3amQGNk6KP5WNQH0LPzuW47rOrMJQDTit1+BlZbKWG5NEa4pXk4whoiVNZFITHRA5ztuVCAG0EfC1Vn8TFxWBH/aOUh1WA4RHgg/cH8Pab+9CcsGGVesGQhecRGFINBnmNEqinAm2MYVFUhhYugk1OAqyAt2gdooiCSUkTGYNtSNSPagOcPs81cERAS+BOmoYUMVA5Aq8B7tdh6B4sw0c+x7Bx4zW46eaVIGdasE9yKpCyxSIsX8gI8o1KpRJ58RHQ0ksL7KNyrwsALc0xMQdpyaGqouUxVikqqdzRq8PPLjfx7/tWrnzvE4zV5zwNrvAdU6CdNsCcc/XFx06se+35/b9y7PDkF7Swc7OGkpHROmBqBfBQg08FIooB09JQt0ejL9YVPlMW5PZk5erU3PbUE3kehfko1KZFrxJwWgHLKUCzIBe5pAclD15ET1SiQ6QWEeqBJPDVxN98HrMRX+gyZ/6q+74HnglRNScxaozhoX/0INzlwEGvAr+kwaPYMD3wA10WRQnmoYi8Yj7qjS/GIW7dUqJqPa73iudVq0o4aZ9olQBN9NWSw2k3gccf/yGGPjyJjlXXoVYlvucM+XERCMp+03jhIog7ZD1xNIfFuy2ijFgXt1UoGakByQ6FCHCZA65NSH5lAbTkPVOVs+xoENBO9xh6CKtj0PIaykUTI8Mn0NtTxmc/fyf6VgGDZxxksyasDDAxUUMunxFCB2fOTCCToXC5XCRM8WojTmgZOm4v0OI+7Dg1Ru07Yg6SEhTdceCL38mB6NSVQWP4+FdXd+X//Jd6ek5faAZ+lN9PgXaG0ed7ufHivhOrX31x/+d82/pCZTi8sTmpdGS1DuRzXSJX1ai7aDbrolhBrmBnLoaiisS0SOrcxWHTv+jTh0N6cdJ7i8FVhEypsIXI25e6GGeBnx7yoSbZiuj/tPAIKOeo6lB0Bb7QY53uyU63d3yRU6tThUeqqbCDGtS8i4HGAHZ87masvms5BlQPtZKCmuqLSmPyZlUhxyeBVrCkERvmuegyZ2uXiwbaZKtXVFjdcuDiNp9pJxFoKeeTazvI50wBaD956QPsefdDhKGFeoPD0EoIQyLsiEAwURQlvXkORupBkUyfbPmefkNxn7EMu0/xaolbWanIqJjgKJbvC8CNM9+uByOjw3Mc8KAB0n7wXOoNtrD+muV46LPrcWbYFjngri6gWgMazSoyGaKVVNqkG632n8SxBQWq6JJuLyKi8YyBlr52IRF3RJKJdHWBJ4vMinDfXOM1/9ENa5a9kyr1nH/Cp0B7DvsQ2L49MNH/7b946n6Ldd6hhR2bfVtdUR1zuj2HK6V8GV1dPahWq1GOJeLgjbl4o1fK6YoV47S/p7/T+nhaelaMxVTQIPo86dG2iRGmAu25ZMhm+6Rf4s9Nr1ZKshCRv+T7LaAVPpMITRJjmQGmM3iBJMGfup0DaKeAouQ2sgo5jE6cQT4PVPgoark6bv/y/aivNDCS81AhGkAS9hEsaKpgQqNN5Balrzu1xWYxzTmlEjhBpBBfQ+v96faJF20h6rVJlEodcGwpPLB392G89toe+D61+mShqjnh1cq++baUYAy01Moq/UWiZ5Wvcot+E/lX2YfcCtvGuV3iKGaUhpIMVFK8Ia5wlkehuR96DkzTBLXT2NVJmJaJTNZCtXoGn/vfbsPyVVlYFtFFSrrGRtOB59sol0twHDq+vMKpoWsZ9o+BNskoliz0pNA65WQJaA3DgKGp8F2P+oIrebv++B0ri795XzbNzV5o2qdAex4Lcc7Zvlcq5Tde2L/y5Zfeub8+gW3Le9auLhe7uxrVRnlstFrIZ3sMcJV0j2e05bmFny80NB+N94XiypRbTT4UZX5IerQUOo5ylWLFLx8exLBzWW8XAFryKASLTwSw8f8FZSBBpUZtNpHN2u4UGSX5E8c8o4AhvSeUfhgzLYyPDaOcBc+UFGfPqXe1Xb9yt1u+dX1+rKxoYxmgITkboJKIBlGOchImkAIbEmiX6DESMzVNAZJp19IKHU/LBXOKlATwPWpjMlGt2OhfXsbxAY6nn/4xalWOWiWEbnW0w8etHuJ2RzL1F7ePTOMQzcdoTNqzOf5UXJQU8XwngJnMGJIikSDFkXsWS3lMHj8O5HLoLHdiYmxM5H0tK4P62ABWXVvAQ5+5DR1lCiHXUChkkcsrqDcIYCntkGzviUPmkaSg6GOXHu30kHH8nSKgFekbHgqyDU1VCGi90PeOFd36v711fc//uIcx+7L+Di7CxS/RN2QR7mweT8E51068guLutw50v/Xa+1efGBjclDUL/T09q/rqk+qykJs5AAS29EPxnxZdThCI/oC5bNP3O9dxkn+/EOokPzvl/yzS5OKtMmnx9Ez+iAX2NJ2v6fd1vv6C+HzxK6dQJLjChLJM+2kdx0JFTaRYqDBqhOQGuFIkxhwC3DikHHqJ/NxcrLzU+1wAaIlAnh50VFEKoKaqahUIm74feE7Q9A1Tczgj4mFRFiZtp4SEgtTo2WaTFgwrZGeCSzGKSgCmNqEh9Jp+Hn5YKDF2un6MZa/tKlz12V1Zd21h+ekM8nUjBpYQBsm+UV5YCQRPbihIWxaooOlCYyPAiEK3sqe1XdE7bcc4ojT9z/Chqk2R+w4DHZlsHnYdOHhwEgcOnMDhI4PQtCJCTl9r2UPcztFSYEGFFlhSGSluU4uuSbBxJUkupp1bKOiEOtRAthyJViRRhUy9+pIYh/5G+dba+Jj4eljZnOh48B0qulKgqXXY3hHcftcWXH/DNUJpTNOpGEpHyENBaGFZdO1yUSrtE4XNo6pmwTWesM/0tsXYQ9cUBo1oOCmnH4ZnMrr+2moj/M2/VzbevdAwpe8vLXfaZWl/4kUe3VvND+zbZ50YnuxoTGjLOM8UFcbzHCzLQm5yKs1kjIppyRVReCJxwzjhCufxKw8V+gvnTBELWTJK/Hkht0leR/Qqno/nEf9Mnkd+Nj5e22mM9xcsb5L2hk4isUtcWyiIbZlCMSsS+ZT9I5xDo48xagih/cTfo+tReCj40ukNwk2Qs0UiqcTuQUhKu3OV0Sc4PRHlE4hxhethTCbrkm/qgalKyEmkTKV6StvzfC8MmMI95drQ0+4KfesaxnVG+S5RmBOXHcsE2eJqD0YzONYbbk/oJPAkPPREWDi+1LjoZcqXQVArSkk20s72Qns44M4x01R2F4rGz82MfiIMHdcjNgUFPmdBENIc42oYKi5XAk2CqRqGIWdMYZy3X3XxO4JQCRWVO4bGM7oOrV41uNcwjCKzPqidXHv9Z2/NqdevfOhMXvlYxVQMT5WLG40KYzj9CH9aVMpSi1G8woo9seQDuyUWHwFyHLKMdW7nPnRS4EDuT9cgoyPidRZTgexrqC5sp4lioQvDIzVkrLwgg3jxRwPYs+cQXI/a+SxRpCRbfTTZ6iMAi1qepEcvl4qUs4280VYL0HTAlfNBAi2R4uQF4IZCipPuhfStJdAKwPVdlLu6MDlRRTg5CaO8TKRRnIaDUknDxPg+ZPIh7rzrFmzf0QfbJYECG5msBtdtQI2K2eRiKI4+yMWRXErLCmmyn6TalKAcj40fetANFZauUB4DYa1aVf3wrf6ujj/Y1KH+4J6UbnFWODZXb2tWB/+ofIhTA9wJaMOTUFWqq6DveQSaCuHBOQpDk38Pg7MbErl/7iZFRvwB9L1MUPNc6PMXGg9lWmUR3Ue8z7n+P9Mxk/eV3C/52fjv8WfpNbkf/Z9sEl/TOz8aufqpJ17+dcVZ9sWu4tru6mhTcNi6HukGn7vY6lxFavPzdymWFj/ok0DbViWSkm1Sy1SUEUlNV04eDHklFjxXqqmQTBp58B53xUNW0f3qWOX00Uwh+FHfqvxT12/q+3Dbx9YNL9/JpFjyAm1DQzx/ykHpOHdufKs+8W/Zit6bzjgO6p6LvnJBdLM1R6ooZHOwg1hsQEroBSyEH4U/xWKKlmYUco4qlmkdR/zWVFxFdvM0me+V2rZJ3dRZ/h7nRlt6rLPZj6qnI5DhLlTy1AIOPwBMIyMU806frGHg6CBefvkdlEvLwXgW42PUZqMhW+gBD6nftgK9kJnxuqf2NsdFWe2gg/QiNShBXhZJRYAnAFd46QS0NG+SHmeycpgqkj3oagOOM4p1Vy3HbXdswvKVQMMmpZ86rIwq9HXF1gLatudPLVqu7ojzmL4C3VdFvzRtFIdzqcvIBGzPga4EKKocuVrt3Zzb/NpVxWXP/lJPLq00nuV3MAXaWRoq/djSWuDI27zjqUfe+OTJA8G/y7Dl6xoTPkzdBCPRh7OqbhfvWmOgbS1IIq9tivxfAmiFzmeC8MDxAsGpSwBLUtw+6YsyFx5rjgas/nahrH9785aVr2zZuvbINZ8iKanF2/bUeO+LZ0b+4WmN/0bNzKzwDVOwIOmBAotQ0QvADUs8lMkZkqLy8keuLXkEtASuVExF+EEiBWcD7eLdVfJMIULfhUVCtZyJEL0UWSex+ABjI3X89KXXMTRYhdfUkM32QkFWtP5oSlZ4mhONERl9aIXPI0rQ+PcpHMlSYq+ll0sAG1LomMCvrXMrQTfxuRZQTgNa2idowDBCqLqL625YiVtuWw3dBCarVRRLJoIwmjLJiudIBIWAtmlIDnfT02AmgJaYv+j9OkjBiOQAfRQ8p9LpNL69nLGv3LBy5cBORmXT6TYbC6RAOxsrpZ9ZcgtwzpXvfvXUvS//4Mjvq17XjSzIiNAxFSMvKdCKEG87NS3JN+Itpu6MvmZ0va2HpgQmVVcwMjEMDg9dywrQLd6YqA8eBWv+JNepf/f+h+7Yfdvfyp5eCqJ2Smg8Pmzf/s7I6d/ySp13q8WSOnRmDCrT0F0oolptQM9kI1Uf6ZnKXGOkcEX5hKRHS84ZFQ+J7LvsQiWyKbnfUmwSaKnXVFEYbJsUdkgQxxSED74LHD0yiTd+/h5OHh6EleuDaXRgcqwpCCWKXZ1oOvVIOjCuem4X6sk7igvVkt5spHNLs0EAbdQaeBbATp1L4nAJwg1atFGrT2c5g7Hho7BKKj792buwYpWJar2OjnIGfkBAG0V8Wnnsttfqa/J9PaB8M4WP5XsEsrSAsgMHWVOBxV0Yjco7KxX8m7XF3IsPlkpjSzFil+s5U6C9XEfuI3jdz/3x0J3PPPr2wybv21jIdMOzl9ablZ4J5dTIr40fisl6MAqbJmj/SL+45VkwkZere+PIFhSYWYa6OzZcqZ46kOtmz+742A1/ve32G09c8zFWWcqhfonz8u4To78x7PNfdzPZaypN6qtVkbNy8EIq3pEh4HZONg6RS5BJ5meFP0b2EAlAmVPnyjSpv0W+WWqZMU1ZVt1sNgUhCLVOGYbUraX+2v3vTeCtN97H6VNj0NUiMlYHPAqf12rQ8xQ6jlkyplE8tu4lnhMy797uhyI7xA0LSQ82Ub3cOkaiejgCW7Kt73noKFoYnzgFhJPYfNN12LLtauSLKgyTijTcRLFTXAglC6PkgkgWkxG9ZnuutmUBKQee0QDLaZzMOLXvrMubf4ieniO/wths1UAWeUQvzdOlQHtpjkt6VdMsQN7VC386cucTf/7aNyz0bSjn+1CbqEOnONlSbeJZE3PcJvsn2x5tu4cyZvuJXqmoRnEQWhWYRb9arQ8Njk4efWv9NT3ffuiXb39ry6e6TizVbU0/7ws2v/rNY6f/6ZAbfNLs7l1VC4Ga4yNHyjJUshblVgmZpHNKCw/5zYzFhgAAIABJREFU2qIgjA/aCrHKgpukUMdi3y9dG1XSklQcFdVRz7LIlSu60IMlXVqKKlcrwMEPhrD7nfcxNlpHxuyArmfQsCnsqkb3EYNsEsym3VGyQKr1VtRfO2PxVGL/lhRnfB7ZHhT6gKZwZHKA7Y4CSg037dqArdtXww996KLoeJpn3PKKqZhMvicWS6K4LfLMqVc79JFhgOXb49lm86VlDH+wsWy8sbOzc3Kxx+pyP18KtJf7CH5Erp9arH7wzWP3PPnou1/Lov+GUq4btQlbhPlaLDqLbQtBIk9tN1N7J9uOTJRTE20VxC4UPYQjwoJAayK0RseGqwPvW1n/1ZtvveHbdzy07cN129jEYt/K+c63l3PjzYGhHUdGav+/vnzlvZNgXUO1JrLdRZDQDBUPSW816rWlvyW82STFX5zTjqG4HQlYmjumQihi5yegJcAlakFZcE/eIgmJyOGt14Ajh0fw7tsHMHL8NGBkUe5ejlrdkdXIYpPjHFFByD8lW59mBNp4TiQiIkkCkpn0ZVt1AFStpMJr1NG7ogNeMImxE/uxdsta3P/ALihaIAqipBcdbYmFDo0R5ctpo1CxyMtGt6JyH2YQIOu6Ts5p7OkC/uv6kv7Ux3t6Ti3NSF3eZ02B9vIev4/M1fOD3Pzuswfufv6vD341g74bclZZyIlpxEW7REJtklspWQ8S5+lib02UA0U5XJm7bIMOR6hVT06Gx3+84qriX91x3817b/+l0pGlyMXOZhK9VuFdB4ZG7zwJ9v9UjeytVU3LNFSGUJOE+5LMog20ovApjphGfWtxxJhyf3FLz0VTOM7m4s/xGRHWFmQgMgpKNJeUqxX4GHUhi7YdUrJjQKMBHNh/Cu+8vRfVsQp0qwggi5Da5xP9qS2gbXmO8QUk87X0t2QP+Pny1G0vNjnXFa5CYxk0GzXkS9R2VEN97Bi61pRw+53bsWJlQdYwRJGD6WYQ4xW19Dgq4GqhAFyK0hhhgIzvI9uoH+3h4eNXW4VvresvHE5l8OY24VKgnZvd0r0W2QLUQvXkN4/c/eP/uf8/KV7nRkMtglOVJKPY2NIQJkivTfqp4t8o/yq9NSmDJoqDFBdQqI3CE+FiMHcE8I4FevWVrXdd9a2P3bvhyKXmxc40vC80+MrXPhj4tWax48tYVrrh6EQDLCOFxwm0NJKPFA9vCbhJ9UOZx6X2n7hCOaL/o4buC9GsLORcCyh8GrUhRQT6sToNVSAHPqnVUDhZg64DzQZ5toPYu3cfzhw5DbW4UvbAtMgg4hRBMl9LNxCTWkwD3fjX6TSaU0hAEqxSSVtwBVmzCNduwvEmAKUJ3XRQKmvYtOUqbN+5HE4sLDYD2FLomYr2aQFENJsOAa1KczqAGbrIeV6l2Gj8cLWe+frmbNebOztZGjKe41xMgXaOhkt3W1wLUOj4ew8fvuu5J/Z+xeS9W/JmJwKHCbm4JQNaYthwHHQUy1A1C9VKAyT/mbFy0Awdjm/DzFJV8QlwVkWugzUb7tCA40+8fuPGtX95x93b9276fPb44lpy7mejyu+nR3Hd7smRfzLKtE+zckfvmOeAqwoM0momcCDFNz+IcrUUepWx15gAIdZfFd49JEmCZFZamk0WayWQfhrg+Z5UquGUDw3I6yXuX6pGPoYPD57E8WN1hC6Fi3VoolrZgOARUXSYRg61iUmxE/1OoekWrlI1NmMIgkRYV7zZrlAXPi8R+tOmSGEJ0QYmRDVChKQJq5kIRQN9A0x1wNQGOrtNbNpyNW7cuEwCLbWXxSZO3B9FE0ySweNAUwnhadSuRXl2D7rd5Jlmff8qRfnaDeXykw/l84NLM0JXxlmXboZfGfZL72KRLEBA+9QfH7rzB4+/9xUz7N16qQBtIVtApdIADxXki52CgGKyUke1UQVUH7Y/gdXru6CY1dGB0+8eZFrthdvu2PA/HvzEroHOnZefh/BTzgsfnLFvOtG0/8W4Eu7yMpmiT3q5VEhDgEntoIK/mpikgFCoC0XFNoLIQhJbxFXKlwbQnhtsqRLZsixoqi7ytkTaT2BbrYQYHWngxy/ugWtrRJok8rFEPhI4UiSWGRbyuQ5hAyq0oj5dAkdxIJHYpgrsaSHjRA5VwC5pwAqpKjIs8bLRNUhiEwpzN2t1dHYVwWFjfGQAUJu4duM6bN9xI/qXq2gSC/E5gJaul4rXhL6wGsBTSejehcY95DzndNHzvru5t/+rv2qaHzKiKEu3OVsgBdo5my7dcTEtIELHDx+5+/kn9v6eGfZuzpldCFwK2MZKLIt5NfG5FJi6hUbdBmMarEwBYcBRt5tgOpDvMFF3hjHeGDjps7E3r72x85H7Htzxxo7PlI9fqrnY2Vjxec67Dp+pPHB4bOz/5uWuXbaiEAWyAFoh8UZ0aETppUB4+DHQkudI7TzJKljZUrJ0j6GpZ07GsCWukHIN9dkSOb9tSy1WXdcFyFGfbWUc2LP7ON7bcwBoerDKPchmimjUHdgTdUAj4Xji66ZcPdlECmPQj1DmiRYi7aKpqWkQXZfyiMTwFIaB4GUWCeSof1slUikWwHeofs7Gyqv7sWPnRvSvMOH5clEgPemz4/OCjSsk75ty7QGCwEUYNmGF7kinwn/SDeVr1/b3v/YptrhEKbOZg5fbZ5Zuhl9ulkqvd0kt0ALa7+z9PZP3bs5b3fAdyq9FTDxLdHVO00W+UBLtINVGXTwIs0ULTA/RDCdrIasd8vWxVzdsW/6tBz6z9eDlkIudjSn/ptFYvefU2BcnNP036op2XUA9tUwDV3UwTQdXdOkphckeW8rLyuRtKy+7hCArPMazbnYq2FKYlnpqCZAajYbwSsmjJMk4BkM4mtVJYHCwioGjJ3Hq5Bk4NRtMzwnAdWziq1ZBcpm0+KDjCU1hij97HmCQHskMOdhYVpNCyyoTxCYE9iIEHFcRswCe30RYGwMshvXXr8WmzddiWZ8hFjm+Hwiu41bYeIaBVSivTmBNnNFeE6pvjxfV8Oer8tmv9oTha18oly+pCvjZzM1L8TMp0F6Ko5Je09mPP86NZ75x9N5nH9/zuybv3Vg0u+G7XGgXLOVGwEoeT6hwNJ2KCBfrGer6GD0+PHHs/dvu3/4nW3Zeu+djn7fIi71imvyp5ed4tbpu99DE/1dhxmc8jhWBqiHQTQSaDo9p8JgCPwFl5EHJIikSJZCAFlLOcYmeQkJg57yTR8oTSs/Tl5KNChceLeVLKV1AUnr5nCJCysND1G97AkeOHMP4WA1EM8wUA0JHg0j7VbmfzM0GotBKVYgZKkFGEV9PBLQCXEVzsg8/IBUnGxBsT1KIKZPTUe4sYN1VK7FmbS+yOcAPQqhagFxOh+NMj/i271j0DJPUAAugBj503x7Lh96b/Vnzm6ut0gsPlljK/jRPD5clmuLzdPXpYT4yFuCcG9//+sB9339i9+9cOkBLvZeU43Kg6lTwY6PSPDPio/Le8rUdT6/dsPyHn35g8+HyJdYXO1+T5jjnmR8eH75pmKn/vO4FO20oy1xdh6ebcJgKmyqvJUdmu8eWhPtCQBeiCsQstXRAG1/XbMBW9NkSgxIVJBFtZEBatqHI3xJLFOVoqQVIVSTBxdGjgxg4egojwxPCqxWyOlR1pGgQ5cuiSIx6dq1IWXOmUaH+Xl8ALVF0glMc3oduacjlMshkdaxdtwpr1/ajuwdwPdESDCsjo8u1ekVcX5u2MeHDizA/KSr6UAIXGT+oFkL/rV5L/9Y6U3v+wVQwYL6+JnL+z+vR0oOlFlggCxDQPv1Hhx947rH3ftsKe28sUOjYJbW3pZzC1LrjwecNKJoDPeMOwGy8vGxl5vFbb73+jR1f7L+sc7GzGcoXKrz7JA8eHK41/86E721rKEq3o5uwVR1O5NGKPlvqReWATgVF4kfyIVMhVUudbTYnnOfPJBQsZzyyyF/SoiACWvqQ8EZFzpS4kj0Ui0WYhgHHAexmAB6q0DUJvEeP1lGrNjE+VkWlUkGz6YgQdJOE2YlCVC9EbWEzAy3qFSBrIF/OodSRR0c5i+6eMnp6ulAsSdzOZOmaCFgdGKaKYkmD4wQYHh5CBynCRwQp7RYk0quUpCKa8GQdO+8H+/tN7c+uyuaf+FQXu2RYyeZ5uJfscEv5lFqym05PfPlZIAm0Zth/Y9HqFhWeLT3a1i21NTXjP52vTzOugJ2itiN2jIjep5iqXS0reXodaFkXDW+40rTHjnR0Gz+95e4tf3L7J68+1Ln+8qsonuuseIHz7oGh+qfONBtfGlfVXbaeKTu6AZepcKNgOXmxwocTPbaSmlEUKauKyOUmH0Rnj0X7ys61rpqLzF7s0cay9jO9Ug8tebJxlS+xB8twMoemK2jUqiKUTHdHHi4VxVGFMrFK2XaIbEYR3i79TgVj9GPbXIBurW7jzOB4JFov7zFJ8kH57K7uMvL5LIrlAnJ5QIucYVUHVANwfMD1HSiMw9Q1BJ4Lz7VBRVT5fFHkg6X2bFx01ibk0HiAHHdqmmvv7Qzx6Npi7pmebvPQPSxJJTXXWZHul7RACrTpfLgsLCBDx4fue/o7+3/XCPtuzBnURxtCUSWpv3yMU7sCTWkS601ywranudSMoU16VB6F5ZQQJDUfw6t84EmgNU0T45Nj8H0Xxc4SMjkLjtOE7TYR6lWMe+/tzXb4r15zw5on77rz1r2bP14iL3Z6c+RlYeOLuUgC22NjtfsOjlf/ryE/2I58RyFTymNiIhAPesErrDKRy6QWFRozyt86AUGXfJ9GSRAZUYS1dTFRLjduL41E02NmKSrmiQHqFxWQj8dberUxocS5XmeyzvT8Z6KoKZpmUSp6RtPSR2iREV+/UDVK3H9Lq6DFRSwvU9QQ0yKFel91EqWmnDeE+o5GcoRCUIqORASX8kICuhBF9u6Kqm8eIhM4NX1y6CdriuYj63pWvFrI4FQKshfzLTj3vinQLoxd06POswUIaJ/6o0P3/eDR/b+jh30bczq19wT0dElQ2cVASw9uWY0sSBQSnkJMoi6gloXwVAm4EmhJEDzxeXqAETgYTLTrOH4d1foEbL8Ow9C4Xmruy62oPLL95pXPbrn7luPr1l1aHMXzPATnPRyJPvxNA/1HmtUHTjT9X6uG6jZfM0u2R1KG5H7JvGHAAymLR+sg8mbFwqgNtAQ2Uxu22kArGoMi+sYYGglQzucBn++iY0BfKmYqsdCL7idm0iJaf8kZHYu+R33IFOhNgGxIYvU0fzWquCLOYpr7ipC7o9c4RkCVx4qmijYfwV8WEJlIABW8luX2uytY8yv9pvZKT0/PSAqyC/eNSYF24WybHnkeLUBA+8w3Dt37/cf2/24baOmJJCCzdabpwNryMaboxLb9F+J2pYeWLBjRIDykhGh3066g1JUXYeLRiZNw+STK3bnThXLuEDeqP/rCl3f9+Yae4jG2kcVkd/N415ffocizPTHh3Hpssvl3z9jOLs/IrgjNDGBoRBoFx6d+zQBMVaBF7S4tKb1oYTQV+ORCKNa4FQJyETiJhRQBzBwrz6d6zgtj6/O11tC9BDT1ZAFx5MlLoE2KMkwHWLngiDxvUchOtIltcKX5K9+nDiJXLBYN6t31fagUVvbDwZyi7M0p7l/cuKznuSCLoVT2bmHGPz5qCrQLa9/06PNkAQLa733jyN3PPrb394ywf5PwaB2qsiHPVQqOiwdv9P84RNz6fUq/voRfClkG1LohgJaOQ15BrMRCrScBDDPE4MgAjIyPvjWlas09fXKyNrR7121b/8vf+fK219lHKBc726F8mfPOIyP2lmO1+v8+5Ad321bmKs8wEGgGQk7FRZLoSAklqNAYEZeU3NoRBRkVngloJcMUwdHFAK04wpQw9WzvcH4+J2ZtNN3aiw0uPHRqgRJzlEQPItMQKBOIxq/0vsbbmr+CR1qsE5n4DP1fV6kQLYTqu9BsO8w47kAe6svdZvbxHoW98bdXZE5ezuQp8zMSC3+UFGgX3sbpGebBAlEx1J3f/6t9XzF432YJtMRCJEW7YxF26twkMXb5u4+4qrSV84tVVmKpupgrOVJakZJnIskFrrhoOKPoX10M7WD41MmRA++vv6H36S/96mf+es2dOMVSxpxzjuyrnBfPNLz1+4bHf31IYR+f4Mp6TzeZomehEr8uFQe5gKEQ2E7TSxV4m+j3FJSNMeBSTrdNJiUXRnPrpZaANg+T8zyHIKA83xaq8j6VyAat5Ua0W0DFV9EBpgAtecEhYPpSyEHSKFIVN4evcfii95Yjn6WchwOtUQtyrn+km6t/02flHllhZT74dAcbX9i7T48eWyAF2nQuXBYWIGaop/740B3P/dX+rxhh39Y20MYUdxJgFdKHnUmQPQqtCbHsKEQstVHbKittIXICWg9cbcIJx5yKe/rwshXma3d9fMd/vvXja94vrUob+WczaYjU4t3JyU2n7PCXjjWbn65AvQZ6wdLUjEAGqsbVCCUSoX8ajySBRUulNQJb4eUl0JERGcQcgVYCnLyTuAp6sV/FElGoH52bSjiZl6boixRpp1YpBoOEoYhKkfK91N8bgWyg0HfBFzKOutN0M459tBvs6dV69r9tMHo+vGcZq81mDNPPzI8FUqCdHzumR1lgCxDQfu/rH972/e8c+E9m2LdtCtBO8WiTQCtX9bJUU4aGWaiCi6pkqaMab0SeQGQAXJFSdqHaBFfrg6OVgb233rXpkQc/vf2FlbfgzEexovhihpbA9oDjrByo1T55puZ/sQ7jxoCb3UwxEYg+20BUzRLACgYmsfgR0NeG3xawRimC+PdkdGKuFxlNgriZazFf2/zDibaxxH2ISxOtOe0iMAHMcmkgpQlJnD7h8YYqRWIksYUKD2GzVs+G7gfdwF8u180n17Plxz+znDXmaq50v7lZIAXaudkt3WuRLUDqPc88fOTWZx5776sG79s+q9BxS1hblLhGYBu9Ck+InleBIJ0QIKs64EododqY5Gr1w1Crv/vrv/HL/7F/JYavVHanxRhGqkh+stHoP11xtg7Wwl+uc+VmrmVXh4ZRqIQuXDEUpN9L3iothAhczn40URpAwq9U/I2z8hfj0S4Z/2PkRkuPeirQxgtA6WxTYZMcpfjvbd+XQaFcd+SVUy8tcRYrzIMGP9CYc9p07AMdGvvTlVbupzvK5dM7GYtkHhZj5NNzxBZIgTadC5eFBQhon/z6oV0/+M6+3zfC/p1xMZSQZhMbhXtlLi8ZitR1Ci1LMe4gYAiozJgTwTv90MOrAS+sCnYn6A0OvXLUzLqvb7xp7SN33L7prbV3Cy92gTN5l8UQXPRFvst57vCEd82x8cb9o03n/gnwTU5HfnmTPDYqkmIKFEFPqAoxAiKAUInTcEpvKZetL1GsgigeL+fBkbO3DZ2t6Rx5soKFitpyGGuTZlAPbRDCD0MougbP9QXTVtEyUKA+Zac5ojj1Q4bf/GFnRv9uXy536O8Wi6MXPYDpAeZsgRRo52y6dMfFtADnXH36G4d2ff+x/b9vhH03tYCWBFAT29RMF5G9G3AdT+QDVc1AxsyBKRo8x0fTrcDIegiUGjI5XrX52CHdqr56x72bv3nTXWs/XLYxzWPN9xi/wbk+Ooa+gYnxLad9+/P1Uv6+KsMaOwgYtUUrqgmmG+BE2i/aU+QViOrg+CfqNRULq3kA2l+U6GK+Pt/2dqIK48TTmLx62sRiMLGSEH8lz59zEXZ3Ism8DOewfN9VG/VjlmP/vDenP9VrZl/Z0N8xdCtjzfkex/R4v5gFUqD9xeyVfnqJLEBA+72HP7z52ccPfK0FtC7R4SUjYbLQqRVKJOJ08pIi7U+f9Dx9yglS24MGzfTRDIZ9btROON7o/g1b1/7pr/6tHS/13IShVOh6YQf6pQlePuE21r4zOvR/NC3tbq4aK0NN7wkUHT7T4YaSNYqAV/B+xeHRqB0ojjFcrPpPXFi0mLnZmMdMEEiIEoKpy8Okhy7oHmNRBrCoCUq29FDBk6+Sdx/A9LyxrON9kHWcZ7sYe3pdqTzwxb78SBqNWdh5PNujp0A7W0uln1tSC3DOle89/OGuZx878PsG77tZMkNR60PEEyFibpoE2qhIhrwCz3dgZgyYliZA2XbqcD2qBQnADHtMKzQOQK+/+uBn737kvnvLB9mqdPW/WANN3u1rJ06sqanqRjvAp5o+tjrQrnZUo0xZRhIlIF1bUWmb6K+l5dR8AG0Msot1v2edhziUI3IKem96CJxmNHEVq0yBoajE5gRGvcdEmCw8WReK7jdCp37G9ILXl+nmo6sK5s/XdXYO38OYvWT3lZ747KFObZJa4HKwAAHtU3909ObnHt1DOdpdZwOtLHKSfbBa9GAOhTC2oofQDA9Mp16IJkLeHPeC2jEHk7tvuuPqb33qc7fs792M4XT1vzQz4TnOc0PDw/1nxmpbJ/zwM7ae2cmtwprAyOSqrg9fUUWFclwUlKRcFCHmi3AXYqappbhzIlWJi6FmOr/wZEldR9VgMFXEarjnIyRdviCsatw5oYaT7+a18HtlJfdmfzl75m93dKS9sUsxmBc450VM0UvwbtJLumItQJWrzzx89OZnHt/7VSPsu6UFtK3QMXmyBLR61BJBUztAwJowrRCBUkWlfjxs2EPHSl3qOxs2rX9i/TXLXn3gH9wwwFhKn7jUE0dELKrVzpFKsHK06dwz5IUPTHjBRqXY0espmiHBVra5TNmoSpl6oeewLSXIistl0jNP9tDKntq2uAABralo0BkD8z2EjleD7w0rITuaYc3nljH7mdUrMqe/VOgfS9Mdc5gEi7RLCrSLZOj0NBdvgaf/8NDOZ76z7w/OBtqYQlFFyI1WqwiRTjC9Cc2wEWjjNS8YPqDn6i9ec33fU/fes/X9q+7vPXPxV5UeYT4t8ALnWm0UvR9MDm85XnU+F+byt9iautxVtLKvMIXAtu3BKqKwba7tPTHQLpWkcTsEPq2EL1Yyoj/7HlQwGBwOPG9UCf1jFmOv5Y3MD3otvn9jr3U6DRPP5wxcmGOlQLswdk2PugAWePoPD2165jvvfs0I++/JGr3wHQYmnpJxk0TEYaxQwROFiR0opo2J2vHjXJt4+/pNfd++975tr21d1XeS7Uz7CRdgiObtkD/lvHCqifK+gRM766p5p62oO11VWeErrDtgSl703FIwVdHFa1Js4JziddOSoHSMGb3kebsLeaBzh7alvB2198ics+wPJh1anQSOwhBmiKqOcNAIg0OK57+cZcpL+Zx1ZHW/RUIAaTXxPI/VQh0uBdqFsmx63Hm3wPN/MnDVt77+3O905699qGittkI3g0YlRDFP6joBavVRBKyObJGBGQ3Ug5GRkbEje6/e2Pv09p3XPr9z21XHVt1aGpv3C0sPuGAWeIFzq9ZE14nKeHmoWt8y4fp3+qq6nWv6KqZnOrla0O0AsLkPl3GEqgbiD6Zq3ZD6TEngiSnQxY/svhU0i5wL4n2XSQL+c21Sv/XcWxB4iR7XaKFHx4/qlahmqcXsJAQCwpZwvNDoFZXEpIfMoYS+UNgxWOjnFDaWAwa9ifHXi0x9tqyqu8sdpfF1dr56z7q00GnBJtwCHTgF2gUybHrY+bfAz54YXPbkX7z6D8Nmx99X/K4Vo4MOSpk+NJs2ND1AqcsA0+uYaJzwau7gEWbUXtl1z+Y/3bBl7cHbP7f61PxfUXrExbIA5egfq1TKE1W3e9i219cajTurPtusZLuvd1SjJ1BZITB1hKYGX2FwfB+e7yNjWYJ8v6WmKEA2FCBMRBC+qp+3mOr8ogBt0CQClBiUCVxDkigSTioXkoDUD0s/SQ+XcrP2ZBWGqsLStcBSlaoa+JOqY59iTv1NvdH8/srO0oFcwRg9XS5X/xWb1ge0WMZPz3PRFkiB9qJNmB5gsSywdy83XvizH93++ktHf6szt2aHGhZymloQHoKieghYA9XGmZGATe5dfXXPkzdsWP3DW+/Z+OHynSm362KN0WKc59HJyU67yUujjrN8xGWfanC2ywZf7eqsyzf0Dm7oSqBSvp7D9nxZHBd5sTLkrAiQpXmT0XMtgb6Zrp0A+dwbxXfpERqCMVUCbSiPKwA2etWol5taech3DX0gDMRn1NBDVlPH4LqToecOajw4mNXU10q68WoxnztT4vXK/9ndXUur4RdjVi3sOVKgXVj7pkefZwv85M+P9v/3//79L+t++Uu6WlxfGW/ky+UyY4pbH504fZKZ3qvbd67/y1vvvOW97Z/LpV7sPNv/Ujoc9eEeHGn0jAP9o43q9gnf3drgfLOrKH2+rndwRc1xVTN9rig+CRYQi5SmC9apUCG2KQXcDqCeRzj+/ECbYNKIDRNp7BLIKkGAjKGLPCzlW1ng+0rgN3gYNBSOms69YZMHuzUe7DUV9qapKqdy5cxktqOj/g9STuJLaapd9LWkQHvRJkwPsNgWeO5P9qx6f8/Q1vd2H/yEa3vLdUtnlqkMdPTkXt+887o3b71lx7HUi13sUVna832X80J1rFkad+p9k55zYyXwttd8vg5GZpkNlB0oBVdRC75h5gJNYwGjPC6DKvRc59YeJMLAQuZOhpDpKJR3pR/iY9bCMNDCsKmFfl0LgkkzDM8YjB/LqOpxSzMO5LVgN5qNkU41W3XXpuC6tDNoYc+eAu3C2jc9+gJZ4PjLPPPOu+92Ok3PdBwbxQ7VuWbTNZXrb++pLtAp08NeJhZ4lPOM22x2NZywe8x1emsBWzsZhBubXLnGVpVlTUXtaoRhhxcEuZyR54yUCeLS9Wn3eKFiKApPC71YTvqv5CgzT2HcNTiv60BN9d0hKwiOZDnfYzHsLqrGia6sMl7SMo2eIir3MOZfJmZNL/MiLJAC7UUYL901tUBqgcvDAg9znq876G2qWF0NsLPiY0c9wErbCQuAkqFWVdkvJOqmiO2Q2lcVKsKK2lplKw8bAAAAnklEQVQFl3/sxEaSOwEYC6OCKRcs9FWm2DpDxeD8uK6Gb/TmtR8XfZzSMxj9x2k7zuUxWRbgKlOgXQCjpodMLZBa4NK0wL+v8K4JE8smmv6qms+v90P9upChmzFkAWTAYQrQBahBVw05UY216qWkIC4XbbskG0U0zA51FXEGGwrqGseIoeGowbHf4PhwWQeO/RYwnhY0XZrzYbGu6n8BiS9LTDe3V5UAAAAASUVORK5CYII=;labelBorderColor=none;imageBorder=default;strokeWidth=0.1;" parent="1" vertex="1">
          <mxGeometry x="1218" y="505" width="86.01" height="45" as="geometry" />
        </mxCell>
        <mxCell id="b5N7aF0onNaH-U6v3WgW-7" value="" style="sketch=0;outlineConnect=0;fontColor=#232F3E;gradientColor=none;fillColor=#232F3D;strokeColor=none;dashed=0;verticalLabelPosition=bottom;verticalAlign=top;align=center;html=1;fontSize=12;fontStyle=0;aspect=fixed;pointerEvents=1;shape=mxgraph.aws4.user;labelBorderColor=none;" parent="1" vertex="1">
          <mxGeometry x="1362" y="486.5" width="78" height="78" as="geometry" />
        </mxCell>
        <mxCell id="b5N7aF0onNaH-U6v3WgW-8" style="edgeStyle=orthogonalEdgeStyle;rounded=0;orthogonalLoop=1;jettySize=auto;html=1;entryX=-0.048;entryY=0.535;entryDx=0;entryDy=0;entryPerimeter=0;" parent="1" source="b5N7aF0onNaH-U6v3WgW-4" target="b5N7aF0onNaH-U6v3WgW-7" edge="1">
          <mxGeometry relative="1" as="geometry" />
        </mxCell>
        <mxCell id="b5N7aF0onNaH-U6v3WgW-9" value="SMTP" style="edgeLabel;html=1;align=center;verticalAlign=middle;resizable=0;points=[];" parent="b5N7aF0onNaH-U6v3WgW-8" vertex="1" connectable="0">
          <mxGeometry x="-0.1469" y="-1" relative="1" as="geometry">
            <mxPoint as="offset" />
          </mxGeometry>
        </mxCell>
        <mxCell id="b5N7aF0onNaH-U6v3WgW-10" value="" style="shape=image;verticalLabelPosition=bottom;labelBackgroundColor=default;verticalAlign=top;aspect=fixed;imageAspect=0;image=data:image/png,iVBORw0KGgoAAAANSUhEUgAAAdoAAAD4CAYAAABL9ycmAAAAAXNSR0IArs4c6QAAIABJREFUeF7svVmQXcd5Jvjl2e9SK7YCiB0EQYJYKe7gvsgUKVFu94xnep7atux2y9Htlid6+qEjZuahJ/qpYyba4e5oi5poz4MdtjZqoUiZuyiJpCiuIEGQxEYSa+1Vdz1b5sT/5zl1bxUKQC0gUZeVR1G6RNU99+b5T5788t++T8Ac87LAb38yufLMh42rwpqzI/C6b6tWo3sBax2AEgAfgD2vDzRvNhYwFuhQCwhAWQCs7JUuQwBQ+npEIoPAierNiSiVUdN2khFhy7fKJefpzesHntn1P+OkECJ7c4eawAx7ThagWWGOOVhAvau8QYW+waPYdvbTibvGR9ObZeLskNIeAKxuAM4cPsa8xVjAWOALY4E2oKVrYtDNDiEBSPT0emEYxa5UYdNxVQWIRhwHH/av7PvH1eusZ7Y+iONCiOQLYxJzIbNawADtJSbG0GHVNT5Y3fDxkdGdY8PN25sVa7+MnS0qcQYEPN9xC3pHaw5jAWOBZWiBHGzp0meuAxIQElFcg1IJPJ983QRJWm+6jnO20CPfWbMh+NuVG+y3eq9ed3JgQNSWoQGXxSUboL3IbZ48qVYcOTix7+Tx8a+fOTF+oFkTmwKn2FcMuqyCV4DreKjWIyhhgHZZPC3mIo0FLmiBdsDNQVfCsoE4bkJYKTzfhrAShGEDqQwBJ6w05ND7QUm+sO26jU/svXH7wd5NYswY+YtnAQO0F7inp99VG4++d/rA0Q8n/nlS825FUuwu+b0o+AEgE8RxA2maIlW2Adov3nNhrshYYI4WoBBxuzebLakURhYSrusgSSIIS8F1LdiOQJI0kaQxUoRwC4kcq5074/rqla3Xrvv/rtu/5eW128XQHL/cvK1DLGCAdpYbNfyBuuqt10488NHBc39opStuQ1JyfbsbBa8ECwphVEMS16GEhBcUDdB2yGQ3wzQWuLwW0KHhqSMvjOKCKH0kSQwpdb6WQNa2dbGUQooUMdxAwfGByfrIWCMe/s2GrQN/c+CB659fvUWcvbxjNZ92JS1ggHaG9QffVQPvvfPJAx9/NP6ntVFx21Wrd1hxw0WaCFgKkEpCpiEcV8H1HTTCGMpY8UrOYfPdxgJXyAIEtO11THn1cSuVJIQFy8oXCAmlFHu3QggoS2FkbAR9K8pQdoShsU8npV19fceudd++af+1z6/eZcD2Ct3Yy/61BiLaTKpOq+Kb70zc/vYrJ/63qOLdu6Z/qzM5FgKJA8ty4Hkee7RJGkGpFMIGpFAGaC/7tDQfaCzQCRbIgZY6dPKldDrYSqngOA4Da5omSFPybjXQSgF4vo9aowrHSxGUBZrJ6EQixn957e41f3Xgxk0vinWi3gmWMGO8uAUM0LbZ553nJ69977WT/z6td3+9MW51lYN+QEpwp5tIOfyjuLKQzGaBHxlLPzjmMBYwFlhuFrgA0JIZplp98vUis01bCxABrbAcSKRwXIFUNNEIhwG3cmrDtq6/u2bnmr/ZdmP5PdNr2/nzygBtPv/PqtJLL51+4MR74X+w4hW76hMKveUeyLQBiJh/FIeJHEjlAsrVuVn+nQHazn8UzBUYC8zXAnmOdmZB1Eygpc+drSoZsD0XURzrcLKdIkoqiDEuu1fI11avd/6f/Q9e87MVK8TkfEdm3r+0LGCANrsfpw7WN7zwzJF/Uz/X/S8L1rpCYyJGb1cRKQGtRWDbhLISSLhQyodUBUA5sERkgHZpzWkzGmOBz9ECbcVQs35rnq+d0W+bVSXbno1mswmlBNd8CCERpiMQzsSgU558/MEv7/+Pa/cXTnyOF2S+6jOwgAHazKivPndy7yvPfvwfisnGr5acq0BA21XyICUBbR3KbkAKKmZwIeFDZUArEHHe1hzGAsYCy9EC+RLavga0g28b0E6FlPPfSUgrRhzHHCErFEpwHBtRWkGKkVT6Y8/dcGDT/77nnv5XTfi4s+eWAVryR5Xyfv53H9z37lvn/mO/v31fIFYhrgCeTTtM8mZDKCtEaklICh0LF1L5sJQFSyUGaDv7GTCjNxZYoAXaKRjbW30IdGd6um252jxPK1Kkos7tPwJFOHYBFq8tIZQ9CcufOHjVNvf/uPuOTU+JDbQQmaNTLWCAFsDJk2rFL3765v8y+HH4b/v8LRtEVIadeFAx4DiSc7O086S+2VRYSIUDBRtCWXCkAdpOnfxm3MYCi7OAAKSnPyLjNm7990ywncWztQhQaSMvgbQMJQOo2IKUMeA2YBUmT3avav6nex657r/3bRHjixurOftKWsAALYBDbzQ2vfjMa/9O1Qq/X7LWrIiqDrq8lWjWY/jUTQ7JYWP2aOnZEkAqNLOpIyVsZULHV3ISm+82FrgiFlA2oAhoc8WerAqZQTcD2pzQYloVMiMzR8qEV2PyChF3QyYBVBow8KZWDVKMjXvdo3/zwFdu+L/W3mDYoq7IPb5MX2qAFsDLL1aue+X5N/7Pklj5NT/tKdTGE6zqWYNGNYLtkPqd4F7Z1KKe2YRBVx8SjiTANUB7meaj+Rhjgc6xAAMtiXbRlrutArkdaKddTTsnOgFtDMtpQsoEKi1AIIBrl1hoM0mbaKaDjdQ/+90H/8eb/90WQ17ROfNilpEaoAXw2+cnr/3Fz977T/3B+odF6MFRDpRMdI+bKiClSmNhQYkUQjQJdtmUlqGE6ujJbwZvLLBoC7RL402FkPNPnbkBn225nf4eytbSskJrjbSrkVMc+/GB+6/+1vZbiycXPVbzAVfMAgZoARBRxfNPfPCXvf6mB+zQgkWTXcYQto0EBLR+xmesgdZGDCFz+Vn9YJjDWMBYwFhgXhZQFgTleKmbgetANCmOZBIcILXrsVsYf+KOB3f966tvFp/O67PNm5eUBQxEAHjjF5Wdv/jx+3/Z52++zwDtkpqfZjDGAl9cC1waaBO3MP5TA7SdPwUM0AJ4+/nKruefOPyXff6mewzQdv6kNldgLNARFpgD0DqFiSfufPD6f2U82o64oxccpAFaAAd/Ud3zzI/f/8/9/qa7ZwJtrAITOu7sOW5GbyywNC0wB6B1i5MGaJfm3ZvXqAzQAnj3pereZ370/n/u8zfdZYB2XvPHvNlYwFhgoRaYI9De9TvX/+ttN4pPFvo15rwrbwEDtBnQPvujQ3/Z62++cybQRtI3Hu2Vn6dmBMYCXzwLzAFovVLlCQO0nX/rDdACePP56r4Xn6BiqE13GKDt/EltrsBYoCMsYIC2I27T5RikAVrK0b5S3fPc9w7/Vclae4fVFPBdD1Ck1ANIq2Q82ssx08xnGAsYC0y3wKWBNrbckSfv/eq+f2VCx509eQzQ5jnaHx/+q7JYe8AAbWdPaDN6Y4GOsYAB2o65VYsdqAHaqRztB/+lZA3cboB2sVPKnG8sYCwwJwtcGmgjyx15yni0c7Lmkn6TAVoC2l9V9z37ww/+ajagTUXRhI6X9BQ2gzMW6FALzAVovdEn7/vqPlN13KG3OB+2AVoDtB0+hc3wjQU61AKXBtpQENA+vM9QMHboLTZA23bjyKN97vH3/0tRrLttZujYcB13+Aw3wzcWWKoWmAPQ2v7Yz+59eN+fG2aopXoT5zYu49FmHq0B2rlNGPMuYwFjgctkgUsDbdPxx5+45+G93zJAe5lsfoU+xgBtHjp+/PB/LYmrbkXTRoHbe0JIJZAIH6nwoDJxZ0s0YCkJW9p8y0gE3qj3XKHZa77WWKCTLUBAy3q2gLIiFovX64nUsvF2LbSC8R9/5aE9f7H+VmFk8jr4XhugJcKKX1X3vfj9w/+1y9l0K5ouXGFBqhCWI5AoDylp0ZK4s0hgIYYtAVu6fNtTlrjq4Blghm4sYCxwxSwgcj1bkTDQKlJ9F5J7+JVdjRGM//TeB3b/+dV3G5m8K3aTLsMXG4hgoB3b99wPjv+3XnvTzQy0IMH3OizHQgKHgVYfEkJkQJv6GmgtAlqtH2kOYwFjAWOB+VhAA61kcM1cW/0iyKOtxpY38pM7H93z59uNRzsfsy659xqgNUC75CalGZCxwHKxwCWAlqqOf3LXo7u/ZYC2s2eEAVoSfn9pbO8Lj5/4bz32xluMR9vZE9qM3ligkyxwKaC1/NEf3/m13X9hgLaT7ur5YzVAy3q0o3ue/tHHf22AtrMnsxm9sUCnWWAuQHvgkd3f2nG7ONVp12bG27KAAVoA77xY3f30jz/86147K4YyOVrzjBgLGAt8Dha4FNCKYPRHdzy8+y8M0H4ON+Mz/AoDtADe/lVl19M/+Oiv++xNt5nQ8Wc428xHGwsYC0yzwKWAFv7I43c+sud/NUDb2RPHAC2At35Zuf7ZH35EHu3tBmg7e0Kb0RsLdJIFDNB20t1a+FgN0FIx1C9Gdj79/aOP9Tmbb7MiH77lIZU1CFsgVrZp71n4/DJnGgsYC1zEApcCWuUMP/6VR/f/xcY7xGljyM61gAFaAK+/OHzdMz84RkB7uwHazp3MZuTGAp1mgUsAbVM5wz8yQNtpd/X88RqgBfDb54evffZxBtoDBmg7f1KbKzAW6BQLXApopTvy44e/tu9bxqPtlDs6+zgN0Bqg7ewZbEZvLNDBFrhU6Fi6Iz8yQNvBNzgbugFaAK89N7TjuR+RR7vlDuPRdv6kNldgLNApFjBA2yl3anHjNEBrgHZxM8icbSxgLLBgC1wKaJUz/OOHf3f/tzYYwooF23gpnGiAltp7Xhq65uffPf5Yn7v5TuPRLoVpacZgLLA8LHApoIU7/JOvfH3/vzFA29nzwQAte7STO154/PBf9zhb73IiH67tQsoqwO09AhIOFCv4SAhEsBVgpx7f+ZZ6T6bCQXJ6LHJlXo0dzDwwz8HF1gFAKMAi8VmRsBYtMtk8ZUlIqx5Jd/jJR76+/88M0Bqg7WwLEAXj85PX/vx7Hz7W4249YDc9uI4DqAqkLZEokslztE4kPQ8sk0fC71qwObW0UDM/IObV2MHMA/MczHEdIFy1WPydZPISXke08Lveoiq7HiEY+/n9j+79phEV6GyYMR4tEVY8U9n5/A8//HaPs+12EXrwbQsSFSg7QczC7wS8Lj8ItkohkEwH2s6eA2b0xgLGAlfAArT42tKGUArKiqZ0rWnzLoWCtBuRCMafeeDLe/7UCL9fgRt0Gb/SAK0B2ss4ncxHGQsYC8zVAnMA2lgE408boJ2rRZfu+wzQUjHUcyPXP/v9E39tPNqlO1HNyIwFvmgWmAvQwh995sHf2fcvjEfb2XffAG0GtM98/9i3e53tt5nQcWdPaDN6Y4FOscBcgFYEY88+8OW9f2KAtlPu6uzjNECbe7Q/OP5Yj331rQZoO3tCm9EbC3SKBeYKtA8+tPdfbLtTfNIp12XGeb4FDNCSHu3zo7vIozVAax4RYwFjgc/LAnMCWn/suQe/svdPDNB+Xnfls/keA7QGaD+bmWU+1VjAWOCiFpgD0CYiGHvuwYf2/rEB2s6eTAZoM6B9+rtHH+txrr6FQseeRSQVpr2ns6e2Gb2xwNK2wKWBtpkIf/SFe762/xs7D4iPl/bVmNFdzAIGaImw4sXR3f/490e/bYDWPCzGAsYCn5cFLg20jdTyxl6456H937juXnHi8xqX+Z7LbwEDtDnQ/sNRKoa62Xi0l3+SmU80FjAWmL1A5hKEFanwx1687yv7v3Ht3eK4sWHnWsAALYCDz4zu+fkPj1IxlAHazp3LZuTGAh1lgbl4tMIfe+mBR/b/0TV3imMddXFmsNMsYIA2B9ofcI72JuPRmifEWMBY4POwwByAVhLQPvi1/X+0/YA4+nmMyXzHZ2MBA7REwfjc2N7nvneEcrQGaD+beWY+1VjAWGCGBeYCtJY/9su7Ht3/R9ffLo4YA3auBQzQGqDt3NlrRm4s0MEWmAvQCn/sV/d8Zf8f7bxbfNTBl7rsh26AFsC7z43tfYo92q03iTBotfdYEjFymTxX69FOk8mztB4tyeeRrNVyfFUWy3qRruaCXrHM7dfh8+ZyraDL8fkhaU1Sq9U61wm/ku61FPQKpHZdIhj/9f2P7vvjHbeLw5fL1uZzPn8LGKDNgPZJ0qN1Nt+IpgdP2EhVHcpSUI6f6dFqNGHhd0k6kh6EElAkZ7WcZd6VYA1NEq9e0Cs63X5aQ3TB169IkrFz5dFZi3leh4aW/KANGh0Xk0fvZPtc6roilcJSEjYS3qyKXPhdSCROHaow9tJdX9v/p7vuEofmZWbz5iVlAQO0AN58fmzfc9/98NtdzuYbRcOFazltQFtAKiwQxELkWrRtQEu3M18tltSt/ZwGo+xFfFG2SHe0/eYLNDPNNR14FmHMz/1UvnLyvub1zdOv157fyfP6pqX+ZrJfiJg9WU9KWLyBz3xcASRuFbIw9tLdX7/+X15/h//eUr8eM74LW8AA7SWAVtqBAdqLPUHLHmiX7/KSbzEozDn3Y/rGxM6AZe7nf3HeORegVYWJX977ezu/ed3t/sEvzpUvvyuZ1yPyRTXPxTxaA7SXuOsGaL+oj8Ulr8sA7SVNdNE3zBVo73t0559de5f/zuK+zZx9JS1ggPYSHm1qUY7WhI4vOEkN0F7J5/eKfrcGWqpTmG0YF4oJG482txZZIhK6COpCoWNVHP/VfV+7/psGaK/oVF/0lxugNUC7uEnEq+xC84xyeee3F2f5K362AdrF3YK5eLQoTfzq/kd3/dmOO723F/dt5uwraQEDtFnV8c+/9+FjsxVDJcIzHu3FZuj8EnTnf1JHF0JdyUf3yn/3FNC2b7TOq0Ke6dkaj3Y+Hi2KE7++/+u7vmmA9srP98WMwACtAdrFzB/dPLuYwwDtYqx3Rc81QLs4888ldGyAdnE2XipnL3KVXCqXsbhxvPHU2N5nfvD+Y2Vn041W0+P2HokGYAPGo724beM4hmVZ/GPbNoTQU0opNfWzuLuztM+m682vNR8p/Tu3Adnki3oQUAiqXxD6frcf2TQ47/eUj2w/lnvVcWyll2jvGX35nt/b+81dB7y3vqjzaDlclwFaomA0QLvguZ4DSTuwSimnwMdxnAV/diecSBsNAlvaaOSbDBp3vvlIU1pIv5hHe9UxAW47N9pM4G1ZwABtbguyxFyA9t5H9/7Z9Xd7b34xZ9HyuCoDtJcA2hiuydFe5FnwPIdBlcA1/2n38C7t0S20kGppPKBKpezJE7DS9SdJwq+5h39hwMnH37nXT0DBGwlLQQiKZpBXa4Fsks+B8++/IaxoB9qEaOYuUnWcFsZeue/RPd80QLs0nveFjsIALYDXnxnd8+w/HP7ObKFjA7QXn1q0qGoO6NZCy5ytnLu9FHke+34LnbtL4jwpE5DXngMtebgEtAQw9Hv674sfnXv9HDq2iEIzBfH2zjzysPr03xugNUC7JB7dz3UQBmhbQEs52ptm5mgN0F5sPkrEcQjLBmzL5VcBG1IlkLT2IoUlHKbp44V45it/NC28nQs2YdiYAlW6GvLkCGByoA3D8IsLtELCcYirOUWa6pw8Hfn102sSz9xoGKA1QPu5YtyS+DIDtADeeXp091P/cPixsrvp5plAGylS7zGEFbPPVh32Iq+GFtXcgyEvjkKK9Oq6pHp0gYO9oM4GWgIaOtrz0u356i9y6JxUZtI0ZqBtpQt0rjr/oQ2Y8Wgv/PSkDm1OLsZ1PPqyydEuCaxc1CAM0OZA+93D3y47m24xQDuf+SRh2RQm1qDa7tG0A++FP9ECFBVLda5HWyj47NVTbpb9c0tfC4WQ6Xe+71/EoJ29ySCgjWOqzldTeWqKXOiNlvZwpzZaU6Fl49G2e7RzAVpTdTyfNWlpvtcALYC3nhu5/qm//+A73fbmW0RIMnkuJGrc3hOR3ipr0mqZPFtFLNZjSy+jn+ts+ZFcgYVk3vLWC54UU94m9W5kiyPrZKYA08alkFYCiQSxjKHSmPwaOAJwAx8Fz4flOqhXqpmMHIUYtf4mv/L32RDSAZjGMf+dBp/29tr2Vt1WIFJPXbo7Cz+0R66PDPTOY7rK2avoVdPlSR4c/VuiGTUQJhGDShB4KHcV+drp3wS0jUZDfzbbUGgZtGm2zTYa2d95JPzf2bjy75q6yOxe5EZZZB/ybKe37E3XmtmI733runm2iBSOJ+D4FjzPY1Al6UjaZERhwq9xnELQ/eVrarvXMr/PefsTzYrs89vuidY5JptlS1U2YJ39l3MQzsqBPTt/hn4yKXLRNS5E5vDiG0Qtn6iP6eHzdt1maZHNJFwqoFP0M1O9Z/Tle76695u77jXtPQt/zq/8mQZoqer4mZGdT/3Dkce67M23WQ0XjmVDqUneqStmhqK+Wr0gWIjp17B4odDP/2I5G67UNODHn1YYoYWnLdCiqDUxLV4cPURNAd8rIhUpwqgK2HUUuixIu4ZaNIFqXEX/mn5sXL8OvSu6EXguJWwRuDYcH0gjvcbKCJioxBgZHMXps4MYHRpFoxpjTf9V8FCAlILf61kFeE4BaZygXm8gCPzMxpIBmmxNo80XOZsWpwWDLQFnU7fmwIOAD0vQjwulbA6LClshlQ1EsgYl6vALgONLRFEDE/VxXLdvJ4pdRZTKBVAnk+fbCDyqxlVoNpto1CLEkUR9MsLI8CTGhmtoNhI4dgG+X4KSDpqNFCqxEPhd8EgtKk7pA2CTbtrUxkYv1rTpY4hROiRrkWD4AsGWTmvUqyiVSnBsD2EY8ebAdh02b5Q2YXsKsaojlnVI0YRbsNDf343VA6vR3V9EV18Blge+ZsoS0GfGERCHADn5tYkQg2fHcPrjYdSqKVyrBN/thkpFNrd60aiHgGog8C04doSYPkApOLYLSFtfs7Kz50xvdEgHV0DCkfyYth2ZnVhJnkTU841NDvb0ebSRo7mUILWbUJbWgm0HwLn8mzeH0ubZyEPItKm5FoFF3PVmLN+Y6XVCi7rzLaN7qAIIacNVsdalpXUlkx5MnBqa/vCrv/M/3fyNnQfEu1dqnTDfu3gLGKDNgPbJ7x75f7vF1ltEk/RoiYSAgDaFEiSTRw+6yztUmx4IWvK/IECbLwbTgZbwlxYBD65dxujoKBKVoKvPhbKrqKfD6F8ZYP3Va7By/QoUujx0dQGuR7lKQNJGxAKIqyEK9e+oCySJgbAJVCZDTExU0JhMcPzQp2hWUzi2j+7iCsimQHWyiaLfhYGBAYyMjEzb0FBkQQOu9nptRRuEhXq1CSwrmgLaJLaQJgS6DmzbheUINJqTsLwY0qojkZNwiwmuWr8SG7cMoH9NEfABh8CXpgj5bBbgEAZKCh8DrqVfm1VgckxhZKiKocFxjA5OYrIaQ6Y2ysUV8O0yg1NUp2uikjIBJWM41P4hEr1o84KuPcPLBbRkTR3uVZxXp5yy7QoGnyhtoCmrsP0YpT4Xq9f2Yu2GlehbGcD1QRDP1y64GC675wpcCEcfS6/NioLrCMgmcOaUxPGPTuPc6TGksQPP7YGQ3bAtj++DTBpIkio/X7TZdSyXNyKUXlCYAbQZODrSAnfIMNC1IhS5vWS2MdEedQ7atOzRhiWBskK9mVnQYTFITh25Ni+jaJJFAzLNXgLhDGin3q9oQ1dg0G8BbUvjNwPa1776+zf/wfY7hNGjXdA9WhonGaBtAe13usXWW5cb0E6tUYqW8IR35xTKykOptOTTohunDaRWE119Ams39WPd+j4UehwU+wDahzAI0CIrFciJsCyqvNULMAENga1ja6+HFmCKqDZrwKmjk/j46GkMnZ2AIwpwVRFxQ8EWPsqFniz3qRViOLCYRRAIbOlYnEcrYVE6gBitYCNJFMJI98FSf7BbcDBRHYITpAjKQN8KD+s29mH9hl6Ue7WJQhqUrTcXcUyeUQzHtWALnassBj5vMOiayfOi14lx4NzpOoaHJnDsyBnI1IWtAvb2kPpQIY3GhufaUBQKELThawdagqIswkL3aoEeLdkv8AI0GxGSNILlELuXQipiJKqOBA24gcJVG1dgy7VXYeWAgE2bKUoPuOTZA02dmuZ7Q/efrpGyLDn8uHS/CMtD8p6B8WEC3ArOnh7C+GiEesVBsdDL15pGIdIk4k2GjipRqJ2AljZWYmo71fJoKbJEodccZNtD2+1pgTz8nIev9bJHAMexkYXu07KUwHkh4uxekYfaAuHsS9rCX1RkmVD/NdlzyqPV15KS8LtTQ+QN/earv3/LHxqgXRqAudBRGKBdxkBL6JXI3DvUYS6OJFNfJOcgE4RJDaWegBdc20+w8epVuG53N0rdwOgkIDwgliFUknKO1rVszs3Sq7IoHJwiJnSh1K5twye0JWCKdYjRE8DECHDiw3M4fuQMGhWFktsLkXqoTUYol7s575evT+1gq4F2watkttgKBlkGW0shTkOECRX4SDgBAe8kelcVsG5THzZsWYmBtYBXBCo1hZGxYfT2reCFkvppKdRM4Xf2CnkfYDGIpTHFJR0EfgnFAn2bBp16DThxfBLvv3eCNxp95QGUvD7UJmI+p6fcA5nEHCLN86O5HVqpjEVcP3nOts+bGUFenUP3qoFmUoHtRvBKCjt3bcGaDX0YWK+BdaIqUalPwPUsFIolJNLRQEq5axmxN2rTJgu6Er3gFzAxVkVYS1Au9GJFj77vx48nOHHsHE58NIIkpuiJjYJfhO8EIJSh+aENS2HiDMw5bdD6b855Z7USDPVZDl17qBRSp3e326eVp+W7oxw4tMkhr3kBB386jWmGpzqVFc6+WgO5/i3N5fwgMA0dhdSSswOtW0XkDv/mq//DLX+w/S5xaAFDNKcsEQsYoF32QEuLXF79qpcxS8SACCEtWnRH4RZTXLWlH9fs3ISV6xx+e6oIeAVsWpxTCvuR1wXY5N5aevVJyY0lzmP+TAFJ/03VyfxvxSHasAas6A2QNoBDB8fxwbufoD6uEFg9cFCASmgR1EVEOg+mz1+MFzf17FEeOnVAnBvUheIVaHmuoxFNcF5SeBFWrSlh0/Z56dOhAAAgAElEQVS12Hx1H3u1zTBmMPIDwUVf1CdKI9JV1nRNdMkphMxbXGykseT30Z7AEp62Eb1PCs5tHjncxJHDJ1EZi5A2AsQNARV78GwfLrmQfOh8bZ7na60fi6jYVgKp8tiTtewEkaygEY/D8SOsWVfCqqt6sO+GNWhS6B8xLFfCD+j+Ur6+wblmz+/LQERvzDjPT/n+zNOm8jeaGyJ1OT3gUVxdAdRe3KwDhw/SBmsQI4MVlIIV6CmtQhpZSEPJ187V3AyY+toZ1DIPlzYvEm4WTtcbRb1JpHN00R4BfxYLaZks8zhtGlNCoduFAS2NJyXvkyI4GajmwQXtKWdFfVzzMN2LpmsgVqjQofNTA7RLBBA/q2EYoCXCiqeHr3vqe0cpdHzbcgod08pFC+30FhtasGIouwZpVxHKQVyzex2u37sZPauoQEahHjc055NNwEJVtXqVscibFQ6zRHGuVhKhgWZNopwteX0UoqSKXB1adhDWJTyrhMB1OD/56dEmDr/zKUbONuCkRQROFwTni3WYT/s0uoCLw5XMsbvAQ7mw0gISqox1Izh+gtiqIJRjsPwQxR6Bmw7sQ99KD+UeIJJAtTEBqZpwfJsrbcljp+skoGVeZ6kQRbHOd1L41/OmOJCZJUpq75xCy7blQyYuAhcYPAW88doRnDo2Cs/qRcHqRdKkECq1B+VVyBIqI6E/r1p6ASYgr1gpF7bnIFVVNOIhWF4Dazf3YsfOdRjY6MNygDiNEasmLEfB8+l+CiRJhChKIUQ332+6v8KigH4CBapCp8K6mDdYfKQ2ZEy2out2EXhFJruoTgDvvXMWHx06hWbVgYM+IPbhwkfgFbh1SueodZQlL26inC3lXxUBLefr8+rorCpe0Pfn4N8C21aYmcLODoT0dVX0lI1zW1/6lcL5CTFjifOBlmvMOfSt5ydXEzPw5kuuxeHh2JaQBLRSb1I435yHjjOP9pF/dss/v+Y28f4CbrE5ZYlYwADtMgfavOUiLxrRxVEhpDMJ6Yxj3eYibrh9K67aAgxNhBivjKO7tweOG6AyMQHXTbmXlgDWshz2UpmOkQOkFlfe5q0wgkFCh/hyPtyS34VKpQ6VeOgu9BDG49MjCgffOI5Pj45iZfdaWFJXZuZAq31bKjbRxUELBlsCmbSLQVHZdUh3EiFG4QQabDZcvQpbd/Rz0U8iKW8Zw/EFbzDqzRpqlUmsWTWANKI4JxVEeQy6BLTkrTq2jVqtlvEe08bCgkshakfoELvlYOjcJPq6V0PFwIkjkzj2/llMDEtYSQl2UoCMydvKPS4KIefeWqSXENooLbAPWft/HixXIZJjiDGOgQ0FXLdvMzZscmEVgMlKBV5gw3VtxCpGs0kFSwk8uhY3QCoDBhCby9XbvMmMmtN3XITNJs8DCzaHz32/wB5/nAoUPR9jIxLHPxzFkUNDGD8HuOhFwe5iZSCOS4toVqDlAkUC2xxop4qh9BzLvVku+Mp+suaZbPnVLWeMfbMxl12I0Sz7vbTyzV5bgCXzlrVnm7es5e1yOi+sD8o5c9kXA2sOtHmbHc3txADtEoHJxQ/DAG0OtN8/+lg3tt6+rDxaftyzKtasfIVygRQyJqBN3XH87u/fAPgJ4IdIRZPzsEpQxWiZw4gyrnHVLxWupKlEHCku+BHs2QruraR2Dcpf2o7i3B4BcxQ1EUUh0zWWSz2wlY+4aSMQRY78HTuU4uAbJxDXbNhpISt6Ia+WlkYKT+pFjlm7FurVZkDLzEZ2FYk1ioY6i9JKhb03X4P9N6/CycEabE/HBqMkZFpJLpQKPDhU8BRHiJuhLvbisKiFJCFRAYe9Wd91GJjIk0/Zw1NcpZsXnLlOAbWJCJ5dRsG1cfJYitdeOoTRMzF6SmuhIvK4KOqge0I00FJon4CWcr+5xzv/xYDgJ6Z4tpuyF+8WG7hm91rsu2kAfhk4NzyE/lW9aIZ1RFHEmym6JspByyRC2Izh+l2adpKFBDLea0vXRlPOm3P1XCWn5wjNON3vpe9gHNXR37saE0PAb371KY4fmoBnrUDR7kdYb8JxiEN7NqCl0m4C4pkyhLo4TANdXjKX9dvOEKWnuZ5aCedIF3S0kXC0e8p54dqFPlNbh26fw9EaOjcvhmoBrUTi1hG5Q68+8s9u/QPj0S7oDi2ZkwzQAvjtz4ev5fYea8ttduRPtfdICqF+gdt7aBZS3+v45ARKXb2I04QriCM5CRHU8dDXr0fXKkpjptw3SyEu3bVKgKL7OG2ErSrljOVJF1tqL0xLx7X3g2YeWfY7At+oGerCKKuEcrACKgLOnABOH6/g6KGzqI3F6C6uRlehhOrkJDyHek5tTExMwPKLiwJaFXkQxG5lT8Ip1zBaP4Y9t1yNh//pNhz5pMqASp4LXXe71q4uHMt+shaZFumFJqdoHTrULbMcJhMk5GU9yuLCJwcBfKeIuAqcOhbiw4Nnce6TKsr+GggEUAlVResKZNuRsD0qYKL2Kc4GXnBBuZh6EI2jQfnmokBTjeDG267F1utKaCRVlPs9hElVh8MZ0PRrHvq0siI0TWihySPaiRm0F5kf5NlNJ+rQfaoEzHWu9i57KxhsX37uLD7+aAxdwSqUgl4069VWznVG6Jj7vbPq4fMMkIVoeVNAEftEt/DkkoYMwyKBdGOusj5fT1fn2Ov1+jS95VwOkT+HWvxoz0PtUbzZpB0mhZJpvgveaHBBIHF/E1tWLjBha+1mytdT/zR9zoWAVpUnfvPlr+/9xnV3+weXDGqYgczbAgZoc6D93keUo719eQEtFemEcH3tdVm+jZRCsnYN1+y5Cru+1ANBRaBOBGU3uMVE5/XIw9IeBQNtDjRTuS6LQ6d6YcsLlzJiBa4MzUkWtHdGXiKvUfAQ2D2wpIf6mG4FeefljzF4ugZflblqNW6E3KvquQLVahXCKywCaHUxlLASKH8SkTWEgU0+rr9pK3oHCpA2hadT9ppz9iryxnJQoeAfeab63y32p9mAjz4nr+RuVcNqOT3K89JHFOxuONLB6BmFw2+fwYkPRzlnacsyLOUxCUYqIwgrgnCoBxhIkzy/OPuzf3GgTRDbdTTScWzY2ocbbtuGoCuFcuvoXhFgeHwIBaoAI89L0v0mD0xklek6fE85Y82sNB1YWx1HLcYtzXrUxtTEnuokX1fBWYW4Arz/Zh0fvHsWYc1Bwe1m4hL28jJWqqliKG4C0u1d9Cf67Pxv+ju056z1gPUmiavBM0lD5hQTEWrxBCRFB7LQMXcwE3d39hrQRo5Y0OgWZWIZ9Erzm0TrPeVD5D31FuXqCVwpakGfr1CjHjZqTaJ6Bq5VyCuntC2SmPK4gCNTOLxx4y0A25Q8Wlkaf/X+f7LvT3bf5b8z79XdnLBkLGCAdpkDbb02gZWrV2B8YgROwUaoauha4eGBR65FsReIqNLTIvYcWhSpiUMzRmmgpcBzVnQytYC26PLI6WkBbV6s0t7rSKAbwSHeRlq2k5QLVBxRZopLGQJvvzKBY4cHUR9NUfR74Shb984KhZDcYJuYoxZYEJUVqxBpAQFt4ozg3q/sx5adBXx44hOs27IOjWak84DcAqJzbpyOpMU0A1nu8MyoG6fyfdkjPq31Y4rCMgelbGGWKVSUMitUySshqQFH3pvEB2+fQWXU4ZylgxKHXpM0RJLWASuBTXa7BFf0RYHWaiJ1a6hEg7jvyzdjx54CRutVBN0WvIKFoZFhlGgS0P2mDYnMrp8AjjdQMVfMauqKlvfa2nTwVmtqE9Le2qJ3YQTS4wxOruyFlTqcoz34+hA+/mgYtipwbzWxL+VHq2eVoTKLKmivUtd8awDTQWMBh5g1MlUl1guWKW8qiTY0TRN0lYjOisLeWeQlK4qiOgMCPM3ZrMGaq8kzOUh6JaANZIHZnFiTme6vos1oXiEtOd1AvV7EtkVAy/NckdqRRKwkHCp1Z4YrKp5Lpsg3KJydOHWo0vir9/3uvj/eYzzaJQOaCxmIAVoArz05tOOpHzAz1LLzaIkgoNQVML1iqCqQbgPX7tmM2+5ZgwopvHm0GMZMWqFBJA8l6tDx3LgSWsAy/SRN/Uh5W6pUJck5GRM9YREetfekNk6dAN574xOcPDoOX5RR9rqAlGOB2eKmq04XetA3p6IG6U5g5UYP9z+yE12rgQ9PfIyVa1cjDGlzQUDrsSPK3hNXDWf5yKk2zdYY2sE2D63q685ak9oMJ1UE26Z2HuItTNFV6IEvXJw5keDIoRF8dHAIjuyHa/UwNSTluqO4wYxGVKCkAWKBoWOrgcgeRaEvwcOP3oS+AWCsXmOgrdYrusjIKnJ+HCkxjWhCCgJZi68/5RxnKyeZe6956DzPRc4MpWs7cgW1VWWgTRsuCm4JnqL73cDrr36IqGKh4PazN59HFKa4l7NSItr4aG86B1hdZMTgKiyEcayZvwg3M7ymYjT6TsY9ZnprHe3KS/TfeTEbfUbuDU8pE0kLvgxarTvMWqZ7iunQgEs55lYfODNwZepWCc0dj54nCUelvIFsVR1rjxalid/c+/X93zBAu9AnfGmcZ4C2BbQUOj6wvELHgGu7qNapktjFeOMMyqss3PvQDbzoTlSb8Eo2h0/1wkX/r5cl9k64n3HmIt+Wq5uJwjNIoXWvIWBzV0wDcVKDIuB1aPEqQkVFxDWB998axeG3TiFpuOgOemFJgSSKeeFbVNUxS/xRh2gF8Cu49e5rcfWuMpqiAeqqoTYmYuSQymMCDSroYZ5rypNyCJyOjEOXw+ptC3ZOfp89YdrbatlP242KwiIUAqIabCJu1OHbDspeHxrjAsOnEvzy6fchm2XYqheuU+TNRZw0uRjKdS0kREl1kePiHm0NoXUWu2/ciBtvuwpNlcIpx4An8empT7Duqk2oNxQsSaTVNqhmyFakMZzCEZEOb1rsV067tlxAoX0DkJcl5XlcvnpqwbGI4xfMCU2h4r6yjRMfJHjtl+9j+FQDBWc1IEsZJSiFhzNxB5EywObsTrkVyK4tIgkJmzgwLZpVMRIZIpIhUkW0mzTvLAbSPG+b519zc5LtiAdat6fpa6RQNN0zEkygKIRvBZxAmZIGpA0Ep+R18VexUNabIWop595qXW3OOs2WhRpxkgoFRyYaaLMLof7cHGgf/Nr+P9p5r2+4jpcGZi5oFAZolzPQKgHXLmJo5DT6Bzw003PYsnMV7n1oM2oJUA0rCAoUmtXFQAwTGd0deyQUOCYPl0Ajy6G1Cp9mVHK2y6RlXhgvkolul4FosGdpO4mWVksDRE0XduLj448SvPOb4xg720RX0AdHuojCEK6ziLAxX00CqaiVqYKulcADj+yG3w+M185hzeZVODc4CMelHGUWOp3iViagpapf4sQOmB5QH1khTEYcT79pESzkIXXteeXAS0T+QYFaoyLEjQqsJEHBodaebg4h/+NPPkBt3ENaK8J1yszBTEVRCk24no1Etodtz18DLgq0dgXKH8EDj9yIgQ0WRmvj6B0ocvrgzLmz2LBxCypVTXPI5PkEtIj42ik3z32k8JESPdgUOrV7r3ozMWWHKXWenDKRNi0Obx7CRgMuHPSWy6hQbv614zh88Ax8sRoi7eJ+Z/p23vRx5TWFWyinmYks8EZQK+bQK/1QWDtWoRaGILECWUOYNJGoBm/uLNvGitWrYDk2F33RvGv3WmncfX192iMmr1RpPmgCWvqhELRLYWrm8k6RRAmiZoyoESFqJFCJQhpThTVF2YkXmfL7RNxBHOI+LNtFTJdC2W8ZZUCrbcYUjJlH+8Dv7f/D6+/wDdfxgiBuaZxkgBbAq88MXfOPf3+EPNo7lpVHy8xIAcK4htQeQ/fqFPtv24ztuwqgZawe66rTrFmDZ6xmnKUeRSoUIo+KgIYWojz3msvozeDgZXDVvLU6h0dFIC6TzfsUhXYTpCzk0GSuYAI3GflAWMLEMPD2b07jxAeDKLp9VDKFpHl5gDZSFSZp2HbdKnzptnVwe4FKPAoroHwoXQv1iTqwUl5StUeHMAMaASlLrC7TUmrRHr123gl42zx/JsfP7aAfvZAcSIdagyII2QCSECK14ctupgf85bNnMXgyQXVEwBZleF6QAW3CvMT6ey/s1V4KaHtWNXDPQ7uYs7qe1mCXEkSqyeO3bA8yKXA+noCWrp0A1kYDttCkJTG6kSJoW830dbVyqe05ec3eRHbhcdP8k5pUX1CBURzBd3x48HDk0ChefuEQ7HQVREL526JOW2TtTdSCxqF4Rd+dhWypypcBVhexSTvCyMRZBF0eulf4KPV4KJRtBGUXxS4fbtFFz5qVIG1HKq6m/R3xc+f7JuZuzv6d/45vZ2ZuTb1JLGlAGvOtQ7OuENVixLWYawzOfDIEkFhFUyJtKCQNiThMkEQKSKifuotzvC2PdhrQKpQqr93/uzf9wS5Dwbg0EHOBozBAOwW0x77TLTbfYUdE7k7FDeP8sGqZPGpncTL1Hq0Wk7feMdn5XDS1sj7IeWtxfZbnkc5u7KHY7eGTwXexfWcvbrprM4IeiVKfhVqzCkFb/0z5RAMtAY2uFuYMK3l0eQEJO70t3dbzRWVnAq3DC0/RtyFchTCpIFJE8EALHLE2+VBxF5I6cPDVURx++2P4Vi8Cq4i4HnFPp64enYprz/4YtN+f9neICM10HE4xwpdu34GrthbRt46jpDh+6ijWrFnLEnfEp0sUekTHwRR/KoRFpB5cZFNgoJ0qesq8qZwtazrQ6uplTbCgNxuapVLCdSU8h8IEMZIwgUgCEOS8/co4Th+rY/gk5fA00FKeNpVN7ke23Zl9pNNtMQW0s4CxtCew9mobXzqwFYVewPIVKuEIpBVh9doBnDo5hMAnhR3aZBDQJhpoRQNgMLaQqPJ5QJuDLD0X2vRa0k5zEWvg5cwDbKSyqBm0bIWkWaMaL/SXu3DqSIRnfvoaRLSagRaSqn810EoqXrNr7LFyVIVyo9z/TX/TeWNpxUjtEDt2XY2uPh89K4so9QBeADgeyRkCwgeGaxq/WX2ITMmRGqrm1q/0e4rO66pjrXRE76PfU943yVSLyK/m3DXNr3yvGYNb1QhwmxWgOkqV9FWMDY9ifHwSUTWBanhwUgeO1GFjUiPK6RxTu5GKYuOVB75+6x/svFt8tMA13py2BCxggDYD2if/7qPHurH5TgJaj7axqgJlU9+oh5T6Rmkx5eCV5nHNHwYGmUswyCzVv9NCaTndqEbjSO1BdK1K8TuP7kLQQ0QQdSZHYDrFTA+U2zPod9w8SGxImllIV5m0e1VZ2LidIKA9dNw28Rm0ta+Y5VtbQusERknTRdm1cOi3MV5/6RBUFKC/sJLZmNJEweI+zxbzzqzPVPv9acU4objqdgKxPYkD930J264PUGdHI4JUsS42igVsSS0tbRSQvAFrMVNNL0ZqF/xuG03b9ed7J964pBHbmHPBtPEhLmil4AqbtVbHzgK/ePIQmqMlFKx+5gEmXgyJGhxXsQ2m2lmmhW9nWGLqXuT3iXKAk7j+wBps39sD2ktStprAiXKZQUCRDvJg/Sz6oMlCWCZSkNCBDlmn2UYj/7ZcXYlvSaa7ql/PnxPUNhXTF1NAg6ixwgQl4aHX9XHuBPDmr47jw3cG0VPahGJxNUiboZFWkZK0nRcicUOMVM9C+BJ+KUChL0Dvmh6sGOhD39ouFLoBv0RV89nostUu/yeNlTZVFKZd6DGj7CBrNcoI0Ai0U6qD0D9cx0yXScDbBNIm8OmHZ1EZmsDI6RHUR2twIoGyHcC3Xbi2qgsnfOPe+2/85nWPlE0f7UJv0hI4bxFTbAmM/jIN4dVnJq958m8PfqdbbLvDjojMnTyvyQxoA2IgbenRErk6A21blellGsfn/TGks6ssH6GsAv4oulcnePCRnfBKlCOqZ5XG2pvPCSq0N0vMTNTuoykAW4Uu87wCJnCIdXhVFrg/d4o4XkS8mZGhjbJr4/3XY7z2y8MQdR/dQR9kpAGJ+JVbxTj0/bMVZ7WNqw1wlNVA6IzCKTZx+/03Y/12GzWStHOYswgO8TEnVAClOWu1WHiW/8uJCeZ5ye1vp+1FDrRKdLFIIRVUc8iSdG0VUBsGnvvpQdSHSijaRDZtw/WIBKHCTFvnAe0FNjQ5DWZrQySReOPYc896bNtd1mFgymc6KRKlgbYZJXAo/5pf/xQrl+blJT9V0UYr+86WJ5vtfaYB7fmGIk80yogdPCWhmjEKykGPU8DoKeDQb09i6FSK2qSN8UqCWCgEPT68MjAZjWCkegoDm/vRs6aMdZvWon9tH3zyzCnK7IMF6ZvkiVKFMY2WK5Sz9iy+lwSyrYrg+d5KnX+fftbM2UeCEjnXd9bFluV0FYNwN2kejwOTQ3VUzk2iPlTDxOAoJgfH0KhMNFav6nrjnvsO/Ns9X+l+eb7jM+9fOhYwQMse7YWBNlX+FxhoCTYdSLsBt1RH35oE9z60HVZAVZo1Fr7X3iz9aGKEywq0tHCT90jgSEDLuU5y8zKaQVrHIgddnovDbyR47aUPoSo+Sl43VCw1FSBLtE2Hr+mP14yirBlASyQVpZU2DjxwA1ZsACYaKewCBw+5hchTznlASxWh3FM8g9Jvvo+1BlodNVCiNAW0hAi0YDtKIBwHnvnJO6icDVAQq2FLlykgE1mBoHwkJQj5yMubZ1QATw2qlR/Vv9Ie7S0Pb8HGaz0QZwYJvZNCD7VzsUcbUohct9bo6l7aYFKWOc/Rk+0vvNGamfWYaR/6pEgpprJ0KEoQR7BTwS1cE4Mp3j94Eu+8cRKe148UPiqNOiKrgZ41Razf3I8VAz1Yua7InmuxB6AuJCriq5MqoyMhPAop641RvtBRPlSDbQto23tz53sPOZrctorOjNBz6DxL6nL/NTFK5eFmARRcwKLwMnFmNMD3e3ywhpGzg6iMjUVJUnv7jgM3/Ptdt5ReFMRFaY6OtIAB2mUMtBQ6bqQSVhCj2NVE7wBw95e3gJyUWFVnAdqcao9k4cijpVVmER4tQ2xW0azyfthMoUY09eIeU+g4wPtvpnjjpY+QVDwEVpn1b3W+kvJ0CwfaUAyib52POx7ci+7VwEitCa9M/aOShcgDy+NiFVZ4ydiDLh/QUnCA/FiXIwvs0TKJPoVoiejSRTQBPP34W5g866JorWG1Gd/3ESdVPUZmPpoP0NJ7dZ6UgPbAo9ux/hoLYUSRWyoM03zKfiFAsxmxwhAzK7GoQzvQZhW+nFK5cB9vfmc4OpGp3LTUbnSOmlWeqIGUWlyEBd8rY/hsFe+99ynefOMYpze8oIRiXxlrNqzAhq0r0D8AuAVd08y5UgE0JHmwIeAL+GUPXgmYmAwz5iod+tf3MqOEzKg2Fgq0et7NvoTmgMuCTlnHG+Et80ITSxV5+zTmKmn42vAtGwGFmOn3CUCXEUeonzv58Ynt2zf93/2r8MTKIoaF4JyNOTrMAgZolzXQAiFVffgRij0RelcD9zx4NZRHHm0VyiEQbCuGmqIfzICWJ/vcFtoLPxc5fSEBrWYbYsJ8QRzKFgsKFEQB778R4Y1fH0NaLSBACWmSMOAw0OY52FkB9+IebYgz6F9XxJ0P7kV5DTBcrSMgoCXqxSRCIKinNwPa7PO1BqkWJJ8bYcfsV0/gQ/q8FudoXSRE3KAo90kZawFX+QhHyKN9HZVBD0V7DZD4vMEgTVyq9JZU7tp+XDJ0PANov7oNG65xEKYEtFUI8mgRM9BqIQGq6s2AlkKvHDCmgjhNE5hOqedMH0Zew5D/No+ytr+SAUl0PY6agJ2wDJ/lOrD9AGfOjOHtQ8fw3nufYPVVW7Bp8xasvqof5RWAW6J4g0SYNJhNi3tn6X5QbJby1sSqRP9joWG9xJFaEFOGZkBLrE4sE0kvi1i0LyRHkM8LKvfgI3tjJtEMQUxSWXWCJh3R8SJWX26T3YubjdHe/sK7niUfB8LXugqFwyFQ3SIEyWKZo0MsYIA2B9q/e5fUe+6cmaNNJBVDfTFztNwHSb2HdgNesYHu1QL3P7QTIpBIVJ1z1MLKgVR7dC3psZwRaLFAm3kF3A9J3mwMULELA62Al5a5tePQa1W88+pJoFGEL7oQh7rqmIFpEUAbW0MorxA48MBNWLkBGGuGcCh0TB57Sl2iPgMttbfk5BxUPEOLeV5Vu9BnnYE2pVAixRLJm6VwtJYQJKpJFwEmTsd48ck30RgroGCTKLrPAuok2+e4RNxBtmpb7i8GtBpxphKLpM50w33rsW1XmZ31SBLjFGnPhgiKASLiGRaBjixkNIgZbQMXBdIn5epJMzccU0LoFzGOruT2mBFM2Qlv7JQnYBV8DI3XcPjop6g2JDZu24FNW4qcwRirpGgm4/ALEsViAMcqgbThacPIGy6XWo4kGmEdjShEd3d3lkPWBW1TQJtdj7R0jnahjQMzgTbvHJ4quNL6ApoQsm21zavNSTqRqbS5gp0TFprGMXODXVvBc0Q1aVbPWJBHe7vLLxUc50UH0TEbxfENgkrAzbHULWCAFsAr/zix/am/f+87yxFo4aSs1iOdGnpXCTz4yA1wSrTgN7hNgpr527lj9QKq83Q5U9RcQocXfhAy2TSu3s4l4EIGW1oYfdmDpBHg3ZdH8d4b5+CkRFHYhbDRZOpCnXDTbRczfKoZ/56lEpp6QZ1RWIUGbnvgRmy42sck9XHYRAgRZgVJdga0eQ+sFuxmoJ3qK17YY05Ao9IW0XzKfhr1lRDQunBVgMFjNfz62XeQVMoInFWI6sSZ63OI2fddxBGR1s/3+rUPlzoTuO6Wflx7wyoQ5S59f4Q6mkkdhVIBaUJczLoYbjrQ6n5i1kylVrgMqHKw5VuSmSQH3KlCqTZT8UbKcrX8oKPQtJpoUtVAVxGhsHBmdBLrN61BpQFU6zELXpS7bZS7iEmryqISMvERJYo5jGkK2YEHr+DBycgnajWNQ069rL4AACAASURBVFoMoQW0Wuxdh7NnhrTn82+6+Jk52vZIR95zm4eKZ84UyoMz2Dq2LoUg4Ne8ksynTUQevkMVyhG1ANW6g+CsA3VcJPLXXcXgeeEEh2xg0ni4C3sGP6+zDNAuY6BlyTWXiCnGEIkJ9K608eBXb4LfnQkJiJhDeZpBTjP+tIBW90IuDmQJs/PYWg60ukeVPFoKK7qqD3HVw1svj+LQm2cQYBU8q4hmjeTLAIvChfMGmuzxIqC1xxlwbrv3RmzdXQItyzH9XjXhuTYs8jjZo9VAy/WrlxNoE2KFIoTQMMdKRkrBkx4c6ePUhxW88sJBoEF6tatRrxJIBpDKRqHoIwqreoMy742G4uvesqeMvbdchWK39qZCRZ7gJIJSEZJRQhfDaaCdrlzE5BCsB9wKoTNXb1vmMs/N6u1Zi8giByeb28fIk1WopnWMx3UEvV3wurtRTVMm9BBU9EYbA6lbizyXhCyaTIPo2L1MrEFBJ9p8NNMYSRLzf1Mu1HN9Bv08L6uFEVpyf1NV7gtYcS+Wo80/jjsFszYfNg015VpaBZoO6skny1DaICaiSCbaSHmDKxwLcdhA0fdgU/VyIuFTP3+9OSkkzvb1dB3yXOdF202e9uCd3giMC80cY44lZgEDtG1A26W23GmF7rJp7yGgTalnskRk8mfhFiPcePu1uPr6VVA25SGp3UMvBecdWbhysUBLpAVEZUd6oVTc49gkA5fAsyRs4SNAP858kuJXTx9BXClDxUXUJ0Os6u9FjYnvL0L1OG3Qs+RqRYhCOcbgxMe46c492HjdSm4PIcGa4bFhVggqMO/ydKClvJ7uvdQNLgs9yKP1HQ8jIxX0r+piYQf6TM8rYvxsDat7evDCz4jzt4nacArX7oXn9CBJHaSpzQxaitgQZmi/Th/PhXLU5NFOonttiHt+ZxcXFtGPHQBjk6Pwyi4a9RBeQMxQFwBaAr+MWXIqJ9kGtASyyVT/LFUAE7JoD1ATvRC4U/QEiO0ECWkTuwqxIxCTfCDxATteFjnQYG6TahH18nIum8LE9HdNGJLPBQ3ieiB6XASsWkqPgC4H2vZxLPQezrWQarZiMB4TD5PyyrTxUUiowI0IN1geSc8tJrKgQEtKGh8W/1jSkkImI8JNT7ku3gxc54my573SBIa3C+anNMcSsoAB2mUNtBLNsIJS2UEtGUFi1bBr/0bsv2Uz/C5got6AS4T3majAtHl7mYA2SbN8lCRJMwHPob7DhPtLVeKiN+jFobca+O1LJxFWCnCI8i9K4BHBAgmhZ8UuU2O7VI4yfyNTF1I+uIowHcPqLX24+a5r0bseqIQhgz0zL2ULdLtHmwMtLey5APrCnmkBO6UwJxAlmumJvDAZUxGYj6QCvPjEQVRGUsQ1UrLpge2WEEUWElpsHQJAKoaaKVPXPpoLA62yq1DFMdx44Bpcs7Obe4ipCI4oC4m0gsOYWW76PI+WGZ8USA6XiVyy/cZMj5ZyjezJkkIRSy5qwGVB9GzDosFFIiagcQSzLSXkxVKfN4sv5Bq4Wn+WGKqol52B2vL1difvbppy6DKgzUzBrTWSmKpy5iV9Qj6e2YBwLiHk/HsX4keyoIbWiudirsShUHzCtpD0k2dGGGiJPcqCmwg4qYCTNfFGVq0hLDnmW/ZHvuM+VfTEU77rfrxJiLGFzUlz1mdhAQO0yxxoo7AOv0BVmw3Uk1EMbOjGrXftwsBGYGgiQlAib4HysbN7bnPd0V9o8kZJrHsLiW7dsuDYFJwlQvYEMnLR7ZXwq+eH8MHBcYQVH+VCP/ddVqvD8Cl51S4kzs7BhXK1swFOCinrcIIIdTGB+x65FZuuE/hkaALdvR5zECtqf8raQfLQsQYIvdAvFmjjeoKBgSLODI7B8yx4TgFJ00bRtnH0YIzXXjiEpG7BUR6LsAu7gCZx5VLI2SHpPgLa2WpfL1QPmyMPFZ7VUcNZbL5mJR74ynZUG0ClOYq1G/tRqVdh+TZTD04pFLWHjucItAnzGusIAIEt50RtoUnzCVBpw0SOJnu1NCbtzVLPjiaT0MLoeSqegJzZsgloyaO2dc586pj67yywy9zEmVJtNoXz3la+n2055oUURS1mUaZrIfYvDbRkI+3ZShJBYFeXSFn0JoPSKDnAEjjTuTReympLLhzEpGvh44Ljvtrl+j8sF+23JoHhXab3djG36LKda4B2mQMt0xCoEI4v0ZBjgNfAnhu347q9K5mejqJ3xCGrw3Lng+3igJaEsWMWLrCFw1q01FdKrEik5IKkgNqIwEvPHsHEoIeo7qG72AfPt3Du3DH09Xch4e6WNsWYeQAttViQrqwVSIyHZ3HtlzZh962rEVJHq03qOIBHeqJZjm82oKXQ8UK8Gf0ECzSrEVatLGNscoRblUqFXuY4rgwBr790Fqc+GGGJPk+48P0C500bMS3APmzP4w2JptSfecwFaEM01RC6V7m467496F0JVOMIpV6PK5DjNIJD5MBkgcyuehujQ+Y0Gy7k0eaj4ZalDFwJWNMMZAls6d8xCSNx2DcLx1sEsDq0nH8T1wUQINGdppqntmlIMrnnzcppq1r+10y/bqaZMo/5sq2o8/ggmjcUEub50wa0Om/cun95qJvAlQg96DWvkiYWs5gEGajNS6WxLawh3xGHCrb1TGA7z/lF94PtQkzOY1jmrZ+BBQzQLmOgpZsfuB6qtQm4RaKsizHZHMSq9V248fZduGorFUoR0JL3pqkXp44ZtHsLm5sSsWwyC5GQDsJ6CBnF8F0fRbfIPYWvvjCIQ28Pwo4HIOMABS+A46YYGj6Clav6EDZpa8/dh3oIcy0Kys4g7zimVqagAavcwN4D27FtVxHjk3UUijZ3Cc8GtBTuZKhsq7BdkA1Io0AlCIrA+Pg4ugqr0BO4eOOlCO+9doqZsKzU0cJ61B8qY0SkdWr78NwiL7CzA/0lgJZNFSKxK7CDCBu2rMDtd63nHtWJZoxyt4vhiTEEpdI0u04D2kyPdrbQMYMkh4pZvEZ7rFlYmMGWvFkCFy8HVv01OdHVVEiWAVfrubK9WX+3tWxl7bAabc9bzdptoD3r8/PZrU3EQu7fhRbQuWTu6Vwdatfj5E2r0BsYnsrcFqSvP/fqqbJKA6/+O1Uo0+aLIixCUpEYnZNWLSFPuip9ubcUfLfo+69vA0YENYeb44pYwADtMgda13JRrU7CCQS8kmKgtYsJdt+4Dbu/tEqH9ajghXjiPgOgTdHUKjypi6QZcwFx4BS52jetAz/9/ruYGHTgiQHYopsUzaBEHc3wDIolam/JKCIXArREw5coNJMqSitsDDc+xtY9A7jzwasRJinKZRtpzGE5bg/hhY2WMQK8LEK9WKAteB4mJkewclUPJscn4ageWLGNl548gzNHmyhgJWz6Mkl+tib8Jy+RqpaItYm88oUDbaw5re0alNPAAw/fivXbgMkm0LcSGBmvw3YzZaIpj1ZHNsiLJntQe0++4Wh/zYEiDxGnjkBE4MqFTlRsrl9TV1NgTNEUzhCyZ4ezvVo56zfNUwYXL7Il8XWdS259Ri5hqCuROWlx3uZs7mvxYoA22znwPcyP8z6vrXdoWlkiKT9RFIB2JhYJyucsF/reUPudrdJBK0neLTvW4yt8/8ltvv+JoXGc+729nO80QLucgZZyj2kmaI0mlBsidmqIRQWrN3Thmt3rseXqPg4hfyZAywo4Ebe3qMSGiG0EbgBLCgyfruPU8Qm8+cqnCMRaxPVuFJwe2JZCnI7DK9YQRhVYKGlh9oUCbUQLlARKISbTM/D7Y+y6aQu2XrMG5bJAGkcZmGVVslyA0/I+iHFo4Q8RkRFYCMMagoLNvECVUeD4++M48mYN9eEAJWsVA61AnWgYkFqxznESIxP1hRKH1Kzu01w82hTKDhHLKiI1hi071mDPl7ahb8CC5QKhzFMGrTauFmFJVow0o72nfSy0QaNiI9onRLb2aGNqw8lAlvcPDNQkS0memm5/oRanvI2MJW+mhBwINLMRZAjMYdT2FbEdNOm8TMKxXVWILZO1hNlZ29JCFtX2fuH8/Ll4svl7NQ+z7gPPq6KnNm5Zbpb+0BJr0PeUv4PHT+kWYjGjGgsdfqaoB2EuAS3xRyf1Ri2A/KDHcX7a5xa/Vyp5xwaEqC3kes05C7fAwteIhX/nkjuTCCt+/rfvPVa2Nt1lN334NgUMqzosA5dpCKkNhSY9qdbQA0YVgPkueT4P11K6eK7ATAWKxSKqjTHUkyrckkKoJmEFIQY29uL+h64HrUV8ucSWREmytpwgUzTqrXm2BFzsdfrVczWz02QWnLRJMFNATxAgrgLvv30Wb792FOFEESu6tmB0KEHR74ZNnlEyju5+YGj4LEr+ikym70JSeRdW8xEkGJC6CEouJqNhWOUQo41P0Tfg4aGv3oZiWV9WLglH4yVvVrNC6UWctFpZWzZf/FpL4YxbPTO0rTmEZBLCD1zUahWs7FuBU8caeOnnBxGP9yKaLKIo+pkliqXprAjCpdYPhVgqxHGq1XVm5Rq+NNDSYu0HFhrRBG+yGukYvnT7Tuy/tR+jExLFbhqj1nhtv+ftBA3U3tWq+NWXzD2v2WaENgXsyWYAqyuK24qisvYbbT6qCpodaOmh07nbSwBtm9Xz53IKZJXugWawyl5JApG/O/fY2y5O/ykPOWe3OCvMymf8zOd5PmtBO9DmY2ipC+lxkRfL48/mF+9FpkLg1OZD91/3QFMImdYsAltbsEQHkEawwjj0kvRYt+v8fE1P7393XBwxYPv5rsQGaMmj/cng9qf+4f3v9Hrb7rSaAeuPStWA4zuIJeWQSIqNnkYiY6ScmIRDVRgsOj1dvePzvX2L+zYdEtWVJvqhT1kajzRJSVybqBmv27MFO3avxup1wHglRTUcRbnLgRsI7rNUKDJhgGVpCkUKZUmpNWYprEcC7kQpyGQHFv1Oe9DUO0t8vbTA098Dqxslu4y4Apz8qIojB0/j3KeTCLACQlIvJ+miUruHHieNjxeiTMJNW+LS5PbtFtOtHjQemQFYEw05DtuPsGXHWmzfuR5r1wG1JlWBNuEVBZwAPO5m3EAqSbC8n0UBtINFIJFAqohtQNdZLpfZJnFEPwkkESYIl7VuXfIamwkKVN6cAuc+beLd1z/G8UPnYDV7saK8ESrUyjkMLxkPNImakx0Y5IhzkHPU8z+4iCqOYXsCzbSGGqroX1PEjn1bsHWHh1I30Gg0YDkhLCJR4BSCi0QKRKkWBOgpldEMQyaKALGIeQ4oTNxQKULyTANP52KzSEALKPRz09LVye7gTKSaFvadXvjEVcJ5bDnLbOaqwazYI0Q2z1LYjodCQWtKNxoUFUlY/Yk9QK7qpepe3as0lf/Mcswks5crAHFBEjNMZcVa2d/mb/32dSO/aJ2LnT5Hz39f+0YnJ3xp93r5M0gBiua1TOFZpG0spUjlSUsmvy7a7uM9XuH5bWUMGYKLhdy5+Z9jgDYH2u8eeqzP2XqXCIsZ0IZwPBuxdJn9RnPEpsxaRBOY+hw7HWh5ulADP++SdbsEk1hQlTEBbQa2W64ZwHX7NmBgvV4wa/UJ/hsRz1drxGLjsupK3h4hbAuu7XB+rzpJpBJZZaWwYFsWLBa1dkDCMCOTQygUSihaRdRHgRPvD+PYu6cwfroJhAV0kceqNJiQbi2F2qjwI+f3zQtD5j/1tRfj2S7iOEJKHqOdcji6qSro6rWxYqCMXfu3Ye1Gm/uKRydrqIfj6OoLUOoKIFMLI6OUu/Z0sZKjIx56USY6RQoNu1y6bZPnKVxmWEpSgFqASc+B+CBIsWXwpMTbr32Is8fHYKfdCGQP4rqFwOlqAS1rAcfaw6ToAsOvy4QNCzlYjYeuPY11rtRTCEUdfpfAtbvXY8/+LhBVcKMZImyOcbOsXyrDLgQIEwtRRHlAYmyS2mN1LM7BkgcbOsSwpaBcWwNt5uHO7Fedxl84z4vIc+Y8bTleqkGT/jMvfLI9B3GcsPevm3z0hozmJlWVNyNKDRDQ2vzDznvmlXPom66LBSR0pTW12BDQ0itdS2zrv12pIwfdmSPg+UgBgpSiHrrPmVrVkKTDriXeK5dKfxfY+NmuAk4J0ls0x2dqAQO0yx5oW16gLhrRzDRELk9gGssa/FKKgQ292LFzAzZu8+D5wGQtQaU+hq7+ciZDRnqmus2AljTXIgo5ziAyO5CK1f/P3nsGWXKdV4Lnpn+2fFd7b9Dd8N6RAEmQoBVJuaViNDPa2I2VQmt+7ezOKmJmNEazO4qRxB15iQRBECRFiQagAY1ECCQIgARBB0eKIAjbvsu9eiZf2t3z3cyqV9XVrqqBqq7KjKh4XV3v5bv55c177ufOkb9LTtO04ZKL1vYQM2RH5Zhp4MgL03juqZdx6PmTUIGH/vI62GkJDPFq6sMLD7RmaonuKpmw3JIlQNaOGkLcYLoRRjf2Yf9l27BttyftpJ0wgulQMShGu0tOYC2aLmo2JLlImfekuo1WZzGVQjdMEHe5IFtwzQoMyxW7kDRpegJojEd47tmX8dyPX0LctDDSt0X4nFuTIUosA86YjYRqkdY1dAW4LkvS1IiLOYSvOpgSXVvllaR/dbzZQDftYPOWIew7sAk7trmo9QPVqg5ZTvtNtMOOeK62WxIAU4aJxDZmc7Fs3WE+lj/SGzrbwpN7i4tviZq9UoaROS9m07K0RkbJmXm4vt+WYjub4QP2jXGGJ4nQN3bDQAhZcg5kCkfknqpoKM144pmmLQGZIMv+V16UhMj135br0NvkWWrLPMSv/5fi8olsbqltzGczCagljEnbtn9SspJ7dgyUP7NeqePLNf618r0F0K5poM1cjexh1QtGJmpuMB8bij6pYVOcvQWvkmD/we249MpB8QaOjPlQrg9laRF2kqDnDzp/Z6iYvaH8YZjRUBYsy9HhZNZykD84Bg6/DLzy82M4eXgSnckAiW/BTcvw7BqiDnl8M77ljGZPCAqyxW0pHq1kwCKFmKrnVoJSyYPlMCzaRpC0kCgfsdFGtc/Cjt2bcPCyEQyuA9pdoN0mz2+A6oCLGKEU8Ei4mKFjCZ2z1zWFbbvi+YVCYuXAsSswDUsUZ2If+MlTY3j5hZM4duikREk8s09YHPhvx2T7Tm9VrL4/ec50TghxESuWQojAH0etVkJqeWj4AcIUcMolpMpHp30S+/ZtwPYdQ9izx0WlD2h2gUm/idhMYZXcGQIKAmqXmzQyQDHlQs+WEglZe4+mO5w7yF6w7QXgcyeOYOomk77Jzq3bb2fnIf/MeRhFAXxfK8t5FB6wLESJsCzPyOexCE8LwyvRt83FI3IBCX5Wh43p0eqqhOUEWrHngm12Gvi1YhC1b6mSRKBNRMc5TQi25rSroh8MVqw/KKfud3ZW1bFFTKHiI+dogQJoZ4D2mb8esHbdtrZCx+TK5ULVE3rMKjx13jZGqz2JviEPhhliujOOUgXYu28Hdu0aQnUQYATd4k/WykpPIQi6iGLmKRO4TkmAlrk0z62iXCbAAq0W0JwCXnkhxUvPj+HQi4cQ+wlqXg0Vuw5FjyGk16enqG7i13y2FxJoTbiSx9OC3DoMGKUMB4eikWo5MZqdcXhVE7v3bMH2naOoDwC1GlAZIEc01zotbadztBQFyH+UbCwUTFgW5e0gBBvjYyFefeUITh7t4NhLEabHQySRQq3cpwUT2gFUbKPslaHlZns91rw9RYOuTuotzqOiR5uEDZHEi5WNTpTCcDzpa2Zv9cmTL2PjaB21WoL1G+vYsmMdRre5KPcBzJBPU56OzE5mKhXKPjcYjgWDbVdMMYShhI5zzdeFyE165fTyVtjzeY0loDt/GZtNdFKIgB7tjC4szcn8dkTBgkBoLLlZo5fK8Ops7lUDbR72zs+YAy0L1XlXekH4HNfcC/y22QIvvUmePX2+kbGoWaF07y0LzlL223L8STLmqM7DVdf+aLVWfmSPUicu8OCK02UWKIAWwKNfOb77a5945kMLAW1AAvdVm6OVhka9kM9ri9DgpkOUYdiRYhjbJQuNL8o2Q0P92Lh1EJt2D0ilcqWiwHZYmoreayxEDEAfF+Uui34gXhw9u0YjwNEjxzFxIsDxQyY600DYCeHZrpD4czFIQp6E3Me6gIWH9h5yQn/9f7JrP59SzzmPPttjbBkvvVCpfhbVlxSWbYp3S6J/26F4nY8wbqJW97Bl63qsXz8s171usyH7FJM/Jr0n/QXSv8kcGdNiobZBp51icqKNI4eP49ChY5g44SNpDaBWHpFccdcPRQieLU5kygq6VKfROsD6fuQBwfzp1bngxQNtAsdKpeApMW045QqiFCI/R26DPgoLNMdgGL7ov9aHShjaNITBDYOoDpahakDb68Jgh5VpIOAGwzZhlmx0DaDFi3b5/OSFT3PX3fzezReJP9fVWQP3bHcpUwt5G27+SvP5YZpt9tg1y0iDjsA4pPBM4ow/mUGNVEKseY8wxx0qTRdJOkgdwjdmAJkQP1sBfK6jvrDvS2aKwbJ5l20k8m/hJpcFYiRmYeSc/5aeZeZrOdfj4JhnGd+tOfZd9ZrzrQJsL+z9yc9WAO1ZgLYbsep4tRZDSePdzAKy0BRjWHF8Ygxh0Ea15sI0U7TaDYRRR8LKbr+JSt3F0FAfBof6Ua9XUK4Argupqm02AWqTt9sxphsdTE5MY2JiGpMTDXTaXNyGpa3Hcxk2tZHEEYKOL5qsDtGrJ/80h6ovG+zSgFYDYYZimnPZYHjbyqqjY3T8pvS4svio4zeQxD68kgGvZEu4+cA1l8C0VVZFbAjgypgJ3tlmo9XqYnysgYnxBhpTPrrkKqanGnuw4364Vlk+QwF0esWU5+NiGASBzi3KIeUtp2yKFD3vxXq0WTFY2w8kH8l8ZRiH6HSmZdM0NFBBY/IYXBuy0fLjDtppBLvqon90FKUNDrwtCfq2VNE32I8wZfhYgy37Z8XDpUd7msp8KULK1X0Wub5xU5SHf6PUFKDVgXutSGe7wDM/PoFnf/JjjI+Py7cMDg5g//79uPSSdWC622K4PGXvbgI7JbtSLlgAREqHp3uBlqFler+s2J9Pl7jIy1jCxzL5pNlpLHMojx4QaJm3lhAyPdvM++eGjpEXk2QXUTTuxNG36551V79Z+uaeWuHZLuGGLPjRAmhzoP34M389YO+6fX7oeHUDrZYto8ekU1uzVZl5X2G7TS+uAkspqTZmrqtUZq7RRJB20Y7YBkWgoSA587Ehorgr3iEfZKVMyckyS8QWF6FMhCkhZc+tI2L7Clsr+A5Kg7FCNOqCDVUM+SVppIt+2D+ZMTPpthDt3Qmv0KI9WnqdWv9VCBMIsqauJg/8rnh6GzaO4sSJowijNgb7q7DsFNPNMXGjK/UKJlpTMG0DjsuWHVur79AzZm6a+qEuQ+e87ghBl0pFXPBcCaO7VgVVpw8njk0ijHwMDPWLsMBUYxzdoAXXZdtU7sXmIKtj9Lx+2WQswaNlNCMJLRljmIZod1uSe6+yojrqoDF1AiODfYjCtvAeUys1sg10jRSdNELDGseOm0aw+eA6bNm2UQC12SXbFAvFTWGwoqe7UH5WHC8J1epQ7mJytNIclEc5UgNxaotHHjCSwA7gFPjiAz/Ecy++iMNHT2T6ujpvuX79euzduQkfeNfVcNgXLz8RrCSUHlRdFKiZr0gOogUOLCFTEZJ/mXNZj+six3/uuejZlqO5xWQLgWxeGKUfirydjv/mMyzTifdH2vA4P00EfoC00xkrm+qR0VrlL2tl89EdSk1eaLBZy+crgDYD2i/f+9SHaunW28ywCs90ECc+HzWkRmkVe7SzFZMaaDN6GQmRZQ3z2YKie/OyvGAGc5LDknYbzW4jvkTWBqWfcoansnNKiJp0iXnfZyaonsupC2ewPn/OPqTzxLNAw39LlWlWgawJEZcCtHlv6ixfMjmXe0UKZhiKFMn7dVuNpqLMKAj5vxkB/ikLSY89tR0YBs6S2dLDa4FVz/IdrCLO+aTZusPvmMmX99ybGTtquywsKHCOS1rKTY7uT05MsnTxO3Vls0lhBcRwTbYg2RhvTKBrBHAHazjZmUIHIdYfGMatv7QLHZ4i26fl/bK9fbMzLSjzVhveu4wyWmywkCydYxpCziGhTraNZTJ7UZcbsg7qfSVMTjdgWWWYnicgy0KmHz8X46sPPopXj5xEpDTpjARRuRHKNmkeOnjnjZfg1967G4de9LF1g4duq4tuaxLDw4MYn56CyRoDWGD5EDd7ZspKeto9lRSHCCZk7Iev96verORphdl7PtNTO28aLDhXKIUYR7DTBCWljpST8MEycHdtqPJ4IUZwjs/RObytANq1DrQZ688Mu1Gm1DLDlJNNIsXYYga0eU6NwMcclu6/zQJ2gsg54C4EEDnYiG4QDFIwclHPmuxn2xO0HicBSnuwOpecA23ORJXRBpzDVF/gLQJsuZ4rNwHcYMyOTzxmXdqZAVomrJBdq3D9ptTrXaC9pic6MJsD7w396s2Mzgny0G07GuxC3cIjYJ7HtvM8uqU3QafV3T0fU2hmK7FrTxGcBvBUwrqubYmykFlW8IbKOBmOYyqexobdG7Hz2u0Y2gd0nazOt0eFJy+AOh3IatvqjcKZIhKMDOSeGb170yRYZvnvNJRw/tC6IUxOJ2gHBng3H3r0Ofzjt34IwxtEi/3KYHW0q++ibNb04SUtXLGtjLfdfBD7d3pSBe6kXdhmBNczpViK4Wj2KQvQguIO+n7lIe9eAo7zsfyFeu98nubTgezM92XyjrlnLC4ui+7TCLSQG0cvltP47/vK7l/YZfuZQkT+wtypAmjPArSJYkXmas3RUv9T5/g0sOaAkTPUzAKIfqD1op8vjHkIdwYMMk9v1vOV5XQBrzYDHH6v8gWktVc3Wz0rC4FWHs0AdxZo9TlzFgx+5+dPwAAAIABJREFUx+KqbmVzoFg/qzthpVREPFqu5Hkltr5u7WXTA86KjzJvXebGaftYs8drDijm1VLZgp1ReQqoGplXy+rlGWnC3OZ5ZEAX5OiDcHim7z/7IpF7OeKRCvGFvnZuOHgPLEPh5NQx9G2sAfUYz088h74tZVx7x9UY2WWibQHUdeCh54Mmp8g9XLk7p1llcqA90yhZEU6AnQmhS3W4EsAlRrCnl8xtbsnBiUngm9/+CR7+zrM4MZVC2X0wvX5EiikITRySAz9TBW7axIg1iUu2VPHb/+P1GDsMVN0Ig1ULHX9aCqYCssSBuV8CLsP1uliKQDs7/89u59fiHbw/vUDba+d8M7FQC9gcz5tkWNS3lfx0CieKYjsOf1qxjM9VXeveS6vOTwr2qKXfvQJo1zzQauCY49HOgOkCnlo25/iA55qZs15X1moyE2LOgFZW4Tx0yld6jwRKem/dGS7hudN5FlhyUMk9Wv17PrZFgqzgVO7RZkArHm2exFqAbWnmuvJQeb4ZONuDuMBjluXFdd/mbOtSzn87a9NZoM3D+3kB2KyHdvr7dKaR6SCq3mjN8HkTkHh/EioDAZ2uD69uAbUIhzovwK82cOWbD+DATaNomZDq4t5ip5yX90yebD6m3s3V6XK0Amwmc/hAGCeIglCKnywSotg2nCpwfCJBu2vgyWdfwFcefAKNroW+wR042WCEwJMfsnLlACPTMY1hpU144XEMl7v4337zXaiXgLJBWkmSiIxLVXLCzzGqAi1coWfH7MZL7LaMq6imET11M7MQ0M7f8HDcLJCSqDxJOBRgsTUg6PplhWeqtvHxwcHSvUUl8tme77P/fRmnyNkH93q9g+09X/nYkx+uYtsb5+doGXZavR7t2bzBMy3g2tNjAdQsA+0sNeIp927GY87DnvrzKZjzzMByjuc33xvU4Do/zLi0RS5vj8lHO99DnH/9eY46e7/w6Z7LLJ23Gci8YfHrI13UNLfga2FyBwlZsv8x08DlYko2p8XagH20ArQzvMl5Dp3hcxaFQcKntdEqjrVfxUkcwZ5bt+DgbTughoBm3JS+2zznOeMtnpNNMrtlRP+ny9EyjsGsgdAdsuMrCIVpjBXpqWMi9YCJFvDVf/gRHnnsKSR2P4KkglZHoTa0WXiqCZIC2IreKNMULAePYKILI5mCp9q47cYDeM9btwrQli32eE/Bsg0og94wXXRd/Z1tw1guJ7/H9JIXycx1LjPnjBulBbSQ59cFLrThmdNrK1J7iaQwGL0wmA8PA24rmlXLeKJi23/sVfHQQaV0yXZxLMoC5/NILOoLLoYPUVTggb958kNrE2hnQ5mnS5blD+/cYg+duzSyop25dO95KDZ/nQWyublF5mF1VXEG2xIKyytqe3t781zsbFGWPudSF7lTgXvWHvMBLFdzya9Gj3SBkudTKPl6SCXmhcepnpS37vQWe+kctB6L1JqJoHciQKspGnRTi3AML/Ip1p7ZbB9uXtWte6tF+0Ui6F0zwPHuIYxcMogb3rcXxgbgaDCG0kAZCTUUyTuUCZGf6/M+8/4eRZ2FPksClFyMovfvDB3zq481gYe+/TM88u0foNkB3MooWl3yGzvwasMIyJwhwukpTBEFIQ2o3mCk8kM5OR81z8dv/8bbsWWdBloVsaeZfNKWpgmVIj59R3QSY/mBVoB/3vQ7G9DOn9PcKCZRIuex6d7K7o3B8gglwzzuIP56xVIfHK7bT+6QPE9xLMYCi3xEF/NVK/czZwLaKHVWsUc7j7CiJ+Tby9/aW2Ch4TWrdlSJtAycWs14OqCd6yHqsikuZvp8LCoSgfWMGKAX0NjbKDKF8qoBQtO8LyVHmVVX95B1LOSV9bTazpnEOoe5AGHGDHrnn+z19GdBV+zG6LmAlMCoLOzCX8xKYIYqsxAzr1uYi9gyRYBMuUlJtb5rXrp7no+YzvERNojk7KUlh3NehKXDkaZnY7w7AW99Cftv24+NVyuMW8B4Mgmvv0yXWtICZwteL1TwpOvMepmNTr2AWdYutqbkClC6GKqTAl977CU88I3vohsoDAxtwYmJADHlFvvWY7pFsNThXjPV4GqmgShwmWkoFfNdZYlSlxGcwDvefCXefNMuDNcAh7J83Y609KSJKT+irT4HaFl1TFGHs139ed6Y83j7UoGWHXUkh6E9LU5m9n9HnGspXCNNzTD8p7pjfGhdyf3UnrJ69TyGVry1xwIF0GYUjF/6myc/XMO2N8wNHaeI0owZSlyLXvUe3aaSsxVdnLMq36lnC8WMt9VL8zebi51zjQSnGaA9h6tfIL5JEQOGAWeP3rCy7NdnCpHmA21eALVY5Rr9nSx+kuDkzHEmoOWb5oTdBGhPDWfPKc6aA7pzAVe3a+rrz7RhhKlLqph72oDEJ0u118EFUCp1M2lDKsssFmhnbJBtXjTqU+ydohIxQjNCaIboOF3svekS7L5+ENMliiqR8kuJwIBrlrNASHavsnkh0Yi8vYsh9rxqff7fe4qocq1ZuTNZWJR5w4Rk+EkCqkKlpo04ZUgbaP7/KfZ//8H74PVvwtR0F9OtCF5pAEEIJJ0UTn1QPsdNiUHaQaUB1hRNaRaeGQK0QdhG2ZrGpmED//xX78CmdSZKCgg6TWEq446DVKUSeua4hGEpyPq6ly90LEvSAgGV3v7cfGLP1+HN/5/MWVHA+6PnMoE2oodLeT1LIQ6DVr9rf7u/Yv/XuotHi5afc1jrFnhLAbQ9QFtNt84AbRR3JDg300crs5q7YsrkAWasiyO0hNbijL8iPnWmwWfxPa3qM//I216WdhWnnvlUY862/swsGz1fukRv4hxu3tlMdKppFrKXhtNTrJi9VX9HTxg/2wj0vj8Pm8+2V+kPn8MlLHiTCKgBmqKZ22kESIIUg32DaLQamA4m0b+1Dz8+8iQuve0gDr5xJ8x1QCNJ0KHYBBtsLRMpWSHkmIl15DGPs76yT5eepvbMqfJEkgudCxWFnARwkhBxMC21AG69jkPjLfSNDiKygP/w+1/HkSkLIaoZdclswZ1WNZodWd5zrbc0BN/MdnGKOGihVk+QhMdx8/W78P53X4lSzPx5DDtKNQ8yvVoSmzAKQz5sajdLMRGLrJZvAViIvrI3xXOmp1NLTuriLidijzBFFWavhRs4cSSS7oSN8OEh1/qDSrX6xLVKtZf21K+9Ty/fDFlBtmbomB7tXKClFgmBlsVQWtRcA23Yo0ebtTKcqRFwBV1nMZTCAr0WSFWAyOkIi5WblGAmHmuEANtA4PiYTE9ArYuw84at2Hb1BoDqPWSIoodICikJd59uU3F2WxNorVSL2AeGiUCZCDOgtWPAToC6Tc9yUhi5/DhFx6qjpSx86wcn8ZVvPI3poII4LS3QYrVQIVvvmHQo3lUmOs0JVOss3Z3Apk0l/PIv3I4DW0w0jvoYoMRe3tWVbWpClSBkKxbDyCY33BfnIRGlTPjejTL5P63cIZScoZGy+FyIQVQcHOmzjU9ts+0/vKxcfuXivOLlG3UBtJlH+8Cnnryrkmy9NQ8dC41gAbTLNzOLb37NLUCP1nQTTEyMYaA6As+uYGxiEm7dhtmn8LOxn+LqOw9icE8f+nc6CDygHQTiBRn05DLgWaxHzQIlKyULVorAVKcCLYA+irM3G3BcA5N+BLOvH0+/2MVf3vsAWnEVsRoUQopTe5nPDrRc/Cqmh05rErYbwDabSJNx3Hn71XjvW/di4rCPEc+DnWhQ5iFjzQBKPNpsY/Ca36zX4Au0R6s9fFuk/wi2GhJy5aK0pNDttpFG3bhqpE9s8ir/YWfZ/eY6pZqvwZBW7SkLoAXwnS+d2PulT/7owwXQrtp5XlzYghZIxFNsNBooe1WUylVMNCcRWl3YwyZa7hRuef81sNcBRj/QoRxe1AUUC4NYjau5B5cCtA5Vk+ghmsyXUgeWfNGaS5hqOiXyKjenYDsOUreCiRD44kM/wRe+8jjc4R1IUEUMzW419zgHoKU8Hnm3TaDVOQGvFCBsH8XOLQP457/yDmysA3ZItih617oYTyv50Ntjjpf11uTxvjiPU4FW6+3yhpJ0JGChHQkt2AJGucEoPDaocO+IVfrLq/q85y7Oq16eUV+sc+SCWotA+8VPPHlXNd1yS+HRXlDTFidbwRZgxkPUXJIUQRTCKBlIvBTHOkdhjxjYc+MO7LiuH0EFCJwEXWrzpKz+dWRBFjlELsSL1LkzkxROVgzGRZ1AmxosvtPE/Rb7ZZGg3ZoWwon+0Soe+1ETH7//Gzje8hBbNSGjWLjy/NyANu5EWDcyjOPHX4BXTsSrDVrH8O47bsT777wEcYN5Yo6FxVS6EpvhVurU8rDIorWM93jxgXtdSRUb7Cue9Wh19b+WBeQ1+iwec0zYZgrD91Pb73y7T5n/76by4D/sr6uxZbz0i+qrl3OOrBhDnQloE8X2niJHu2JuVjGQC2YBtlKZoYFyuYyp9iR8y4c1ZGEsPIbajjJufs+lwAjgW4Cv2ojYv6tMGKkjbUeit0sSqUUDLUFMQ0UgSjnak5J2L93kBY8ebacLttk5VROf+tJP8YW//x76N1+KiXYsikv6DIvxaC3E7QCD64YxfvIwDDtAf93A+OGfYt+uUfxP/+xO9NuZRyvXTprMRCQAc6A1EnMmrHzBbsx5nGipQMs+dt2fbYjAA4UuuJngZoedW82oC6fkwrMUEt+Hmm4eryB9YGOt/88G6vaTBRfyud2sAmgBfPfLJ/Z9/l4WQ53q0TIsVQDtuU2m4l0XlwXM2IQZWSJH2DHamEqn0ClPo7TZwdZrNmPHtf1oOQwZdxFR6IAcw+QMig2oiFW4gHL56+KWe4aHWfQkrE8E2ox8Q1e5U3CC36cQhSkS08SLhyN89qtP4KmfjcHu24ZuTGlG2nyxNJzkH7SkP5cMZUlMacIQYeck+twIb3vjNbj9ui3wOE4CrUjyJUhMhpA1sFsxNx4X132fGa30KmnijRxoc6ISbnq4mWgnISzHAvttjTCE2enCS5Nnh2zvE8Nl757LyqoojDqH218AbQa0X7j3R3dV0q03zw8dF0B7DrOoeMtFaQECrR25iEnm0G/geHQER+JXseeWHbjirXsQ9TFkHME3uuJpEpCsxEFKVKQqDj3isi4QWswhedhYiyuI3JyRav4LFUNl6BWHCeLUgeUpPPjwEXzjuz/HhF/C5GQKs29Q2Ju00MNiDgOeXUV7YhzloQG025NAMIVanw3VHceWEQ+//RtvgifcVwksycvSq6XnTX/bhElC/sXi/GKGfCE/kwFtLk4gPN9Z6JjUngRatjIlsqNKYcYxvCSFm6StsjK+V42i/7xhXeWhwqs9+00pgLYA2rPPkuIdq9ICBNqwmaB/ZAAnukfQrEzDrzWw7cYtuP7dW3G4EyJ0I0RmnLF1sc/SEZIPi3TBBEdhplo80Kog1aT4JsFLNwtphiqNXr6foFQtC8/xf/qDL8Isb8XhsRTtyIVTqSMKmb9dPNBqusmMSFM0h0NY6Iiyj5tO4t1vvQ5vummzlFuFQYBWexr9w0M4OTmFklOCZ9hnlPlbyROHV52mYdZXnDGsZUxdkTJlc8VWLl3spiuv7Vjn1a0kOVyOont2D1h/sq9cPrSSr3MljK0A2gJoV8I8LMawDBYgYDrKQyfx0S13MOWOobzTwt7bdqNvVxm+EwjPsc7ZMYdnwkgoVG/OeHEEWhJOLOYQ9qcw+ywF2ecBLbO0YWzAdC289CrwVx99AIm9HuNt9ttWYbrs+20uDWgztWEycQmjErmP4cNOp+FiElfuXYc733QVRgdtRN0GEhI8VmqY7gQoOZ6Q8S9yn7EYk13gz3CTQ/WmHt1oiS7oDHkv0GqvVxeosRrcihF4SfDwdk/9K6u//MylKotBX+ARrpbTFUBbAO1qmcvFdZyvBVKFSrUfr558Fca6BH6thR03b8KeW9fhiN+AN+zCT9k3q0GWAVRD+iwpzZYxQTF5t8hDPNmYKjpa3kDyn8I3qT3amAFbwwLJp/7+wRfw4LeeRSfpFyYoRZ1Z4YLuZDyE8+O3839fqFhKv0dfiuYs1uINXThowsU4+pxpvPedN+GqA5vRbU+iXPEQRCLUB9typIBokfuMRVpt7scWb325chgJGUoyrBUCEg2yEq2gF5/9LdcOZpic2rX0br04fG7QiP7vDV7tC/vq6uQFuaBVepKl3adVYhQWQxU52lVyM4vLOGcL0Je0KiUcax1D2NcRL/ayt+5FfSfw0uQ4vOEyopigR7YgRwQfZhSVstCu0UN1eM5f3PvGOBIOYXrM+mCokr25iQi6wzQx1QTuuvchvHzER6PjwqqMwPTq6Po+DK74WfHU3O8/R6BVhBKFNHUFPEXfFQEcho4xjrT7Cn7lF27Fm27ei2ZjAgMDA5iYmoZll2FSEzcThVjUtV+ADy1tAacONX+yNMAckNVnzq2oNyD0ajXnNn93k7BRitqfGqmV/+v1Nfd5pRYdw78AlljZp1jafVrZ13bOoyuA9pxNVbxxFVmA/aBt1UVSS9Awx3Dgtr3Y94YBjKcROrYPMjnQwxGBA8ll6uWCQJhQYEP7trPge762YWFRlgOcAXEBcE2CETFfaBp46XCIu+75Mvy4jom2Qrk+isSw4bc7MBy23vVCQj6IcwFagnw3+3Qpk8Jj6xL1WHWONu2+hF95780zQDvYP4DJqWmYGdAKM+viIufna60L/n65m9zoZKzUqUH1KN7fWT0u1kGJBm++n8k1eVPNQ236jceHy87vDQzXHr5cqYkLPshVcsICaIvQ8SqZysVlnK8FAjPCWDyB8qaS5GivffvlGD1Ib7YBZ9BDkITiyYoCayYlKGQGzKUaOqhoJdoLXMwhoWIjK2RK2SbDSt5Z9mThPk6B7z95FPc/8B0k5hCmfQOl+jDaFICnyoypRQhObfE5O9AqqvgoX6vwJGWkpHKUHuEITtqCiwnUvUm8753X4KqDm9BtT6BSKiGKUmGjsi0baUzpxsVc/fJ/RgNtoiMKWbi4V72KdzUrOM5C6nrM+fVaSQQzah2tGemnh0ulD17b7z2//Fe1MkdQAG1GwXg6ZqiivWdlTtxiVEu3QNcKMG42EPdH2HRgFAdu3QhrPTAW0ZslCJoi7E4Sg1w7gAUyZBOKTQ20TsyQ8uKBlucRtRkBbK2/K+HjlK0+Frox8OWvP4XvP3kIflRGJ6Kg+yAaTXqVDpKsanjRQGtoyt4kqSBNPSD1RFHIggbayy/px9vffBDrBw1E3Slh0apU6mi1YriuK+NczmMpIK+BNt+maLFdqfrWzJoaVDNgzb3a3mulnezED+0kfLzuOv9pw2DlkUuUml5Oe6zU7y6ANuc6/sRTH9F9tBV4pgstkxcLYbkmrOARwVC5eg//L2OyEUFyJSG14rWww+s5D2YBRnPUygOdAx9Ds9lKnLfLzCxEqYGu3UW73sLR5Bhuevt1WH+whqhGJn9gfLoBr1xCHBD8LNErlSeA+qWUT8uA1pYqZF1E1KuDem6/z56HxUiSH2WBlLBCalIIPwL+9nNP4MXDPiYa5EIuwatW0ZiagFuvgdTLuW6xHuSsJ5sLy4u+r6CI1pPNAQR8lkXxLQGoAJSaUKkl4vBO2oat2N5zFW67ZVTae6LAFzrIwaERTIy3YbslUCt9OY+lAK1MlTygIFJ/jA9L6bX+Z3ZheX5W7NYj68gKbTulV+u/Wlf2x0frlT+5ohCHX3A6FEAL4Fv3n9j3wCefuaeO7dcbQQU2DETJNLnTMUPByJ2z5KUyoJVkBqvzWMjBHbkh7QnFa2GH128esFAprxolGGrvUzZ7sirGCBIfTtmW6G8Q+IwUwrLIhmShbTRxwnwF6w4O47LbL0NYA5JBQNWAV4+dwMBgH4yQ7RxZlXFqgEQGIc+Vyb06WTGQ9kNnIE/yemf7XTxX6PErYTXmJk0DLdd//jB0/Md/9iCOnTBQ6duEk1PMy9owSwmiKIJKvCzkHLJXiE+uJpWQqlkLcaOJvq170Gp3EY01YPf1wzYt+M0WbEchCKeRxgE82xJxgW5zHIimcWDXRlxzxW5cc8UQDFHpYYiVhBU6f6wI3twYJBdv6HguIpz5jp0OKBSBNg6DUopvDVrWf9w37D2+sdCrPQVsC6AF8OgXTl7yxY89/dG6sfN6o1uGrQi0DSiT7Qae9mgFaFn4HsBIKVidew66HL44Cgu83haQvlOhRuRGz9bhV75mIJcaMcKkC9tTSMwYQUS6PQVl6ladphrHZOmIMEHtvH63iAe0ykDkUc2miVq1BOWH0jtJij7pazVMAdtu1tZDrVaKAyzqIHglceY5OTpXmqnjEH4JtPRo/+wvHsLx4ybK9c2YaPpIHfbWhqKja6SzQMtNMNs5pVhL+kFN9A2sx/j4NFkw4FRqQBgjaHfkey0jQZi0MNBfgZkEaE0eRc1JcMXB7bjhyv3YtEHBom0JrNRmFQDPW5B09MCKZr3kRdngIv8Q7WEmCbwofn7AUX826pTuvaKmjl/kl3XBh18AbQ609zxzd93ccUMBtBd8jhUnfI0ssCDQckM4EzqmOHlIlgEkRoSIqu4SRTURxykaahzhumlc/c4rMbSnDr8MTJlAE12UKg4MAiGBVvRY6cFpkOVPIOjDYqilAS3bReRIbQ20BEgd5UWoIK09H/7IQzh6DHDLG9DsplCOgcTyJT+qgZZDoTdL0I4yMORvFoZHNuLYT58HSjXUh0fQbIzDSFPUSw4ajeOo1R1MjB2CpWJcdslO3Hz9Zdiz1YDLvXUA2AwGSLyUnrL2ZnUrsd4VmHGeV36NbvKKPi29/FSA1onCyUqafGFz2fmPhYTeqTetANoCaFf0o1wM7vQW0EDL8DEkbMz8IoklZh9qIlCEBJEUMEmeVqgOgSCMMGVOoLLfxHXvuRpqEOiWgEkDmA5bGFxXgd8KRIdVg6mUwyBitOc1ANo0mQu03BDQoz05Bdz7iX/Eq4dTWO46dOm1O4wrtQXsjNTNKmLZpsLUjgZuqaKFidR0EHVjWNSzTSLEnQZq9RIqjoETJ16CbfkYGirhqssO4vprtmC4D2hPEe0D9NdISMHYOEeiPVntcWcRrFRlYfW1G9Ei0DLCZwXdqJwk317nOv9u65D32BalOsWzO2uBAmgLoC2eh4vUAqcCLXOpzNHqC5LKUaU9WYaR6ewmJn3cCGEaY9qdwtbbN2LXGzajzfykB3RcoJW00d9fxnSjhYqpeY1zQXCCLIGm16Olh7i4g1nZWFpI2FaTV7wKL0bmOTLq+7efeQQ/f7GD1BhEYpagbBt+1JAe2jRrL2IFrDSpyMn4L8rnGQjDBEMjIwhCH9OTJ+CYAVTSgRG3UO8zsXfPKC6/fDd2b69LLVXsJyg7BjyL3MY+TAocSC6ZOrlZNKAHaLkBWWzV9eJstsI+pbSlrSCAFfrPDdrGnw5X+j9xdU2dWGEjXdbhFEBbAO2yTsDiyxdvAQ20aabfqrkExasVcgFSSWTeXUKgTZDaCQKECCjgbsbo1ru49JcuRXWPi2kFdIioFRNdM4JB5Zagi5IypB4h92jJnsTQsVQGi/C5Zgta3EG2B3qLCvRoOf7cayS3IQG90wU+9/nv4cc/nYIflmG4fUgtG53uJKyyR76FjBJylrGIVdCJMFYZCMIY1VoZnU4TluGjrwJMjr2Celnh9jdeiRtv3Koj12EMFvbUPBuVsoHID9CYHEe1XNZ/n+k11RsNzdtoiF2WWvm7ONutjE8xfO+YKVQYwey2T/aZxufXV0q/d12/9/OVMcKVMYoCaAugXRkzsRjFeVtAg5KmJhI/LmMbIMiKvuhM+0YC2ClSK0U7bsFHGybBZF2C6//F5ZhmtXEJmCbvbcVEais0Ww3UKhWgyxwtgTan5LNEIo7C4DxUmvaEqs/3EiKt8ZqmSBNnDikGRMHHFOD9wgNP44fPHEej5cAuDSC1XbRaE3BqFQmBCz8VzZDpqupWHgI3ixpTJEEbUF2UKylcswXP9nHVwR24/ba9orOq0EWl5KLCIrBpH1NjJ+E5FkZHRtBsss9WFzySJpLhaB061uHivCXpfK98tbw/SRKp1qaEXuq3/JpKH91YL/3OcL30w0I+b/YuF0BbAO1qeebX5HXkYNurCUvAJdAy3JuyKpYC6o5CZEWYjqbQQgNOnw1sNHDT/3ApjiCCN2BhohsBngllK5wcO4HNG0fQbviwEp5Pe4454FwIoNWbBDbCGkhjRyqDBbwEMWMBNNtV+OJXnsUPfnQUJxsGnPIIUstBszkJu6+KMNDEGSoL4WoPU3Mz87y2o0G5XEqRxJPwp17F5Qc34Z1vvwXbNxNYu6hXHRE3aDam4VgGhgb6JSrAXl3TJC3hLMgSvDXgZmPNZl3e/7vWXpMwgmszihICfgdlJE9t7Kv853VV50sFeUUBtHMWZbb33H/3j+4uJ1tvsMIqyo4r7T1xGiA1SkV7z5qEsIvnoiWMm4mSM9HI0CmLoszYgmeQVtBAJ2hBVRTaxjSicohXJ17CGz5wG/pvrGCSLT0sPiIZhcmQLQGQ5UQKKmb7Rh461p6cls3LPdol2En6Un3ZCIhLnTfQkvjFCEHu3Sg18dyLU/jYx7+O1BxCNy0hUraM1S57CMWjZQSaYXPtyWvKSHrIeoyuq+B3xuA6XaTdI9i3ewS/9N5bUHUh7TumlF1loWcJiLM3VuedKXavQ9oGkixcnPf79l75uRF0aMKH8yf2WLmfI2FHGMUwkhCuAkoIj1Ys3LXes/7i+nL5lSXMjlX10cKjzTzaAmhX1bxeQxdD4NOcwWzhoZeoAceCFdmwUgemIpVhByinaNtNBCUf49FJ3PKBN8A5aKLhpVKJTA7jxNAC7AIyzL3Sm81yvtqoWiRdFH16mIIWY3BWTMcGmZmIcxUhexGSfgIduZQ5Fth45Ugbn/z0Qzg5pWAL+QjGAAAgAElEQVR5o/BjVj4DhmsjJgOHfF5lknVaL1eEEDjWNIVppoiCSXhugKh9GNu3VPH+99yOjSO2bCIIfrqFRx9UtBFqRfaIgsIK+rqFhTkTRuf/aOKKxVz56vmM7JHknkVwkcBOu60yki9tqpd+9ybX/fHqudKlXckanybaeIVHu7RJVHx6uSygK14JrpEZIhaRdrZbMPLqwoptGKENy3Sk0hjlCNPWFPxSC+lAiFt+5Vq0NgItV7cISf+q8LDkywIJJTJAFWTR4VLtKF4YoI0yoFVJBSrWhUUSOTZ8GUeqXIw1Etz/pcfxvSdfwcD6PZju0PtWSCWsm401oVeVVwDPBdok0ZXGZS9Gd/oVDPebePedt+CyA0OMUM/w+ebFxDndZH6VYpOZympdsJXbIXN4l2sCLP/3cu/B+WYwOhACYSfx4ujRDX2l/6O/VHriWiU6hGv+KIAWwGOfPbz/vo//+CNF6HjNPw8XmQFOBdrYYPVsDrQuzMCGbXrCTxx6XUxZ42h7kxjc24dr3rMPU+wbdTTQzlT8ZrJpAia5nMsplsmLgRZvstQIEJvkFDdgxBUYpwAtYNgupjsK//jwc/jSV7+D/vWXCNAmliVAO1uUpK9bWm1kQ6Bzq0qZiNmmY0YoOTE6jVfhWQHedOtVuP3WnbAZOs4ofnuvJF8YRSbuNN1LQmCxBOH7xVtuhXyyxy7KJtdYgjhowQ46T22slf7NaK3299cWdIxyswqgLYB2hTy1xTDO1wK64pWVuSlCu4OQSjhG1AO0JVhdF5bpIjRT+E4Hk9YJTNjHsffmHTjw5q2YKgMdW1fu6lBoVl2csTSJHu0CInS5yoBW21nckagA9Gj5vWZUg6JUnniYaebRJrCdEvzIwPefGsPffPYfobz16EQWUosJVh0eloUszYGWv+liJYoJWKaNsNOBZZtw7RBB+wRU2MRl+7fjHW+5AsP9ktHV5+hZDWfI82fC41nOtgdcZGNizmq3Ls4KF/+nZDNi0avVQGt2/VfWe/YH9w32331QqfGL/wqXfgUF0OZAe++P7y6nW68viqGWPqmKM7w+FjgVaLsCtAQaK3JhxiVYoSeE/bGp87MNbwInjMO47l1XYOu1Q2iUgK6lPyMQlann5AQNzEtqgv55RxZfXTLQWh3xpAm0RmzqnGkP0FqOi05o4dVjMe574Nt44XAHsVFDathQjicet3icwuDE/LQeL9k5CLSm7SLqdOC4DkxyIUdNRP4E1g1U8LY3XYuD+0owDPF9Z4qUCLi9nmwm0QAjC8trYM9pIgm0a3cZZZYhZC2Zlcq+R4UdIGiOrTPNT2ytVf7wplLpxdfnaVjZ37J2Z0jPffn2fUcOfO6eZz9SAO3KnqzF6OZaQBc92ULD2HXo0XYRmboKl0BrE2i7VSSJQmIBLaeNTm0Sx4xDuO1Xb8HgJS6aDhASaDPPVOd8NbDyNco924znNx9B7scJ0J42vHzmO5YYISKrNQO0ikAbswZKe7RU41GmjXZgo5taePjxo/jqQ0/C9IYRRCngkOc4k7CkSH3O4iRAq3teDdtB3Algew6S0EfZShD7TaiojVtvugRvfdNW6eUlWDMnPBsmZhVz5sUSSiV3nFUmKy0koPmYWSy1dpdRywT8IEWkYrge52MA1W21BhJ8ZdRx/+0dQ7Vni+e2CB3LHDg90JJRJ9OjZQM8HzTV1eo9Wc+fzgUVR2GB198C2qPVVceRFQqfcUSkkr5SgpYLM/RADCIedV0ffn8TR60jeMuvvwG1nQYmRV921qPNPducDlEDrlbD6cXTOUDLL1xEzwo1bSV0TIAj61Ni6eIkKa7xkZqsogbaoYJbreCpf4rxsU9+FXZlI5qdBMoqz4S65SLJMpVp0kromEFhw9GkG66HyO+gVnYQB020J47h6qu241d/8SAsQddUAF68+sx/FzBlT3Jv4Zd4zXwXWbn4HcxMisWzzPZaegU8G3IvwjSCV7JFEUn5rbCaxo+NWOn/+Y7BwSeUmtFyfP0fkhXyjWt3KzbHox078Ll7fjjHo42TFqK02yOTNx9oc9PNNq+vkHtaDGPNWED3u2pvNCdS0G06BF3ihwMLlmGDDD4Uej+UHMbApXVc+b79SEaAhqWF3Ocfs6CqgfysB8eQj+UcX1MjQmyKcjsUNwUi86eBltqvYIuPmaDhB6gM9OPlw8Cn73sM020PY4db8IY2IQgCAVieizIEae6SCk0iyZ353KqM0ILtOqEo/fDVUlP4zf/+rXCtNjZsLIsI+vFjh1GrlFGv1tCcmobnlWdahXIraKKNDF7zHPUirv987bXS3i8yE3Eqcyu1TdHvjqIEqd/EgKEeX+ca/+7AYOWhHUr5Z50/q/wNBdCKR3s6oA218Dv4sDJExfpILS6tmXK4ibUWGzlb5VOruLzX2gICgBlXML1XmYsUizPp2XKTGMNJFWxW6MYpfNPHURzHwGV9uPx9+xEOA02KuJNjcRkOre2q9XRV4krVsc63av1XmCStiJAYJlkncGwMePQ7P8cjjz2PMOqH6dTFi9TAR+83FfEE7VzyeRUVBQFcXZGsRQwMhqQRwFIN3PnGfbjlhs0IAlb0dOFZCQK/iXqthk6zA9epyrm0GpB2XHM2Lp6PEYW1uojqNrIUsVSzGWLuME6Rdn30qfRHw7b6fzYNlz5fVB4XoWNZXgqgXYZVtvjKJVvgbEBLELYo5cZ+0wxojxsnMXjVIC77hT3oDBBoU4R52e2iRrR4kBYhdXqtEuqmR2vmjqKEcdn+EyY+vGoNnVChEykcOQZ86O6vwLLWIwhtAWEBWoZyhR85Lx9mcpmisrrdZ0GgRRNbRmL8L799B44fo2ftY9vmPoydGEPZK6HbDeFaXga0WYpIgFaDO8+5lGKwRZl7BX1IQvwsQqONTUMYNOMkBYIuqir58bCJP9gzUv7UpUqRMHpNH2t1Mzbnpj/++SMHP3P3s3f1FkPp0HHh0a7pp2OFX7wGKra1UID8VI+WQMvICz3aJErEoz3pTGDk6mEceM8ONKtA24a0/iz+WCrQUlCdnpEDFkMJeGnlWygjRph0AMtEJ1BwK1V0QuBv/u4ZvPxKC3FSlopXIfmnLeRHk26AjZ0iLqALo3QxkxaGzwXiLTRhxofxv/7Wr6FaJz74GB7w0PVbuhAqSWEbjkjuSRWzJqCaEXEQ5qiZWo3FW/Bi/aTcqySWXmUyiol90hRGFKKcRj8bUNEfXzVa/+gupajwu6aPAmgBFEC7pp+Bi/bic6AlulinAVojTucA7USpgdHrRnHJuzdjwk3QodjA6RgZXmPLcPzMJfMwEkcr4TA1y99ZP6MimE6KRrOJMFWo9Q3Dj4Cf/FOC++5/CAmqCBIWK7LyV1dL5z+Sn9Vn1h6zhI3JIzULtCZaMMLjuPWmA3jXOw6g2wWazWkMDVQQdJowlElZgiwMrT9NbzZXSyqANgNa09LUnVI8lsJOY5Si4JVK3PnzqzYN/dV+pcZe46m04k9fAG0BtCt+khYDXNgCCwEtgUVXH3e1txslcGwbURChY/loVFrYePMm7HnHKE4YEULPXGag1V6okkIotocIHRVMFcFQMco1B2OTY+KhOl4/mm3denTPRx/BsTEfsVFHpFytsJORVGhaRg28+tAgq4UDCOz63RY6cNUEKl6I3/rN96FaAY4cGcfmzYPwmy3YzA2zwzZhHYZGcQHarBJb9+1meeU1OklVHMGyHMRsdRITJ3BVCi/qHnU703dftX30g5cpdWyNmmfmsgugzYH2o89+uJeCsQgdr/VHY+Vf/9mAVvpK4wSOZaMbhPAJtPUOtty6BbvvHMZRhAhdc4mh48XbievyjIABCLRqlhkq82gtO0UchwKLUWQhSl0Rpf/ud4/ioW/9EJ2EQFsSoXdptUnZV5x3AjC0TlhmyFgXTOkCay1yZxJojSY600fxvl+8E5cfHEEcJahVDESBD4tAK91SOpg9KyjAzYEWHRDKxzV6MBDC0LGRAW2Q6NYoz1Rwu51jdrvx8avWr//DK8vq0Bo1UQG0vTdeQscF0K71Z+Giu/75QMs+VMq50aNNsqpjAq1tWiKQ3rF9TPf52PqGrdj1tkEcjiOEJb5/KTnaxZtNA60O9xoEWYIWF2uKyasQporRajXQ11+TytZmK0C50odWC6BG/V33fAUn2y4iVJDCRpLSs7UFlDUFY16NzDxikMnf6fYhQ/pjQxhJQ2gZD1y6De94xw3YtA5yftIJUgIuiSjS0AuyHK+W0lvrQCsheXq0NsP3EBIRVouXDAHak2Zr6mOXb9jwR9eX1ZqXyys8WgDf+vyRg/fd9dSHK+k20aP1LBtR3JT2CGWVivaexa+lxSdfQwvk8ngshmKOdj7QSl9pkiCJYhFAb1sdtAdD7HjzLgzd5OIYQqQSOn4NB3mGU+ciBgRcKu+I3yjFUJkmLLiIM5KcoNvtIk0MlCt10NE8fCjET39+FF/8+vdRqm/E2LFpuJUhmE4f2s0Qlf5+tKYnoBzGpUlmwerm3APNtGvTGEkwhZITwrJ8/PqvvwsbRgCqA5J4IY0iqdjWMehZI+VAy/ELCK/RQ7LWCTWFDcSKv+miNCeOUY6C49XIv/ey4eHCoy1EBfQTUgDtGl0pLvLLzoGWYU3hNs482lRpIghSM5LViKQOlu2gaXfgD8fY9ZbdGLjBxtE0BEqmeCPLcfSqBTE/OxOkJdKRV5jSfgwKUxIvSRDFCo5dgu0C0w3g6EkfDzz4PTz38zHYTj8cZxCN6QSWU4flOPA7TSiXnmcGtHmol321iSPnJxWj50SIoilcccV2vP2O/bBZsBwn8FwDcaCrumcYs8RW7P/NQtBrGGjlhlG7VyITGdBSkzYRoD1WjTp3XzY48t+urqjDyzG/VtJ3LtMjtpJMAHzzviMHvvCRpz5cxrYb53u0ML3Co11Zt6sYTWYBoV40Y/GqcqDNi6FyoHUtG77vQxkmWo6PYBTYecduDFxv4nAcACVdyLJsxzzWqdkottT4IkkiOC7F3IFON4RSNjzXFqWdTgQ8/sMj+PR9X8fgwDYYxgBOHu2g3L8e3ThBjADKIoFFF5DQcS6jZ2uCDBZdIYCpukiSKaRpA//zb/0i1o0AnWaMSoUMDHn7UtYqNA9o89ztstlvGb+YkQdGG7jpSBQLxVgYNgO0R8ph9yOXDQ39ybUVdWQZh7kivno5H7EVYQAOgkD7+buf/FAl3X5TAbQr5rYUAzmLBU4HtImKEFkElxgeQ8bttgDtNKX0NijsfOseDF5v4HAcAq69YoFW+4wxbFtTSHLDQH4Ex3HgOHrcx6eAz3z2H3D8eABDDaAbVKGsGrpBBMtl8VRTk2Jk+uOU4kNqQ8UlCQY7BhAEkyiVYjSbr+K9774N1103Ar+dSOWzZ9Hz7RHozVbMGVrKNVwMJb3L9GgVe5m1R8vNkaM92sO10P+r/QPDf3l9VR1d6w9zAbSZTN5n7nn6Q5V0280F0K71R+Liuf4zAa14tEYM13bQ6XQEaBtWG/4GCNAO32DhCFtdnJwUf3muO8/H5t+uQ7Lie2avLIxSArRhqFmkLMuCYZB2gqXDJp569iju/9w3EYY1DA1fghMnO9LT6VZLCNNp8WiFmlEYqGwgIblHSSqGS7aB5uRR1AcsGGYT/dUQv/zLd6CvxvemsDOR2jn1YuLBZZ5uAbSaEUran+YA7SvVqPvnB/qHPlIAbUHBKA/fo58+fMlnP/b0hyrYdst8oBX1noLreHlW4eJbz2iBswEtPVrHtOCHAQzTwpTZQnMkEqAdudnDCRb8WLlWzfIY+3RAK32rkgKkj6RZmhg/ZnGSMlnMlAiYMosbhgY+evfXcOhwF8Mj+3Hk0BRguHDqHtiml0q+WhNjMGSMpCQ/9G5LroXm+GG41QT9/cCxV5/Be9/3Flx79VaUSwDlVXWVco99cn3eGUGH5bHdsn8ruapFxUgDLfuYeT91jjZ8sRZ2/nj/puGP31j00a5ZPuw5c/Rb9x/ad99HnqFHe2sBtMv++BYDOEcLnAloU4Mi8MzfAnEcw3RdTKhpTA742P6WXRi9rY4JhwvkouVkz3GUp39bXmHMoKOu5NWyHQKwWSgypjoMvVgW2whvfSqkEWy9oVKPTz5iz8Pj3zmM7zz2czQaHtpdC3Fqwam6iCV0nAMtP6SBVsUVAVqeL4qaMM0WypUQU2M/w86dw3j7nbdi66aaRvKsGvqUK2HotKcaeckGudhO0BM6DmVj1Au03Zdqgf9HezePfPIWpY5fbJd2ocdbhI4BPPzZE3s/f8/3P1ROt7/BCStwLGemvSc1SqJrKXynVO0RmS1ynGpC8Zz67ULfmOJ8hQXOZgENtAynGnAiV8KiBFahNqT8HJV9Qk20b3sextHARLWFrW/ZiU1vGsRkCQjonS3Q3pMLm5/p9WzjO5e/azF1gufsuzXI8jAQRImEiaXLhk9gFCBJYli2Acdhf3AbSlUQhQY+f99T+P73D6HavwV+lMLxbPgJ9W4pGJBp7s4AbUkoKxLfR6lqI46ngbSJcinE5OTLeM87b8O+vZvRXzcoSqM1aFm1PM9Ya7rouDdHK1bSIVInCeHFwXP1qPNf9m8cue+GgoKx8Gg5OR7+7Kt777v76b8up5vfaAcVlCyGnDqIGRgxPGGd0WTiMcw0gMlqRcpvzdC+ncuSUrynsMCFtUBOtciz2lEJRmJL3lHk5wguQnrP0Cq9vjK6XoifBS9i823bcM2v7cQLQRehZyFaQL1HA7YOmZ7u9UJcTS4g33uuufQZvbuAHgEDQT7S/0VCZNHfN4yfvwD83d99AycngZHRrTg+MQbDpboPeZNjXazDHK2ArattlfpS0MMQO0UMut0p2FaA7duHcMne9bj2mmGcPD6BXTsH4DcDjJ+cwMb1o4h8wPdjKCcjxjjFGGdpThbeyUwT8EIYcpnOYZlKhAQSyiJTUAAKHlIC7Y9L/vS/P7B99Ms3KtVYpuGtmK8tPNrMo73/7sf/qpJuuc0Maj1AmyIxXAFard9FhpkQZppkaikUxV6+0NuKmUXFQJbFAgK0VkeKUDTQEjHJDhVJpS1BjDJ57KN1HA/dUoSXolew6Q3bcNWvbsfLSYCORwrG2eGf74KwdFKpxav/EDwNdGBaLG4q4+hx4PEnXsSPnnoJTR/wqn0I0kw6TzK9VPGhEg/BlpsSKhulWZGVqQusggBp0kJfv4HR9Q7e+wtXsDAbadJEpWTDSk1MT7XhwEOt5qAVzIa9506C0wBtrwuc8SZr9uaL89BAy2I1ke4R1V4CbSkOflSK2v/2qi3DX79CqdbFeXUXbtTn+1xduG9eQWf69qeP7/m7e777l9V0y5sKoF1BN6YYyhktMNPGQ3iNShJlEb7fDGilGEpZwqpEwsG4qnBYHcW6mzbg8l/cjiNGjLZHmbzlBNol3GQVI4mmUe8bxNRUjI5vYboNfPXvn8LPnnwOfdv2oMmWIJIjS3UwX3OhAG6eU5Q8S6qyk0gJqQc3DkHQgEILjtvBW++8Gjdctw4TY1OoehYGahUcPXwc/ZVBeGULbT8H8vnXsTaA1jRNqQhPsw2ElUh7T1JOoyeqSfg7Ozf1PXqzUp0l3OVV8dECaFl1/LfHd3/mXgHaN88H2lhRj7LwaFfFbF9lF0FAJacxDwItw6Ik1Nf/z9wtq45tRH4kHkdUS3HCncDAVUOiRztZBZoOhd9nParzXRCW7tEu4aaoGGHQRLlcxfR0DMspwS4B33h4DA8+9F1Ybh1hSt5juqT0tTTIiiKPxKcT2BZkI4LEhOOWYRs2grCFKGrAMBoYGTbxy7/0FgwNAO3WFByTHB8uaiUPjYYPRY7IBY9zAFp+7iIPH1uWiZjkIOSOVinMOIYTRd0q4if60/Rf7dxUe+JahgHX+HG+z9WqNJcA7ccf/4tqsvUtBdCuylu8Ki8qB1Su1WZMoGU+chZoydVNj5bE+GEYI6kojJWmUNpfxb537UE4CrQsIFhA+P10RT4z0c4LZdF5zFDnc1qyEJlGim4Y6CrjkieMUS+9Ajz2+DN4+ukXYHvDSMDQsi3e/uwhsU7WHAu9IxIbluVCEZQTskj5sEwfUXQc11yzC+9+5wFEETA1fgJbSIicABMTk3C92kyl9JnHfrqldnkEHc7Hzmd6r2UrRBE5tRVsU8EgP3QQNvuN+MFBpf71+zdUf6oUq/LW9lEALYBHPnds12c/8sRfVNMtdxRAu7YfiIvp6mdysRnQGqkWQNdFUmRDimEmCqZpo+vHiCspxtwpqG0mdr9jH0q7HEzbFy/Q8l6VXRPTzRZM24GybXQ6Wtnupz+bwte+9hjCqIo0rUgBlESmci1ZViFz/ZfKWZLj20ipOytyQiTJYKFVgEo5QBiO4dc+8Hbs3mWiNRWi5Jnw2w24LtuHnCwsfbaZszqB1nZYAxCJDVzTgApDmEFnol+ln1tf837v3f3ez89mmbXw9wJoZ4H2z6vplrfOB9pIZLeK0PFaeBguvmuMkBihtJmZMatoKRAwC7RkQyIhkudU0PUp8p7ghD2F7voQe+/ci+ErapiygNDSvaq9x9naVnLP9mzvey1tKpKwSiFOQhiWQphEiOlZeS6OH0vwgx+8gB/+6GUkSR1pUul5jvnBQAOtkUp+MWHpNfO3rEqWiC69tA4GBmw0Gq/iwP4NuO22K7F5A0PIPvzuNAb6+hEEWtl28cfF7dHatgZaAolnmTAJuu3po4O2+vA2z/vztwyX17wWrcynxU+Q1fPJhz99dOfnPva9P68lW95WAO3qua+r/0qochNKms8UWkENtJE569EmIVAr19DthAidFCeMcbSGutj79n3YcF0fpmyga+vFvhdszwagKwFouXy1Wm1Uq2XEiQ8/9OGVSxICnmoAU5PAvR//GtKkH0lS1rlaXqd4svT4EyhiKyPHoQFlOHBMD4ZhIQ5CBEETUB309RmYbhzC7bddhTvesg2dFiuNfdgGWw7cJS6jFy/QsuMiB1rm6ksZ0JrtxvPDpvEH6wbsz9xZq615sooCaLOVmEB7/z3f+9NysvntOdBGcZtqnkV7z+pHq4v4ChMoipenCoYArSXasjnQElBqXg2N8Sm4VgVuXwmH4qOYrE5j8xu2YvftGzDuAr6t+YR5cM7r8Kr2Fnu0a+bYqRdol7M5JUk4dtY3dcFUoPQQ08OMy4hj4LFHj+AbD34fpjsCy65JK4/lmAj8JmpD/Wh12lnol6DJ1h/dIqVZqyJp/0HaQXv8RdTWeXj3u27Bvr11yUuykCpNTEQR+0i1FWgz/lDajyQbzOuu2kMlaLZaqNfJoBXBShPULQvxxNhTfUn4b27evfHBS5SaXrXXfx4XVni0AL7xt0d3fP7e7/1pJdn8jgJoz2P2FG9dVguQ79cQj1ZpDt8FgLbseAibIazEgVl1cFJN4KQ3ifU3bMAlb9uCyRrQtoCYGrAEWEMDBcuEmLsEW2PmyJ7rS84Zo+Z7wq+3QWaAVkLBYUblaAjNYpKYePWVBI89+iye++lRlOsjsC0PjVYTBjkcDZJN5CPWpPgEWf4nySzEHjF7kCnZ10KSNLB1Sw033XQptm+vousHItpAoM/2Kdo7zsDfIG3kxeuwnvVW0nZtv4VquQJEoQBtn2EmaWPiW4Nm+n/dum3d93co5Z/1RGvgDQXQZkD7hY898SfldMs7C6BdA7N+lVyiAC3Fy6maQqAFPVrSMjJ03BVOYBcmXJSQdFIkFtAqd3HMPI7awT5c/t59aI0CDYNMjRnpvmXOAG0Yx6KU03vkTSsrBWhjQbJUWJ10GJ0bBgNp4iAVDxX4yU+6uO8LX4dt96FWG8GJk5Oo1GtodXwYpg4np0aPX057pvRqtWpQGnUx0OchDKfQbLyMy6/cidtuvwaVEsDoMT1boYgUXmn9OgPfq3iFJdB2Il/andIohJMkqKZJ2/VbXx11jd/5pQ1D/6TUBa9Tvyif3lU8Dc79fmQe7R9Xks3vKoD23O1WvHN5LdALtMzRko+7F2jpdhphiv7SILqNCFEaIepPcSg6AnOniSvfdzXSvcC4aLIG4t0ZtiXeHr2yIIpEC/ZMQLucYWOOl+MUNBV1HobSGerlskaQtcB9AnO1D3z1B3jhxeNwnH5EkQXbrSJIUjpi4gWLqIF0oWigZquUcEhbHvzxcdiVEmpVA+MTL4l27c03XYarrtoKz9Fgy3FQvIHRAPaW8mB/qWmehYpxeafQkr6dZg6SGIbJ9rIYdhxRh/ZEPY0+vr1S+cM7h8qvLOkLVtGHC6ClHu3njmz/9F3f/2+VdPN7CqBdRbN7lV+KBtpEPFozYXV8DrQhIpOh1JSpSwyU+hFMRQgRweg38Wp4GOH6CLvu3I/qjXVM2EyxRTovS5AgqX+aIiR5/3yPNvPWuHAIU+8yU5BSYIAgmftN+YImHM1kwxLGJ4UXXvLx5S9/E+MTMfr6NqHZSlHpG0Sr6WugzcXhMzk9ydeC6j4e0kgh7nbgeiZcN0SzeRzDwx5uuvFSXHH5oFSUUiqXmxXSOHoeeZP5f1oQYeEjd3sv3iU4VaxhUYijAI6ICcRw/M7P19nqj7bWBj55R12NrfJH8Jwv7+K9y+d8iWd/I4H27z7y/Q9Wk83vLYD27PYq3rEyLNALtDkrFIuhYmMWaK3QQBklqDagDEPYoQ5Hh9EZ8jFw/Sg2vmMXGiVKUamZfGWUFUSJmMA8oMiZoFYG0KaIKV4vOWMKBOjcMb1K8kDxIPi55ZKEdu//wo/w9NOH4XrrMD0Wojq0EZ2uzuuKwo8IMWQkRszRkuSiY2Bw3UY0JqcRTZ5EeZg9uS34/jhGRzy8/303o1Yz4TizRVH8twbaGKQoXLVAy82WBfjdDkqGjVISwWo3f7CpbP3u/tH+f7hWcdYVh8zPwgzAI585vO2z9/zgg5V48/sKoC1mxMVigbMBLcOopdRB0rJqEOgAACAASURBVE7gBC7ckgPf7uI4jqMz4CPYYWDvB65Duy+G7VrCTsgKWoYDpXrWIgGGBqzcY1xpQJsIPQVda81jrKuFuW9gODhGmsYwbQ+2Azz3vI9HHv0JXnppGmG3BMvpR6pspAZFGDqA0dGebRY+psIPQgeV8gDiEPCb0zCtCJ5LDdsGgvAErrlyFPv2bcKOHdskTN3t6iIyhowF+JeVo/K1nckS0XAU/HYLVdtDOY0j1Zh6ZEvV/df/bLT+uFJLoP16bYf+up+9AFoWQ913aMvnP/Ld3y8lWz5ghjWUzBqSqAsptFAWSBbDQBkfSEUFH7ZTxCw+MSSvczY5seLvC8utnXa2n4n/b0Ze7HV/VlbgFzInSX0yA2SF4nykkHtsxMIOxT7RklFCe7yJEsqo1Spooo1JNYVutYOpIR+X/cZN8EdS2BUTsQV0whRBHMJSpuQapYqW4eEetFUihzYr1E792OU4GLokkMrTmbCAiT9afs6UNT6B6ShQPJ7EEl7FxCMPH8PXv/49lMujaPsWDLssnrx4tNJbqz1cqTpObZRLA2gdnYBV70dfrYrxk8eQph301z0B2nbjOdzyhitx8803oF4HWm0gCgLRy7VtS4qp8nukbZTbKosJ9OSFcw3e3Jasde49FrYye3pnq8B5/SKdm4X2z/a6lPsm0qG2QqfRQr/noI50AlMTn95Z9/7L+0f7n1/KuVfbZ5fnCVlhVvz63/7Tpgc+/cPftYMN/13cqNVGB3agNamjHobBsBIrGgPEZJGRx4YVjSVNFABfwPZchLLnPhBZr2JWu7EWPy/2lcVx3nKStVacMk24ePJvPRtlLrar+zhzudGsYPpsLlDKg2ZspO2bA5CIwou8XoiJShNb3rUTW24fwuEAaJFlqmJLy0a/V5H6okSz66FLBil+hdKVzjaLYESr1hF+5ZVy5GIB+Rxh6LbVpJReCY5l4OVXAnz38afxwvNHEaYlREYflOVJLppRcrJMMV9NgXcSV+SqNHqfwYKpiNsZeaUojZlOwXUi7LtkJ2686QqMjABTExGCbhv1vjKSOOBJBfpc24NlmjK0MACiOIJT5p87YsNUmQgjessJlGHB8Vw0Gm2h0OT4HFOB+wr28JqGActRiJIIvKd8jvSGXrL22b3JX3s3uql+HzkCWDqW9UrPnT281tPlkGchg+tZtxug7jkSNrZbE0+vs9Lf311b96Wb+9T4SpkTK2EcBdAC+Pb9x0Y/86kH/3e0h/6lav9/7b13lF3XfR767dNvnzsFM4MOghVEB0iIvUuUqPps2ZHyXuL1Yid5ZWW9l6yUf2JnpbsosmxRtpLINuNYjkmKsUiRImVKpESJRewACIAEUQZ1MH1uPX1n/fY+594zgwEwGkwBwHPWGlzM3Hvab+97vv1r37esp2isgFeX60ldJZo7mb8JFGqG1xAwHQEBLb3PXeHlptsvbgER5rsg0NIjYBrYtEBEruav7O3CQDvFBnH/Z8IuEoyjPtmW7UJUMzWUbuvE2gdWYzwLTOoBPIvB9pooEwI45Nmp4sFsU8EUtbCQt8dcmFRhK1wnYxpZ/1KPhvRkW4sxrshcqWLBNGQF8oF9J7B3z/s4PlgFM3rBlZxshJWurcirUpZXWC3ymKX9CJokPzL9XwG1E9XhORUUihY2bb4G27ddjd5eiFAzye+Vihn4jgvH8eATVWGoQmE6TM0ECf/UmpNQDAbTykLVNbgUonYCcIXUhAjIIELSdHrHCYUWtmFooJq1gNqJuIuQWpPixako4hLLgnNkBtsLU1G1LcC2nRqIV73KhYA2OgwVfOV1BRnf9nJ25fk+U/mXG/q792ykSZJuLQtc8Y+p2Yz1wEu8/F++9fjfr49k/98sX71S9TughRZ4EEJTPQm0rCk82lCsADUEMCXHLKepmm5zsYAE2uSe0bp6CnLMBLRXuhc7e2uSN5PcKKgbb0kztj8XfZ5YfawGvKsCXPfJLcBqBeMGyeZ5cOChoJngjgdDyEQqQrOWPFqu0nz3RYVpDLT0/ty3+fz2kOs+FWipGEpVSJVHE14gteKMDANvvL4bb7z1IRSjH4peEHnVwKHCKgWamYHCqLgponVKCrSLqmQZ1yLP3lRVOHYFnjOJUmcW23fegB3bV6JQAKqTDphCpCIkUE8kGLSfCk0hoNUE/aNokfEJXIFaw8XQcAUjY2NwbE/kyPv7e7Gsu4xCHvAouuC5MExqOyLdYQ9BGJ4HaGlUZhobKaQg1hV0EYktTgmcezzj76j8BMX4DO4j6zRHi7zx2NWG9duf7C8fnft8uDL3nM9Zftla6MgRbj3+B89+8vj7zX/daV63MahnkVFLCLwACiOQdRCKQolA5MAozBNAF6t9JdRSoL2IkU9IoUZHmfZgmB5vF59KgsvFPOQv4sIvkV2T3qoMCE7dzge2DbOBkcIorv34JnRu68RkERjVAvi6D0NVEDoeTJKYI1gRYgUUKibbc6jcF4sk8rxa3tScbDLfj6CpYNtoNJDN5BEGClyHI5vRxfd1754hvPSz3Rir6jCzXVAVXYRByRMlEgvyaAPfh5KsGhaAK3PfcWiVnElLpwhXA447ia4uC5s2rceGDX0od8q2H5WeGYEvQ9IRTSP3OWyHobPTxOAwcPz4ME6eGsKpwRGMjY7DJddWAfr6erF2bT+uv3Ydurs1AZtB0BTygLpJsChDwW1h+xalyFnfJ8H0FW0x0FJV+dRv04U6oxNAKxixOFSqOnbrh5ap/Ctry9mU33iG78F8z/I5fdUuhZ3+7D+8uuPtnx37NyVt/cfDRkHNKGV4DnGdUqiIgNYRFYn0oBErQdEQT/kWSX2XbnOwAAshgVaSBMy8xR5t0rNNMvBe4UB7vtg49TEmv8GJzyZ3OzuPLe3XNJoYUobQd/NqrLp7HZzlwKAB+NmIuEGw/ahQqaKXelKjRaYcL+nVkYe2tM0LUwwQkVe0vVoSdc/n8/BcjmqlAcssCu/w9KkA7+45ildf+QCK1QXTzAgwplBoKDJBIiEtAFh4bnH4vSXULgumgqoPI5eDaQGOW4HnjaGnN4ebb96ArVuLcGxZSOZ7DsLQh6UbyFi6IMqo14EPDo7j1OlJnDw5iMlKQ+RoCTSZKEZT4DYnkSuZuO7qFdi69VqsWKGCUsUkeEDeMgzS2RV11vLr06pviO0SUUnGIEvFUq3060x9vrME2mjBSyFsXq8i7zV/ujpj/cttfR1vbGSsNoenwRW9Swq00fBSi8/Tj77yz8Ja15c0v6es+ll4DpDJmCIXI8PH1AYQyMeMyOkQ2BLQyi+l/Eqlr7O1A9VHknj3+YF2+vdv+oPgCl/kXCAJPQVoE6aavpv8PTk/AVdzMKlMgK/QcdUntkC7gWE4D9gFwAvJa2LQXS6AVgkkoJI6UAt0YhL9JYvkUyw7cdOtXHTk1UbkE5ZlwfdC1Ko2VJXadUifFxgaAf7q8R+haRNaaNB0qrvQ4bnEo0i/G0LQXEQKErltGTOnvCgttDOiqplqORTNg+OMiDTTunXLcP2GNVizpgO5PGCZMk1CKV/SzB0cHMXp05PYt38YE+MB7JoNqAb0TAGaasr2KpFr9lCfPA0rw7Ft29XYdZPMAdt2gGp1ElqWqqYTi81zAG3blZ3Kv3x2+9HsgZakBA01AG9UJ8th8MT6jo5/9/mSeTilXTx7zZACbWST4QO88MjDP/jsmcP+P88qKza5NQMsMJAxs1Fxhaw0FOogsdUSJORyRRl7ZunrbO0hKjhntZ3rAXCFAu0sq7zkXDy3Vz/1MMl5ScVNAXyzidN8FOs+sQWlmwsY7QacDmAyqMI0Nah2CCNgUClFwlXhPYmSIKrAZ0LnZlajt2AfOh/QEg80kVdQta4g+5dqO1RNTFdNvMQ//elp7P/gJCYGR6BYBWQzJdi2D99jMKwcAvIwBdDGkZfoVbQJqMhaXajXm+CBDc0MEPIGQncCqhWgWDRw3z23o7uHIZcFajVgaJC815M4dOgwRo+PwOi+Cq6jA0yHrmXBmAnP4+CUkEWIYimDZnMUnj2McqeGm3dehx3bViObBcYmqtCszAUKAqd6ttM/LJuB2lt7vlwIcAGVUwLNhdKsHu3V1N++trjssZQNauaZvsTfkgX7+s3pwP/1X72wcf/bQ/+4ZKx7qDmhLdNQhM4syX0q5qMMG4v/pZabk42n7kQFJZF3cMGjzfTFT4TMLrj/ZfaBWQPt+UPn5zsMETroOYb9Iwdx1cdvxLI7ezHZB1Q7gVF/HJm8RWS2AmgNXwItRW8CxmRhFDEKi1aRJdpm8qRbIV4Z/qZwrR94UBVNhIfpakWhEdNEUdH4OPDCC4dwYM97UMwCioVuNOoeXBvQLcrtxh5tfI/xPJSLFiFeQB4w86BaDLoeIAgb8MO6AF/dYFjW04ls1kK9UkWlUhMtQ5Qb9QMVTZtYuSyYZlG0IBHAu015DurD9WoTKHRaCP1J1KsnsHZNGffccxPWrMmh0fCpLSLhbZ/TIInQ8tQHlyxom1qJHD3hLjioGvdghs2G3qz9bLlh/OZNK3rfSquNU6C94MQhr/b57+67+aW/2f3PmNN5x7XrtmfGh5vwbA4S0FYUKs2XvXXUAqCSrqVXT0z0s08R63xe8OQfwQ+Iyk3Rm5h8QEwF1FwuJ5r+ibCdfmLdz7a5luwxvygjFlMgRip24pxxUQu9UpHS9N7iGT2UmXqTqRdU5agbDZzQRnD737sLwdXAWBFwSyF8PRQhTT1g0AMNKhHtc2pvAzyRr+UgH/fitoUYv4RAQMxdLC4yslWUfyU5I9IkOPyhgxdf+Bk8qvbiOpqTLopdK9Bs+FLblugdo/CsuNu4srl1PPobFUkFQh+4/X/plcr0iCTUaF8DtdVw0TIoFkNE98j1KBUlBRGEWKFvw7CAfAYYHz0Kbg/jtrtvxl13Xi/ac+0gQK6oolp14AcuyuUCmk0XtVoN3d2doq1IbrEMYNveFMqWTFrtKF3LkYj2IoYrz6Pe4VAITFD1NFVy03fRCD2UVOdwkXvfXJsp/8VnurMnL24uXLl7p37ZtLHd92y9/5knX/nCwMHqr+XM/q3czuimWkLW7BC9eLbtolFpii+MbmngKuVuz90yNp2U/cqdSnO7M+pLjB9EZ/XLRly1ySPHwtrxa6S3PbeTXwZ70QONwJZ+ZN5OETy61H5Cf3MFGUK8ne31tz3amQGNk6KP5WNQH0LPzuW47rOrMJQDTit1+BlZbKWG5NEa4pXk4whoiVNZFITHRA5ztuVCAG0EfC1Vn8TFxWBH/aOUh1WA4RHgg/cH8Pab+9CcsGGVesGQhecRGFINBnmNEqinAm2MYVFUhhYugk1OAqyAt2gdooiCSUkTGYNtSNSPagOcPs81cERAS+BOmoYUMVA5Aq8B7tdh6B4sw0c+x7Bx4zW46eaVIGdasE9yKpCyxSIsX8gI8o1KpRJ58RHQ0ksL7KNyrwsALc0xMQdpyaGqouUxVikqqdzRq8PPLjfx7/tWrnzvE4zV5zwNrvAdU6CdNsCcc/XFx06se+35/b9y7PDkF7Swc7OGkpHROmBqBfBQg08FIooB09JQt0ejL9YVPlMW5PZk5erU3PbUE3kehfko1KZFrxJwWgHLKUCzIBe5pAclD15ET1SiQ6QWEeqBJPDVxN98HrMRX+gyZ/6q+74HnglRNScxaozhoX/0INzlwEGvAr+kwaPYMD3wA10WRQnmoYi8Yj7qjS/GIW7dUqJqPa73iudVq0o4aZ9olQBN9NWSw2k3gccf/yGGPjyJjlXXoVYlvucM+XERCMp+03jhIog7ZD1xNIfFuy2ijFgXt1UoGakByQ6FCHCZA65NSH5lAbTkPVOVs+xoENBO9xh6CKtj0PIaykUTI8Mn0NtTxmc/fyf6VgGDZxxksyasDDAxUUMunxFCB2fOTCCToXC5XCRM8WojTmgZOm4v0OI+7Dg1Ru07Yg6SEhTdceCL38mB6NSVQWP4+FdXd+X//Jd6ek5faAZ+lN9PgXaG0ed7ufHivhOrX31x/+d82/pCZTi8sTmpdGS1DuRzXSJX1ai7aDbrolhBrmBnLoaiisS0SOrcxWHTv+jTh0N6cdJ7i8FVhEypsIXI25e6GGeBnx7yoSbZiuj/tPAIKOeo6lB0Bb7QY53uyU63d3yRU6tThUeqqbCDGtS8i4HGAHZ87masvms5BlQPtZKCmuqLSmPyZlUhxyeBVrCkERvmuegyZ2uXiwbaZKtXVFjdcuDiNp9pJxFoKeeTazvI50wBaD956QPsefdDhKGFeoPD0EoIQyLsiEAwURQlvXkORupBkUyfbPmefkNxn7EMu0/xaolbWanIqJjgKJbvC8CNM9+uByOjw3Mc8KAB0n7wXOoNtrD+muV46LPrcWbYFjngri6gWgMazSoyGaKVVNqkG632n8SxBQWq6JJuLyKi8YyBlr52IRF3RJKJdHWBJ4vMinDfXOM1/9ENa5a9kyr1nH/Cp0B7DvsQ2L49MNH/7b946n6Ldd6hhR2bfVtdUR1zuj2HK6V8GV1dPahWq1GOJeLgjbl4o1fK6YoV47S/p7/T+nhaelaMxVTQIPo86dG2iRGmAu25ZMhm+6Rf4s9Nr1ZKshCRv+T7LaAVPpMITRJjmQGmM3iBJMGfup0DaKeAouQ2sgo5jE6cQT4PVPgoark6bv/y/aivNDCS81AhGkAS9hEsaKpgQqNN5Balrzu1xWYxzTmlEjhBpBBfQ+v96faJF20h6rVJlEodcGwpPLB392G89toe+D61+mShqjnh1cq++baUYAy01Moq/UWiZ5Wvcot+E/lX2YfcCtvGuV3iKGaUhpIMVFK8Ia5wlkehuR96DkzTBLXT2NVJmJaJTNZCtXoGn/vfbsPyVVlYFtFFSrrGRtOB59sol0twHDq+vMKpoWsZ9o+BNskoliz0pNA65WQJaA3DgKGp8F2P+oIrebv++B0ri795XzbNzV5o2qdAex4Lcc7Zvlcq5Tde2L/y5Zfeub8+gW3Le9auLhe7uxrVRnlstFrIZ3sMcJV0j2e05bmFny80NB+N94XiypRbTT4UZX5IerQUOo5ylWLFLx8exLBzWW8XAFryKASLTwSw8f8FZSBBpUZtNpHN2u4UGSX5E8c8o4AhvSeUfhgzLYyPDaOcBc+UFGfPqXe1Xb9yt1u+dX1+rKxoYxmgITkboJKIBlGOchImkAIbEmiX6DESMzVNAZJp19IKHU/LBXOKlATwPWpjMlGt2OhfXsbxAY6nn/4xalWOWiWEbnW0w8etHuJ2RzL1F7ePTOMQzcdoTNqzOf5UXJQU8XwngJnMGJIikSDFkXsWS3lMHj8O5HLoLHdiYmxM5H0tK4P62ABWXVvAQ5+5DR1lCiHXUChkkcsrqDcIYCntkGzviUPmkaSg6GOXHu30kHH8nSKgFekbHgqyDU1VCGi90PeOFd36v711fc//uIcx+7L+Di7CxS/RN2QR7mweT8E51068guLutw50v/Xa+1efGBjclDUL/T09q/rqk+qykJs5AAS29EPxnxZdThCI/oC5bNP3O9dxkn+/EOokPzvl/yzS5OKtMmnx9Ez+iAX2NJ2v6fd1vv6C+HzxK6dQJLjChLJM+2kdx0JFTaRYqDBqhOQGuFIkxhwC3DikHHqJ/NxcrLzU+1wAaIlAnh50VFEKoKaqahUIm74feE7Q9A1Tczgj4mFRFiZtp4SEgtTo2WaTFgwrZGeCSzGKSgCmNqEh9Jp+Hn5YKDF2un6MZa/tKlz12V1Zd21h+ekM8nUjBpYQBsm+UV5YCQRPbihIWxaooOlCYyPAiEK3sqe1XdE7bcc4ojT9z/Chqk2R+w4DHZlsHnYdOHhwEgcOnMDhI4PQtCJCTl9r2UPcztFSYEGFFlhSGSluU4uuSbBxJUkupp1bKOiEOtRAthyJViRRhUy9+pIYh/5G+dba+Jj4eljZnOh48B0qulKgqXXY3hHcftcWXH/DNUJpTNOpGEpHyENBaGFZdO1yUSrtE4XNo6pmwTWesM/0tsXYQ9cUBo1oOCmnH4ZnMrr+2moj/M2/VzbevdAwpe8vLXfaZWl/4kUe3VvND+zbZ50YnuxoTGjLOM8UFcbzHCzLQm5yKs1kjIppyRVReCJxwzjhCufxKw8V+gvnTBELWTJK/Hkht0leR/Qqno/nEf9Mnkd+Nj5e22mM9xcsb5L2hk4isUtcWyiIbZlCMSsS+ZT9I5xDo48xagih/cTfo+tReCj40ukNwk2Qs0UiqcTuQUhKu3OV0Sc4PRHlE4hxhethTCbrkm/qgalKyEmkTKV6StvzfC8MmMI95drQ0+4KfesaxnVG+S5RmBOXHcsE2eJqD0YzONYbbk/oJPAkPPREWDi+1LjoZcqXQVArSkk20s72Qns44M4x01R2F4rGz82MfiIMHdcjNgUFPmdBENIc42oYKi5XAk2CqRqGIWdMYZy3X3XxO4JQCRWVO4bGM7oOrV41uNcwjCKzPqidXHv9Z2/NqdevfOhMXvlYxVQMT5WLG40KYzj9CH9aVMpSi1G8woo9seQDuyUWHwFyHLKMdW7nPnRS4EDuT9cgoyPidRZTgexrqC5sp4lioQvDIzVkrLwgg3jxRwPYs+cQXI/a+SxRpCRbfTTZ6iMAi1qepEcvl4qUs4280VYL0HTAlfNBAi2R4uQF4IZCipPuhfStJdAKwPVdlLu6MDlRRTg5CaO8TKRRnIaDUknDxPg+ZPIh7rzrFmzf0QfbJYECG5msBtdtQI2K2eRiKI4+yMWRXErLCmmyn6TalKAcj40fetANFZauUB4DYa1aVf3wrf6ujj/Y1KH+4J6UbnFWODZXb2tWB/+ofIhTA9wJaMOTUFWqq6DveQSaCuHBOQpDk38Pg7MbErl/7iZFRvwB9L1MUPNc6PMXGg9lWmUR3Ue8z7n+P9Mxk/eV3C/52fjv8WfpNbkf/Z9sEl/TOz8aufqpJ17+dcVZ9sWu4tru6mhTcNi6HukGn7vY6lxFavPzdymWFj/ok0DbViWSkm1Sy1SUEUlNV04eDHklFjxXqqmQTBp58B53xUNW0f3qWOX00Uwh+FHfqvxT12/q+3Dbx9YNL9/JpFjyAm1DQzx/ykHpOHdufKs+8W/Zit6bzjgO6p6LvnJBdLM1R6ooZHOwg1hsQEroBSyEH4U/xWKKlmYUco4qlmkdR/zWVFxFdvM0me+V2rZJ3dRZ/h7nRlt6rLPZj6qnI5DhLlTy1AIOPwBMIyMU806frGHg6CBefvkdlEvLwXgW42PUZqMhW+gBD6nftgK9kJnxuqf2NsdFWe2gg/QiNShBXhZJRYAnAFd46QS0NG+SHmeycpgqkj3oagOOM4p1Vy3HbXdswvKVQMMmpZ86rIwq9HXF1gLatudPLVqu7ojzmL4C3VdFvzRtFIdzqcvIBGzPga4EKKocuVrt3Zzb/NpVxWXP/lJPLq00nuV3MAXaWRoq/djSWuDI27zjqUfe+OTJA8G/y7Dl6xoTPkzdBCPRh7OqbhfvWmOgbS1IIq9tivxfAmiFzmeC8MDxAsGpSwBLUtw+6YsyFx5rjgas/nahrH9785aVr2zZuvbINZ8iKanF2/bUeO+LZ0b+4WmN/0bNzKzwDVOwIOmBAotQ0QvADUs8lMkZkqLy8keuLXkEtASuVExF+EEiBWcD7eLdVfJMIULfhUVCtZyJEL0UWSex+ABjI3X89KXXMTRYhdfUkM32QkFWtP5oSlZ4mhONERl9aIXPI0rQ+PcpHMlSYq+ll0sAG1LomMCvrXMrQTfxuRZQTgNa2idowDBCqLqL625YiVtuWw3dBCarVRRLJoIwmjLJiudIBIWAtmlIDnfT02AmgJaYv+j9OkjBiOQAfRQ8p9LpNL69nLGv3LBy5cBORmXT6TYbC6RAOxsrpZ9ZcgtwzpXvfvXUvS//4Mjvq17XjSzIiNAxFSMvKdCKEG87NS3JN+Itpu6MvmZ0va2HpgQmVVcwMjEMDg9dywrQLd6YqA8eBWv+JNepf/f+h+7Yfdvfyp5eCqJ2Smg8Pmzf/s7I6d/ySp13q8WSOnRmDCrT0F0oolptQM9kI1Uf6ZnKXGOkcEX5hKRHS84ZFQ+J7LvsQiWyKbnfUmwSaKnXVFEYbJsUdkgQxxSED74LHD0yiTd+/h5OHh6EleuDaXRgcqwpCCWKXZ1oOvVIOjCuem4X6sk7igvVkt5spHNLs0EAbdQaeBbATp1L4nAJwg1atFGrT2c5g7Hho7BKKj792buwYpWJar2OjnIGfkBAG0V8Wnnsttfqa/J9PaB8M4WP5XsEsrSAsgMHWVOBxV0Yjco7KxX8m7XF3IsPlkpjSzFil+s5U6C9XEfuI3jdz/3x0J3PPPr2wybv21jIdMOzl9ablZ4J5dTIr40fisl6MAqbJmj/SL+45VkwkZere+PIFhSYWYa6OzZcqZ46kOtmz+742A1/ve32G09c8zFWWcqhfonz8u4To78x7PNfdzPZaypN6qtVkbNy8EIq3pEh4HZONg6RS5BJ5meFP0b2EAlAmVPnyjSpv0W+WWqZMU1ZVt1sNgUhCLVOGYbUraX+2v3vTeCtN97H6VNj0NUiMlYHPAqf12rQ8xQ6jlkyplE8tu4lnhMy797uhyI7xA0LSQ82Ub3cOkaiejgCW7Kt73noKFoYnzgFhJPYfNN12LLtauSLKgyTijTcRLFTXAglC6PkgkgWkxG9ZnuutmUBKQee0QDLaZzMOLXvrMubf4ieniO/wths1UAWeUQvzdOlQHtpjkt6VdMsQN7VC386cucTf/7aNyz0bSjn+1CbqEOnONlSbeJZE3PcJvsn2x5tu4cyZvuJXqmoRnEQWhWYRb9arQ8Njk4efWv9NT3ffuiXb39ry6e6TizVbU0/7ws2v/rNY6f/6ZAbfNLs7l1VC4Ga4yNHyjJUshblVgmZpHNKCw/5zYzFhgAAIABJREFU2qIgjA/aCrHKgpukUMdi3y9dG1XSklQcFdVRz7LIlSu60IMlXVqKKlcrwMEPhrD7nfcxNlpHxuyArmfQsCnsqkb3EYNsEsym3VGyQKr1VtRfO2PxVGL/lhRnfB7ZHhT6gKZwZHKA7Y4CSg037dqArdtXww996KLoeJpn3PKKqZhMvicWS6K4LfLMqVc79JFhgOXb49lm86VlDH+wsWy8sbOzc3Kxx+pyP18KtJf7CH5Erp9arH7wzWP3PPnou1/Lov+GUq4btQlbhPlaLDqLbQtBIk9tN1N7J9uOTJRTE20VxC4UPYQjwoJAayK0RseGqwPvW1n/1ZtvveHbdzy07cN129jEYt/K+c63l3PjzYGhHUdGav+/vnzlvZNgXUO1JrLdRZDQDBUPSW816rWlvyW82STFX5zTjqG4HQlYmjumQihi5yegJcAlakFZcE/eIgmJyOGt14Ajh0fw7tsHMHL8NGBkUe5ejlrdkdXIYpPjHFFByD8lW59mBNp4TiQiIkkCkpn0ZVt1AFStpMJr1NG7ogNeMImxE/uxdsta3P/ALihaIAqipBcdbYmFDo0R5ctpo1CxyMtGt6JyH2YQIOu6Ts5p7OkC/uv6kv7Ux3t6Ti3NSF3eZ02B9vIev4/M1fOD3Pzuswfufv6vD341g74bclZZyIlpxEW7REJtklspWQ8S5+lib02UA0U5XJm7bIMOR6hVT06Gx3+84qriX91x3817b/+l0pGlyMXOZhK9VuFdB4ZG7zwJ9v9UjeytVU3LNFSGUJOE+5LMog20ovApjphGfWtxxJhyf3FLz0VTOM7m4s/xGRHWFmQgMgpKNJeUqxX4GHUhi7YdUrJjQKMBHNh/Cu+8vRfVsQp0qwggi5Da5xP9qS2gbXmO8QUk87X0t2QP+Pny1G0vNjnXFa5CYxk0GzXkS9R2VEN97Bi61pRw+53bsWJlQdYwRJGD6WYQ4xW19Dgq4GqhAFyK0hhhgIzvI9uoH+3h4eNXW4VvresvHE5l8OY24VKgnZvd0r0W2QLUQvXkN4/c/eP/uf8/KV7nRkMtglOVJKPY2NIQJkivTfqp4t8o/yq9NSmDJoqDFBdQqI3CE+FiMHcE8I4FevWVrXdd9a2P3bvhyKXmxc40vC80+MrXPhj4tWax48tYVrrh6EQDLCOFxwm0NJKPFA9vCbhJ9UOZx6X2n7hCOaL/o4buC9GsLORcCyh8GrUhRQT6sToNVSAHPqnVUDhZg64DzQZ5toPYu3cfzhw5DbW4UvbAtMgg4hRBMl9LNxCTWkwD3fjX6TSaU0hAEqxSSVtwBVmzCNduwvEmAKUJ3XRQKmvYtOUqbN+5HE4sLDYD2FLomYr2aQFENJsOAa1KczqAGbrIeV6l2Gj8cLWe+frmbNebOztZGjKe41xMgXaOhkt3W1wLUOj4ew8fvuu5J/Z+xeS9W/JmJwKHCbm4JQNaYthwHHQUy1A1C9VKAyT/mbFy0Awdjm/DzFJV8QlwVkWugzUb7tCA40+8fuPGtX95x93b9276fPb44lpy7mejyu+nR3Hd7smRfzLKtE+zckfvmOeAqwoM0momcCDFNz+IcrUUepWx15gAIdZfFd49JEmCZFZamk0WayWQfhrg+Z5UquGUDw3I6yXuX6pGPoYPD57E8WN1hC6Fi3VoolrZgOARUXSYRg61iUmxE/1OoekWrlI1NmMIgkRYV7zZrlAXPi8R+tOmSGEJ0QYmRDVChKQJq5kIRQN9A0x1wNQGOrtNbNpyNW7cuEwCLbWXxSZO3B9FE0ySweNAUwnhadSuRXl2D7rd5Jlmff8qRfnaDeXykw/l84NLM0JXxlmXboZfGfZL72KRLEBA+9QfH7rzB4+/9xUz7N16qQBtIVtApdIADxXki52CgGKyUke1UQVUH7Y/gdXru6CY1dGB0+8eZFrthdvu2PA/HvzEroHOnZefh/BTzgsfnLFvOtG0/8W4Eu7yMpmiT3q5VEhDgEntoIK/mpikgFCoC0XFNoLIQhJbxFXKlwbQnhtsqRLZsixoqi7ytkTaT2BbrYQYHWngxy/ugWtrRJok8rFEPhI4UiSWGRbyuQ5hAyq0oj5dAkdxIJHYpgrsaSHjRA5VwC5pwAqpKjIs8bLRNUhiEwpzN2t1dHYVwWFjfGQAUJu4duM6bN9xI/qXq2gSC/E5gJaul4rXhL6wGsBTSejehcY95DzndNHzvru5t/+rv2qaHzKiKEu3OVsgBdo5my7dcTEtIELHDx+5+/kn9v6eGfZuzpldCFwK2MZKLIt5NfG5FJi6hUbdBmMarEwBYcBRt5tgOpDvMFF3hjHeGDjps7E3r72x85H7Htzxxo7PlI9fqrnY2Vjxec67Dp+pPHB4bOz/5uWuXbaiEAWyAFoh8UZ0aETppUB4+DHQkudI7TzJKljZUrJ0j6GpZ07GsCWukHIN9dkSOb9tSy1WXdcFyFGfbWUc2LP7ON7bcwBoerDKPchmimjUHdgTdUAj4Xji66ZcPdlECmPQj1DmiRYi7aKpqWkQXZfyiMTwFIaB4GUWCeSof1slUikWwHeofs7Gyqv7sWPnRvSvMOH5clEgPemz4/OCjSsk75ty7QGCwEUYNmGF7kinwn/SDeVr1/b3v/YptrhEKbOZg5fbZ5Zuhl9ulkqvd0kt0ALa7+z9PZP3bs5b3fAdyq9FTDxLdHVO00W+UBLtINVGXTwIs0ULTA/RDCdrIasd8vWxVzdsW/6tBz6z9eDlkIudjSn/ptFYvefU2BcnNP036op2XUA9tUwDV3UwTQdXdOkphckeW8rLyuRtKy+7hCArPMazbnYq2FKYlnpqCZAajYbwSsmjJMk4BkM4mtVJYHCwioGjJ3Hq5Bk4NRtMzwnAdWziq1ZBcpm0+KDjCU1hij97HmCQHskMOdhYVpNCyyoTxCYE9iIEHFcRswCe30RYGwMshvXXr8WmzddiWZ8hFjm+Hwiu41bYeIaBVSivTmBNnNFeE6pvjxfV8Oer8tmv9oTha18oly+pCvjZzM1L8TMp0F6Ko5Je09mPP86NZ75x9N5nH9/zuybv3Vg0u+G7XGgXLOVGwEoeT6hwNJ2KCBfrGer6GD0+PHHs/dvu3/4nW3Zeu+djn7fIi71imvyp5ed4tbpu99DE/1dhxmc8jhWBqiHQTQSaDo9p8JgCPwFl5EHJIikSJZCAFlLOcYmeQkJg57yTR8oTSs/Tl5KNChceLeVLKV1AUnr5nCJCysND1G97AkeOHMP4WA1EM8wUA0JHg0j7VbmfzM0GotBKVYgZKkFGEV9PBLQCXEVzsg8/IBUnGxBsT1KIKZPTUe4sYN1VK7FmbS+yOcAPQqhagFxOh+NMj/i271j0DJPUAAugBj503x7Lh96b/Vnzm6ut0gsPlljK/jRPD5clmuLzdPXpYT4yFuCcG9//+sB9339i9+9cOkBLvZeU43Kg6lTwY6PSPDPio/Le8rUdT6/dsPyHn35g8+HyJdYXO1+T5jjnmR8eH75pmKn/vO4FO20oy1xdh6ebcJgKmyqvJUdmu8eWhPtCQBeiCsQstXRAG1/XbMBW9NkSgxIVJBFtZEBatqHI3xJLFOVoqQVIVSTBxdGjgxg4egojwxPCqxWyOlR1pGgQ5cuiSIx6dq1IWXOmUaH+Xl8ALVF0glMc3oduacjlMshkdaxdtwpr1/ajuwdwPdESDCsjo8u1ekVcX5u2MeHDizA/KSr6UAIXGT+oFkL/rV5L/9Y6U3v+wVQwYL6+JnL+z+vR0oOlFlggCxDQPv1Hhx947rH3ftsKe28sUOjYJbW3pZzC1LrjwecNKJoDPeMOwGy8vGxl5vFbb73+jR1f7L+sc7GzGcoXKrz7JA8eHK41/86E721rKEq3o5uwVR1O5NGKPlvqReWATgVF4kfyIVMhVUudbTYnnOfPJBQsZzyyyF/SoiACWvqQ8EZFzpS4kj0Ui0WYhgHHAexmAB6q0DUJvEeP1lGrNjE+VkWlUkGz6YgQdJOE2YlCVC9EbWEzAy3qFSBrIF/OodSRR0c5i+6eMnp6ulAsSdzOZOmaCFgdGKaKYkmD4wQYHh5CBynCRwQp7RYk0quUpCKa8GQdO+8H+/tN7c+uyuaf+FQXu2RYyeZ5uJfscEv5lFqym05PfPlZIAm0Zth/Y9HqFhWeLT3a1i21NTXjP52vTzOugJ2itiN2jIjep5iqXS0reXodaFkXDW+40rTHjnR0Gz+95e4tf3L7J68+1Ln+8qsonuuseIHz7oGh+qfONBtfGlfVXbaeKTu6AZepcKNgOXmxwocTPbaSmlEUKauKyOUmH0Rnj0X7ys61rpqLzF7s0cay9jO9Ug8tebJxlS+xB8twMoemK2jUqiKUTHdHHi4VxVGFMrFK2XaIbEYR3i79TgVj9GPbXIBurW7jzOB4JFov7zFJ8kH57K7uMvL5LIrlAnJ5QIucYVUHVANwfMD1HSiMw9Q1BJ4Lz7VBRVT5fFHkg6X2bFx01ibk0HiAHHdqmmvv7Qzx6Npi7pmebvPQPSxJJTXXWZHul7RACrTpfLgsLCBDx4fue/o7+3/XCPtuzBnURxtCUSWpv3yMU7sCTWkS601ywranudSMoU16VB6F5ZQQJDUfw6t84EmgNU0T45Nj8H0Xxc4SMjkLjtOE7TYR6lWMe+/tzXb4r15zw5on77rz1r2bP14iL3Z6c+RlYeOLuUgC22NjtfsOjlf/ryE/2I58RyFTymNiIhAPesErrDKRy6QWFRozyt86AUGXfJ9GSRAZUYS1dTFRLjduL41E02NmKSrmiQHqFxWQj8dberUxocS5XmeyzvT8Z6KoKZpmUSp6RtPSR2iREV+/UDVK3H9Lq6DFRSwvU9QQ0yKFel91EqWmnDeE+o5GcoRCUIqORASX8kICuhBF9u6Kqm8eIhM4NX1y6CdriuYj63pWvFrI4FQKshfzLTj3vinQLoxd06POswUIaJ/6o0P3/eDR/b+jh30bczq19wT0dElQ2cVASw9uWY0sSBQSnkJMoi6gloXwVAm4EmhJEDzxeXqAETgYTLTrOH4d1foEbL8Ow9C4Xmruy62oPLL95pXPbrn7luPr1l1aHMXzPATnPRyJPvxNA/1HmtUHTjT9X6uG6jZfM0u2R1KG5H7JvGHAAymLR+sg8mbFwqgNtAQ2Uxu22kArGoMi+sYYGglQzucBn++iY0BfKmYqsdCL7idm0iJaf8kZHYu+R33IFOhNgGxIYvU0fzWquCLOYpr7ipC7o9c4RkCVx4qmijYfwV8WEJlIABW8luX2uytY8yv9pvZKT0/PSAqyC/eNSYF24WybHnkeLUBA+8w3Dt37/cf2/24baOmJJCCzdabpwNryMaboxLb9F+J2pYeWLBjRIDykhGh3066g1JUXYeLRiZNw+STK3bnThXLuEDeqP/rCl3f9+Yae4jG2kcVkd/N415ffocizPTHh3Hpssvl3z9jOLs/IrgjNDGBoRBoFx6d+zQBMVaBF7S4tKb1oYTQV+ORCKNa4FQJyETiJhRQBzBwrz6d6zgtj6/O11tC9BDT1ZAFx5MlLoE2KMkwHWLngiDxvUchOtIltcKX5K9+nDiJXLBYN6t31fagUVvbDwZyi7M0p7l/cuKznuSCLoVT2bmHGPz5qCrQLa9/06PNkAQLa733jyN3PPrb394ywf5PwaB2qsiHPVQqOiwdv9P84RNz6fUq/voRfClkG1LohgJaOQ15BrMRCrScBDDPE4MgAjIyPvjWlas09fXKyNrR7121b/8vf+fK219lHKBc726F8mfPOIyP2lmO1+v8+5Ad321bmKs8wEGgGQk7FRZLoSAklqNAYEZeU3NoRBRkVngloJcMUwdHFAK04wpQw9WzvcH4+J2ZtNN3aiw0uPHRqgRJzlEQPItMQKBOIxq/0vsbbmr+CR1qsE5n4DP1fV6kQLYTqu9BsO8w47kAe6svdZvbxHoW98bdXZE5ezuQp8zMSC3+UFGgX3sbpGebBAlEx1J3f/6t9XzF432YJtMRCJEW7YxF26twkMXb5u4+4qrSV84tVVmKpupgrOVJakZJnIskFrrhoOKPoX10M7WD41MmRA++vv6H36S/96mf+es2dOMVSxpxzjuyrnBfPNLz1+4bHf31IYR+f4Mp6TzeZomehEr8uFQe5gKEQ2E7TSxV4m+j3FJSNMeBSTrdNJiUXRnPrpZaANg+T8zyHIKA83xaq8j6VyAat5Ua0W0DFV9EBpgAtecEhYPpSyEHSKFIVN4evcfii95Yjn6WchwOtUQtyrn+km6t/02flHllhZT74dAcbX9i7T48eWyAF2nQuXBYWIGaop/740B3P/dX+rxhh39Y20MYUdxJgFdKHnUmQPQqtCbHsKEQstVHbKittIXICWg9cbcIJx5yKe/rwshXma3d9fMd/vvXja94vrUob+WczaYjU4t3JyU2n7PCXjjWbn65AvQZ6wdLUjEAGqsbVCCUSoX8ajySBRUulNQJb4eUl0JERGcQcgVYCnLyTuAp6sV/FElGoH52bSjiZl6boixRpp1YpBoOEoYhKkfK91N8bgWyg0HfBFzKOutN0M459tBvs6dV69r9tMHo+vGcZq81mDNPPzI8FUqCdHzumR1lgCxDQfu/rH972/e8c+E9m2LdtCtBO8WiTQCtX9bJUU4aGWaiCi6pkqaMab0SeQGQAXJFSdqHaBFfrg6OVgb233rXpkQc/vf2FlbfgzEexovhihpbA9oDjrByo1T55puZ/sQ7jxoCb3UwxEYg+20BUzRLACgYmsfgR0NeG3xawRimC+PdkdGKuFxlNgriZazFf2/zDibaxxH2ISxOtOe0iMAHMcmkgpQlJnD7h8YYqRWIksYUKD2GzVs+G7gfdwF8u180n17Plxz+znDXmaq50v7lZIAXaudkt3WuRLUDqPc88fOTWZx5776sG79s+q9BxS1hblLhGYBu9Ck+InleBIJ0QIKs64EododqY5Gr1w1Crv/vrv/HL/7F/JYavVHanxRhGqkh+stHoP11xtg7Wwl+uc+VmrmVXh4ZRqIQuXDEUpN9L3iothAhczn40URpAwq9U/I2z8hfj0S4Z/2PkRkuPeirQxgtA6WxTYZMcpfjvbd+XQaFcd+SVUy8tcRYrzIMGP9CYc9p07AMdGvvTlVbupzvK5dM7GYtkHhZj5NNzxBZIgTadC5eFBQhon/z6oV0/+M6+3zfC/p1xMZSQZhMbhXtlLi8ZitR1Ci1LMe4gYAiozJgTwTv90MOrAS+sCnYn6A0OvXLUzLqvb7xp7SN33L7prbV3Cy92gTN5l8UQXPRFvst57vCEd82x8cb9o03n/gnwTU5HfnmTPDYqkmIKFEFPqAoxAiKAUInTcEpvKZetL1GsgigeL+fBkbO3DZ2t6Rx5soKFitpyGGuTZlAPbRDCD0MougbP9QXTVtEyUKA+Zac5ojj1Q4bf/GFnRv9uXy536O8Wi6MXPYDpAeZsgRRo52y6dMfFtADnXH36G4d2ff+x/b9vhH03tYCWBFAT29RMF5G9G3AdT+QDVc1AxsyBKRo8x0fTrcDIegiUGjI5XrX52CHdqr56x72bv3nTXWs/XLYxzWPN9xi/wbk+Ooa+gYnxLad9+/P1Uv6+KsMaOwgYtUUrqgmmG+BE2i/aU+QViOrg+CfqNRULq3kA2l+U6GK+Pt/2dqIK48TTmLx62sRiMLGSEH8lz59zEXZ3Ism8DOewfN9VG/VjlmP/vDenP9VrZl/Z0N8xdCtjzfkex/R4v5gFUqD9xeyVfnqJLEBA+72HP7z52ccPfK0FtC7R4SUjYbLQqRVKJOJ08pIi7U+f9Dx9yglS24MGzfTRDIZ9btROON7o/g1b1/7pr/6tHS/13IShVOh6YQf6pQlePuE21r4zOvR/NC3tbq4aK0NN7wkUHT7T4YaSNYqAV/B+xeHRqB0ojjFcrPpPXFi0mLnZmMdMEEiIEoKpy8Okhy7oHmNRBrCoCUq29FDBk6+Sdx/A9LyxrON9kHWcZ7sYe3pdqTzwxb78SBqNWdh5PNujp0A7W0uln1tSC3DOle89/OGuZx878PsG77tZMkNR60PEEyFibpoE2qhIhrwCz3dgZgyYliZA2XbqcD2qBQnADHtMKzQOQK+/+uBn737kvnvLB9mqdPW/WANN3u1rJ06sqanqRjvAp5o+tjrQrnZUo0xZRhIlIF1bUWmb6K+l5dR8AG0Msot1v2edhziUI3IKem96CJxmNHEVq0yBoajE5gRGvcdEmCw8WReK7jdCp37G9ILXl+nmo6sK5s/XdXYO38OYvWT3lZ747KFObZJa4HKwAAHtU3909ObnHt1DOdpdZwOtLHKSfbBa9GAOhTC2oofQDA9Mp16IJkLeHPeC2jEHk7tvuuPqb33qc7fs792M4XT1vzQz4TnOc0PDw/1nxmpbJ/zwM7ae2cmtwprAyOSqrg9fUUWFclwUlKRcFCHmi3AXYqappbhzIlWJi6FmOr/wZEldR9VgMFXEarjnIyRdviCsatw5oYaT7+a18HtlJfdmfzl75m93dKS9sUsxmBc450VM0UvwbtJLumItQJWrzzx89OZnHt/7VSPsu6UFtK3QMXmyBLR61BJBUztAwJowrRCBUkWlfjxs2EPHSl3qOxs2rX9i/TXLXn3gH9wwwFhKn7jUE0dELKrVzpFKsHK06dwz5IUPTHjBRqXY0espmiHBVra5TNmoSpl6oeewLSXIistl0jNP9tDKntq2uAABralo0BkD8z2EjleD7w0rITuaYc3nljH7mdUrMqe/VOgfS9Mdc5gEi7RLCrSLZOj0NBdvgaf/8NDOZ76z7w/OBtqYQlFFyI1WqwiRTjC9Cc2wEWjjNS8YPqDn6i9ec33fU/fes/X9q+7vPXPxV5UeYT4t8ALnWm0UvR9MDm85XnU+F+byt9iautxVtLKvMIXAtu3BKqKwba7tPTHQLpWkcTsEPq2EL1Yyoj/7HlQwGBwOPG9UCf1jFmOv5Y3MD3otvn9jr3U6DRPP5wxcmGOlQLswdk2PugAWePoPD2165jvvfs0I++/JGr3wHQYmnpJxk0TEYaxQwROFiR0opo2J2vHjXJt4+/pNfd++975tr21d1XeS7Uz7CRdgiObtkD/lvHCqifK+gRM766p5p62oO11VWeErrDtgSl703FIwVdHFa1Js4JziddOSoHSMGb3kebsLeaBzh7alvB2198ics+wPJh1anQSOwhBmiKqOcNAIg0OK57+cZcpL+Zx1ZHW/RUIAaTXxPI/VQh0uBdqFsmx63Hm3wPN/MnDVt77+3O905699qGittkI3g0YlRDFP6joBavVRBKyObJGBGQ3Ug5GRkbEje6/e2Pv09p3XPr9z21XHVt1aGpv3C0sPuGAWeIFzq9ZE14nKeHmoWt8y4fp3+qq6nWv6KqZnOrla0O0AsLkPl3GEqgbiD6Zq3ZD6TEngiSnQxY/svhU0i5wL4n2XSQL+c21Sv/XcWxB4iR7XaKFHx4/qlahmqcXsJAQCwpZwvNDoFZXEpIfMoYS+UNgxWOjnFDaWAwa9ifHXi0x9tqyqu8sdpfF1dr56z7q00GnBJtwCHTgF2gUybHrY+bfAz54YXPbkX7z6D8Nmx99X/K4Vo4MOSpk+NJs2ND1AqcsA0+uYaJzwau7gEWbUXtl1z+Y/3bBl7cHbP7f61PxfUXrExbIA5egfq1TKE1W3e9i219cajTurPtusZLuvd1SjJ1BZITB1hKYGX2FwfB+e7yNjWYJ8v6WmKEA2FCBMRBC+qp+3mOr8ogBt0CQClBiUCVxDkigSTioXkoDUD0s/SQ+XcrP2ZBWGqsLStcBSlaoa+JOqY59iTv1NvdH8/srO0oFcwRg9XS5X/xWb1ge0WMZPz3PRFkiB9qJNmB5gsSywdy83XvizH93++ktHf6szt2aHGhZymloQHoKieghYA9XGmZGATe5dfXXPkzdsWP3DW+/Z+OHynSm362KN0WKc59HJyU67yUujjrN8xGWfanC2ywZf7eqsyzf0Dm7oSqBSvp7D9nxZHBd5sTLkrAiQpXmT0XMtgb6Zrp0A+dwbxXfpERqCMVUCbSiPKwA2etWol5taech3DX0gDMRn1NBDVlPH4LqToecOajw4mNXU10q68WoxnztT4vXK/9ndXUur4RdjVi3sOVKgXVj7pkefZwv85M+P9v/3//79L+t++Uu6WlxfGW/ky+UyY4pbH504fZKZ3qvbd67/y1vvvOW97Z/LpV7sPNv/Ujoc9eEeHGn0jAP9o43q9gnf3drgfLOrKH2+rndwRc1xVTN9rig+CRYQi5SmC9apUCG2KQXcDqCeRzj+/ECbYNKIDRNp7BLIKkGAjKGLPCzlW1ng+0rgN3gYNBSOms69YZMHuzUe7DUV9qapKqdy5cxktqOj/g9STuJLaapd9LWkQHvRJkwPsNgWeO5P9qx6f8/Q1vd2H/yEa3vLdUtnlqkMdPTkXt+887o3b71lx7HUi13sUVna832X80J1rFkad+p9k55zYyXwttd8vg5GZpkNlB0oBVdRC75h5gJNYwGjPC6DKvRc59YeJMLAQuZOhpDpKJR3pR/iY9bCMNDCsKmFfl0LgkkzDM8YjB/LqOpxSzMO5LVgN5qNkU41W3XXpuC6tDNoYc+eAu3C2jc9+gJZ4PjLPPPOu+92Ok3PdBwbxQ7VuWbTNZXrb++pLtAp08NeJhZ4lPOM22x2NZywe8x1emsBWzsZhBubXLnGVpVlTUXtaoRhhxcEuZyR54yUCeLS9Wn3eKFiKApPC71YTvqv5CgzT2HcNTiv60BN9d0hKwiOZDnfYzHsLqrGia6sMl7SMo2eIir3MOZfJmZNL/MiLJAC7UUYL901tUBqgcvDAg9znq876G2qWF0NsLPiY0c9wErbCQuAkqFWVdkvJOqmiO2Q2lcVKsKK2lplKw8bAAAAnklEQVQFl3/sxEaSOwEYC6OCKRcs9FWm2DpDxeD8uK6Gb/TmtR8XfZzSMxj9x2k7zuUxWRbgKlOgXQCjpodMLZBa4NK0wL+v8K4JE8smmv6qms+v90P9upChmzFkAWTAYQrQBahBVw05UY216qWkIC4XbbskG0U0zA51FXEGGwrqGseIoeGowbHf4PhwWQeO/RYwnhY0XZrzYbGu6n8BiS9LTDe3V5UAAAAASUVORK5CYII=;labelBorderColor=none;imageBorder=none;strokeWidth=0.1;" parent="1" vertex="1">
          <mxGeometry x="1240" y="753.75" width="62.12" height="32.5" as="geometry" />
        </mxCell>
        <mxCell id="b5N7aF0onNaH-U6v3WgW-12" value="" style="sketch=0;outlineConnect=0;fontColor=#232F3E;gradientColor=none;fillColor=#232F3D;strokeColor=none;dashed=0;verticalLabelPosition=bottom;verticalAlign=top;align=center;html=1;fontSize=12;fontStyle=0;aspect=fixed;pointerEvents=1;shape=mxgraph.aws4.user;labelBorderColor=none;" parent="1" vertex="1">
          <mxGeometry x="1240" y="801.75" width="46.5" height="46.5" as="geometry" />
        </mxCell>
        <mxCell id="b5N7aF0onNaH-U6v3WgW-13" value="Communication Service" style="text;html=1;align=center;verticalAlign=middle;whiteSpace=wrap;rounded=0;" parent="1" vertex="1">
          <mxGeometry x="1293.5" y="753.75" width="133.5" height="30" as="geometry" />
        </mxCell>
        <mxCell id="b5N7aF0onNaH-U6v3WgW-14" value="User" style="text;html=1;align=center;verticalAlign=middle;whiteSpace=wrap;rounded=0;" parent="1" vertex="1">
          <mxGeometry x="1293.5" y="820" width="56.5" height="30" as="geometry" />
        </mxCell>
        <mxCell id="O7vtmG6W2NkvcAI7Jcrb-1" style="edgeStyle=orthogonalEdgeStyle;rounded=0;orthogonalLoop=1;jettySize=auto;html=1;" edge="1" parent="1" source="_1PXEeMUK1e578rC1gDx-364">
          <mxGeometry relative="1" as="geometry">
            <mxPoint x="500" y="485" as="targetPoint" />
            <Array as="points">
              <mxPoint x="400" y="470" />
              <mxPoint x="500" y="470" />
              <mxPoint x="500" y="485" />
            </Array>
          </mxGeometry>
        </mxCell>
        <mxCell id="O7vtmG6W2NkvcAI7Jcrb-2" value="" style="fontColor=#0066CC;verticalAlign=top;verticalLabelPosition=bottom;labelPosition=center;align=center;html=1;outlineConnect=0;fillColor=#CCCCCC;strokeColor=#6881B3;gradientColor=none;gradientDirection=north;strokeWidth=2;shape=mxgraph.networks.pc;" vertex="1" parent="1">
          <mxGeometry x="120" y="485" width="100" height="70" as="geometry" />
        </mxCell>
        <UserObject label="" id="O7vtmG6W2NkvcAI7Jcrb-3">
          <mxCell style="rounded=1;whiteSpace=wrap;html=1;fillColor=#dae8fc;strokeColor=#6c8ebf;fillStyle=hatch;labelPosition=center;verticalLabelPosition=top;align=center;verticalAlign=bottom;" vertex="1" parent="1">
            <mxGeometry x="376.3" y="580" width="269.41" height="50" as="geometry" />
          </mxCell>
        </UserObject>
        <mxCell id="O7vtmG6W2NkvcAI7Jcrb-4" value="" style="shape=image;verticalLabelPosition=bottom;labelBackgroundColor=default;verticalAlign=top;aspect=fixed;imageAspect=0;image=https://scalac.io/wp-content/uploads/2022/06/OpenTelemetry-1230x432.png;" vertex="1" parent="1">
          <mxGeometry x="428" y="581.67" width="133" height="46.66" as="geometry" />
        </mxCell>
        <mxCell id="O7vtmG6W2NkvcAI7Jcrb-9" value="" style="rounded=0;whiteSpace=wrap;html=1;align=center;verticalAlign=middle;fontFamily=Helvetica;fontSize=12;fontColor=default;fillColor=none;gradientColor=none;" vertex="1" parent="1">
          <mxGeometry x="150" y="498.5" width="60" height="31.5" as="geometry" />
        </mxCell>
        <mxCell id="O7vtmG6W2NkvcAI7Jcrb-10" value="&lt;font style=&quot;font-size: 11px;&quot;&gt;Board&lt;/font&gt;" style="text;html=1;align=center;verticalAlign=middle;whiteSpace=wrap;rounded=0;fontFamily=Helvetica;fontSize=12;fontColor=default;" vertex="1" parent="1">
          <mxGeometry x="142.5" y="502.75" width="75" height="21" as="geometry" />
        </mxCell>
        <mxCell id="O7vtmG6W2NkvcAI7Jcrb-11" style="edgeStyle=orthogonalEdgeStyle;rounded=0;orthogonalLoop=1;jettySize=auto;html=1;entryX=-0.007;entryY=0.467;entryDx=0;entryDy=0;entryPerimeter=0;" edge="1" parent="1" source="O7vtmG6W2NkvcAI7Jcrb-2" target="_1PXEeMUK1e578rC1gDx-364">
          <mxGeometry relative="1" as="geometry">
            <Array as="points">
              <mxPoint x="260" y="520" />
              <mxPoint x="260" y="417" />
            </Array>
          </mxGeometry>
        </mxCell>
      </root>
    </mxGraphModel>
  </diagram>
</mxfile>
